#N canvas 0 56 1440 844 10;
#X text -19 24 ARGUMENTS FOR NOTES:;
#X text -19 46 pitch in halftones;
#X text -19 70 amplitude (dB);
#X text -19 118 sample number;
#X text -19 94 duration (msec);
#X text -19 143 start location (msec);
#X text -19 166 rise time (msec);
#X text -19 190 decay time (msec);
#N canvas 1600 93 1425 818 samples 0;
#N canvas 0 82 450 300 (subpatch) 0;
#X array sample1 176403 float 0;
#X coords 0 1.02 176403 -1.02 200 130 1;
#X restore 38 32 graph;
#X text 66 -19 ------ 4 seconds ------;
#N canvas 0 50 450 300 (subpatch) 0;
#X array sample3 176403 float 0;
#X coords 0 1.02 176403 -1.02 200 130 1 0 0;
#X restore 517 32 graph;
#N canvas 0 50 450 300 (subpatch) 0;
#X array sample2 176403 float 0;
#X coords 0 1.02 176403 -1.02 200 130 1;
#X restore 275 32 graph;
#N canvas 0 82 450 300 (subpatch) 0;
#X array sample4 176403 float 0;
#X coords 0 1.02 176403 -1.02 200 130 1 0 0;
#X restore 749 32 graph;
#N canvas 0 50 450 300 (subpatch) 0;
#X array sample10 176403 float 0;
#X coords 0 1.02 176403 -1.02 200 130 1 0 0;
#X restore 271 371 graph;
#N canvas 0 50 450 300 (subpatch) 0;
#X array sample5 176403 float 0;
#X coords 0 1.02 176403 -1.02 200 130 1 0 0;
#X restore 38 194 graph;
#N canvas 952 562 450 300 (subpatch) 0;
#X array sample7 176403 float 0;
#X coords 0 1.02 176403 -1.02 200 130 1 0 0;
#X restore 517 194 graph;
#N canvas 0 50 450 300 (subpatch) 0;
#X array sample8 176403 float 0;
#X coords 0 1.02 176403 -1.02 200 130 1 0 0;
#X restore 749 194 graph;
#N canvas 0 50 450 300 (subpatch) 0;
#X array sample6 176403 float 0;
#X coords 0 1.02 176403 -1.02 200 130 1 0 0;
#X restore 275 194 graph;
#N canvas 0 50 450 300 (subpatch) 0;
#X array sample11 176403 float 0;
#X coords 0 1.02 176403 -1.02 200 130 1 0 0;
#X restore 513 371 graph;
#N canvas 0 50 450 300 (subpatch) 0;
#X array sample12 176403 float 0;
#X coords 0 1.02 176403 -1.02 200 130 1 0 0;
#X restore 753 371 graph;
#N canvas 0 50 450 300 (subpatch) 0;
#X array sample9 176403 float 0;
#X coords 0 1.02 176403 -1.02 200 130 1 0 0;
#X restore 42 371 graph;
#X restore 1054 105 pd samples;
#N canvas 214 98 1070 738 recorder 0;
#X obj 220 21 inlet;
#X obj 174 174 adc~ 1;
#X obj 174 202 hip~ 5;
#X obj 243 232 line~;
#X obj 174 231 *~;
#X msg 243 204 1;
#X obj 302 169 del 3990;
#X msg 279 204 0 10;
#X obj 174 282 tabwrite~ sample1;
#X msg 26 117 set \$1 \, bang;
#X msg 348 140 stop;
#X msg 302 140 bang;
#X obj 220 50 route record stop reload browse;
#X obj 411 158 loadbang;
#X obj 514 113 openpanel;
#X msg 514 85 bang;
#X text 556 84 <-- browse for samples;
#X text 482 209 v-- re-read original samples;
#X obj 690 676 soundfiler;
#X msg 514 140 read \$1 sample1;
#X obj 514 167 soundfiler;
#X obj 26 88 makefilename sample%d;
#X msg 416 237 read sound/bell.aiff sample1 \, read sound/voice2.wav
sample2;
#X obj 531 264 r init_samples;
#X obj 16 389 r sample_to_play;
#X obj 17 477 r sample2_to_play;
#X obj 213 381 r sample3_to_play;
#X obj 214 473 r sample4_to_play;
#X obj 25 414 pack s;
#X obj 28 504 pack s;
#X obj 227 412 pack s;
#X obj 223 501 pack s;
#X msg 42 533 read -resize \$1 sample10;
#X msg 241 443 read -resize \$1 sample11;
#X msg 227 532 read -resize \$1 sample12;
#X obj 783 508 s sample_to_play;
#X msg 40 440 read \$1 sample9;
#X msg 793 440 symbol samples/kick1.wav;
#X msg 532 294 read samples/bbassdelay.wav sample1 \, read samples/bpunchbass.wav
sample2 \, read samples/bebass1.wav sample3 \, read samples/bunibass.wav
sample4 \, read samples/chbounce.wav sample5 \, read samples/chchic.wav
sample6 \, read samples/lsynbrass.wav sample7 \, read samples/cowbell-small-closed.wav
sample8 \, read samples/kick1.wav sample9 \, read samples/snare1.wav
sample10 \, read samples/ohh.wav sample11 \, read samples/chh.wav sample12
, f 75;
#X obj 413 411 pack s;
#X obj 404 383 r sample5_to_play;
#X msg 417 442 read -resize \$1 sample8;
#X connect 0 0 12 0;
#X connect 1 0 2 0;
#X connect 2 0 4 0;
#X connect 3 0 4 1;
#X connect 4 0 8 0;
#X connect 5 0 3 0;
#X connect 6 0 7 0;
#X connect 7 0 3 0;
#X connect 9 0 8 0;
#X connect 10 0 6 0;
#X connect 11 0 6 0;
#X connect 12 0 11 0;
#X connect 12 0 5 0;
#X connect 12 0 21 0;
#X connect 12 1 7 0;
#X connect 12 1 10 0;
#X connect 12 2 22 0;
#X connect 12 3 15 0;
#X connect 14 0 19 0;
#X connect 15 0 14 0;
#X connect 19 0 20 0;
#X connect 21 0 9 0;
#X connect 22 0 18 0;
#X connect 23 0 38 0;
#X connect 24 0 28 0;
#X connect 25 0 29 0;
#X connect 26 0 30 0;
#X connect 27 0 31 0;
#X connect 28 0 36 0;
#X connect 29 0 32 0;
#X connect 30 0 33 0;
#X connect 31 0 34 0;
#X connect 32 0 18 0;
#X connect 33 0 18 0;
#X connect 34 0 18 0;
#X connect 36 0 18 0;
#X connect 37 0 35 0;
#X connect 38 0 18 0;
#X connect 39 0 41 0;
#X connect 40 0 39 0;
#X connect 41 0 18 0;
#X restore 1054 292 pd recorder;
#X msg 969 151 record 1;
#X msg 1036 203 stop;
#X msg 1015 178 record 2;
#X text 151 28 ARGUMENTS FOR NOTES:;
#X text 151 50 pitch in halftones;
#X text 151 74 amplitude (dB);
#X text 151 122 sample number;
#X text 151 98 duration (msec);
#X text 151 146 start location (msec);
#X text 151 170 rise time (msec);
#X text 151 194 decay time (msec);
#X msg 1052 227 reload;
#X msg 1065 254 browse;
#X obj 754 25 r note;
#X obj 727 84 t b f;
#X obj 667 117 f;
#X obj 703 117 + 1;
#X obj 675 154 mod 1e+06;
#X obj 667 183 makenote 64;
#X obj 667 211 poly 8 1;
#X obj 667 238 stripnote;
#X obj 740 308 route 1 2 3 4 5 6 7 8;
#X text 1052 132 record \, etc.;
#X text 458 211 allocate sampler voice;
#X text 484 236 drop note off again;
#X obj 827 524 qlist;
#X obj 993 528 r comment;
#X text 855 453 sailors to untie him...;
#X text 858 403 Lashed to the mast of his boat \, Ulysses;
#X text 858 428 hears beautiful singing. He begs his;
#X msg 827 494 read qlist-sampler.txt \, rewind \, tempo 1 \, bang
;
#X text 372 116 increment mod 1e+06 to make tag;
#X text 399 135 (acts like a MIDI pitch to;
#X text 400 154 identify the note to "poly");
#X text 381 183 supply delayed note-off message;
#X text -23 333 License: BSD-3-clause This software is copyrighted
by Miller Puckette and others. The following terms (the "Standard Improved
BSD License") apply to all files associated with the software unless
explicitly disclaimed in individual files: . Redistribution and use
in source and binary forms \, with or without modification \, are permitted
provided that the following conditions are met: . 1 Redistributions
of source code must retain the above copyright notice \, this list
of conditions and the following disclaimer. 2 Redistributions in binary
form must reproduce the above copyright notice \, this list of conditions
and the following disclaimer in the documentation and/or other materials
provided with the distribution. 3 The name of the author may not be
used to endorse or promote products derived from this software without
specific prior written permission. . THIS SOFTWARE IS PROVIDED BY THE
AUTHOR ``AS IS'' AND ANY EXPRESS OR IMPLIED WARRANTIES \, INCLUDING
\, BUT NOT LIMITED TO \, THE IMPLIED WARRANTIES OF MERCHANTABILITY
AND FITNESS FOR A PARTICULAR PURPOSE ARE DISCLAIMED. IN NO EVENT SHALL
THE AUTHOR BE LIABLE FOR ANY DIRECT \, INDIRECT \, INCIDENTAL \, SPECIAL
\, EXEMPLARY \, OR CONSEQUENTIAL DAMAGES (INCLUDING \, BUT NOT LIMITED
TO \, PROCUREMENT OF SUBSTITUTE GOODS OR SERVICES \; LOSS OF USE \,
DATA \, OR PROFITS \; OR BUSINESS INTERRUPTION) HOWEVER CAUSED AND
ON ANY THEORY OF LIABILITY \, WHETHER IN CONTRACT \, STRICT LIABILITY
\, OR TORT (INCLUDING NEGLIGENCE OR OTHERWISE) ARISING IN ANY WAY OUT
OF THE USE OF THIS SOFTWARE \, EVEN IF ADVISED OF THE POSSIBILITY OF
SUCH DAMAGE.;
#X text -20 277 From Puredata documentation \, file D10.sampler.notes.pd
Copyright: 1996-2013 Miller Puckette \, License: BSD-3-clause;
#X obj 557 675 throw~ sigL;
#X obj 660 675 throw~ sigR;
#X obj 724 464 sampvoice;
#N canvas 0 56 1440 844 sampvoice2 0;
#X obj 258 459 *~;
#X obj 84 379 makefilename sample%d;
#X msg 84 402 set \$1;
#X obj 84 425 tabread4~ sample1;
#X obj 340 402 dbtorms;
#X obj 361 378 unpack;
#X obj 340 425 sqrt;
#X obj 340 448 sqrt;
#X obj 337 551 *~;
#X obj 386 496 *~;
#X obj 386 519 *~;
#X msg 181 25 bang;
#X obj 181 55 delay 5;
#X obj 406 167 f;
#X obj 347 144 f;
#X obj 289 144 f;
#X obj 258 144 f;
#X obj 227 144 f;
#X obj 136 142 f;
#X obj 136 165 mtof;
#X obj 136 188 / 261.62;
#X obj 136 211 * 4.41e+08;
#X obj 136 234 +;
#X obj 379 144 delay;
#X obj 227 286 pack 0 0 0 0 0;
#X obj 181 78 t b b b;
#X obj 289 190 + 1;
#X obj 289 167 * 44.1;
#X msg 35 321 0 5;
#X msg 269 320 1 5;
#X msg 305 320 0 \, \$1 \$2;
#X msg 108 321 \$3 \, \$4 1e+07;
#X msg 233 320 \$5;
#X msg 385 320 0 \$1;
#X obj 248 44 inlet;
#X obj 519 664 inlet~;
#X obj 25 379 vline~;
#X obj 281 379 vline~;
#X obj 386 473 vline~;
#X obj 558 579 sqrt;
#X obj 545 542 expr 1 - $f1;
#X floatatom 502 515 5 0 0 0 - - -, f 5;
#X obj 460 584 sqrt;
#X obj 374 760 outlet~;
#X obj 485 759 outlet~;
#X obj 387 649 *~;
#X obj 456 646 *~;
#X text 617 166 So have 2 audio inputs to sampvoice to be added to
everything else \; And an extra parameter to the note list that indicates
pan information. That information uses the sub-patch below to add the
appropriate signal to each side \; So we'll need two outlets for this
patch too.;
#X obj 413 673 inlet~;
#X obj 400 703 +~;
#X obj 483 699 +~;
#X obj 269 78 unpack 0 0 0 0 0 0 0 0;
#X connect 0 0 8 0;
#X connect 1 0 2 0;
#X connect 2 0 3 0;
#X connect 3 0 0 0;
#X connect 4 0 6 0;
#X connect 5 0 4 0;
#X connect 5 1 38 1;
#X connect 6 0 7 0;
#X connect 7 0 38 0;
#X connect 8 0 46 0;
#X connect 8 0 45 0;
#X connect 9 0 10 0;
#X connect 9 0 10 1;
#X connect 10 0 8 1;
#X connect 11 0 12 0;
#X connect 11 0 28 0;
#X connect 12 0 25 0;
#X connect 13 0 33 0;
#X connect 14 0 24 1;
#X connect 15 0 27 0;
#X connect 16 0 24 4;
#X connect 17 0 24 0;
#X connect 18 0 19 0;
#X connect 19 0 20 0;
#X connect 20 0 21 0;
#X connect 21 0 22 0;
#X connect 22 0 24 3;
#X connect 23 0 13 0;
#X connect 24 0 29 0;
#X connect 24 0 30 0;
#X connect 24 0 31 0;
#X connect 24 0 32 0;
#X connect 25 0 17 0;
#X connect 25 1 18 0;
#X connect 25 2 14 0;
#X connect 25 2 15 0;
#X connect 25 2 16 0;
#X connect 25 2 23 0;
#X connect 26 0 24 2;
#X connect 26 0 22 1;
#X connect 27 0 26 0;
#X connect 28 0 37 0;
#X connect 29 0 37 0;
#X connect 30 0 5 0;
#X connect 31 0 36 0;
#X connect 32 0 1 0;
#X connect 33 0 5 0;
#X connect 34 0 51 0;
#X connect 35 0 50 1;
#X connect 36 0 3 0;
#X connect 37 0 0 1;
#X connect 38 0 9 0;
#X connect 38 0 9 1;
#X connect 39 0 46 1;
#X connect 40 0 39 0;
#X connect 41 0 42 0;
#X connect 41 0 40 0;
#X connect 42 0 45 1;
#X connect 45 0 49 0;
#X connect 46 0 50 0;
#X connect 48 0 49 1;
#X connect 49 0 43 0;
#X connect 50 0 44 0;
#X connect 51 0 18 1;
#X connect 51 0 11 0;
#X connect 51 1 17 1;
#X connect 51 2 23 1;
#X connect 51 3 16 1;
#X connect 51 4 15 1;
#X connect 51 5 14 1;
#X connect 51 6 13 1;
#X connect 51 7 41 0;
#X restore 429 713 pd sampvoice2;
#X obj 724 436 sampvoice;
#X obj 724 629 sampvoice;
#X obj 724 601 sampvoice;
#X obj 724 574 sampvoice;
#X obj 724 546 sampvoice;
#X obj 724 519 sampvoice;
#X obj 724 491 sampvoice;
#X obj 589 400 sampvoicepan;
#X obj 589 373 sampvoicepan;
#X obj 589 456 sampvoicepan;
#X obj 589 429 sampvoicepan;
#X obj 590 512 sampvoicepan;
#X obj 590 485 sampvoicepan;
#X obj 590 568 sampvoicepan;
#X obj 590 541 sampvoicepan;
#X obj 740 280 pack 0 0 0 0 0 0 0 0 0;
#X obj 754 52 unpack 0 0 0 0 0 0 0 0;
#X connect 10 0 9 0;
#X connect 11 0 9 0;
#X connect 12 0 9 0;
#X connect 21 0 9 0;
#X connect 22 0 9 0;
#X connect 23 0 67 0;
#X connect 24 0 25 0;
#X connect 24 1 66 1;
#X connect 25 0 26 0;
#X connect 25 0 28 0;
#X connect 26 0 27 0;
#X connect 27 0 25 1;
#X connect 28 0 29 0;
#X connect 28 1 29 1;
#X connect 29 0 30 0;
#X connect 29 2 30 1;
#X connect 30 0 66 0;
#X connect 31 0 59 0;
#X connect 31 1 58 0;
#X connect 31 2 61 0;
#X connect 31 3 60 0;
#X connect 31 4 63 0;
#X connect 31 5 62 0;
#X connect 31 6 65 0;
#X connect 31 7 64 0;
#X connect 40 0 35 0;
#X connect 49 0 57 0;
#X connect 51 0 49 0;
#X connect 53 0 52 0;
#X connect 54 0 53 0;
#X connect 55 0 54 0;
#X connect 56 0 55 0;
#X connect 57 0 56 0;
#X connect 58 0 61 1;
#X connect 58 1 61 2;
#X connect 59 0 58 1;
#X connect 59 1 58 2;
#X connect 60 0 63 1;
#X connect 60 1 63 2;
#X connect 61 0 60 1;
#X connect 61 1 60 2;
#X connect 62 0 65 1;
#X connect 62 1 65 2;
#X connect 63 0 62 1;
#X connect 63 1 62 2;
#X connect 64 0 47 0;
#X connect 64 1 48 0;
#X connect 65 0 64 1;
#X connect 65 1 64 2;
#X connect 66 0 31 0;
#X connect 67 0 24 0;
#X connect 67 1 66 2;
#X connect 67 2 28 2;
#X connect 67 2 66 3;
#X connect 67 3 66 4;
#X connect 67 4 66 5;
#X connect 67 5 66 6;
#X connect 67 6 66 7;
#X connect 67 7 66 8;
