#N canvas 1600 54 1440 846 12;
#X msg 89 385 \; scale_struct 0 2 2 1 2 2 2 1;
#X floatatom 1010 398 5 0 0 0 - - -, f 5;
#N canvas 172 262 1155 818 chordtone_calc 0;
#X obj 117 440 int;
#X obj 177 436 + 2;
#X floatatom 102 494 5 0 0 0 - - -, f 5;
#X obj 198 306 bng 15 250 50 0 empty empty empty 17 7 0 10 -262144
-1 -1;
#X obj 80 556 tabread scale;
#X obj 92 629 tabwrite chordtones;
#X floatatom 49 595 5 0 0 0 - - -, f 5;
#X obj 238 438 int;
#X obj 293 441 + 1;
#X msg 253 269 0;
#X obj 176 407 t b b;
#X floatatom 256 482 5 0 0 0 - - -, f 5;
#X obj 365 419 select 48;
#X obj 200 347 until;
#X obj 297 103 r chord;
#X msg 167 42 2;
#X msg 227 42 5;
#X obj 193 76 s chord;
#X obj 185 199 t float float;
#X msg 133 67 1;
#X obj 235 148 - 1;
#X obj 82 251 * 7;
#X obj 80 293 +;
#X msg 26 203 1;
#X msg 26 225 2;
#X obj 49 136 r arpeggiostartoctave;
#X text 7 6 Arpeggio player chordtone setter;
#X floatatom 86 163 5 0 0 0 - - -, f 5;
#X connect 0 0 1 0;
#X connect 0 0 2 0;
#X connect 1 0 0 1;
#X connect 2 0 4 0;
#X connect 3 0 13 0;
#X connect 4 0 5 0;
#X connect 4 0 6 0;
#X connect 7 0 8 0;
#X connect 7 0 5 1;
#X connect 7 0 11 0;
#X connect 8 0 7 1;
#X connect 8 0 12 0;
#X connect 9 0 7 1;
#X connect 9 0 3 0;
#X connect 10 0 0 0;
#X connect 10 1 7 0;
#X connect 12 0 13 1;
#X connect 13 0 10 0;
#X connect 15 0 17 0;
#X connect 16 0 17 0;
#X connect 18 0 9 0;
#X connect 18 1 0 1;
#X connect 19 0 17 0;
#X connect 20 0 18 0;
#X connect 21 0 22 0;
#X connect 23 0 21 0;
#X connect 24 0 21 0;
#X connect 25 0 21 0;
#X connect 25 0 27 0;
#X restore 270 540 pd chordtone_calc;
#N canvas 473 217 611 683 scalewriter 0;
#X floatatom 241 102 5 0 0 0 - - -, f 5;
#X text 277 101 MIDI note of key root;
#X msg 295 32 24;
#X text 331 32 C;
#X msg 388 141 0;
#X msg 233 38 50;
#X obj 293 326 + 1;
#X obj 191 222 bng 15 250 50 0 empty empty empty 17 7 0 10 -262144
-1 -1;
#X obj 238 323 int;
#X obj 234 548 +;
#X floatatom 235 580 5 0 0 0 - - -, f 5;
#X floatatom 355 539 5 0 0 0 - - -, f 5;
#X floatatom 164 543 5 0 0 0 - - -, f 5;
#X floatatom 196 424 5 0 0 0 - - -, f 5;
#X floatatom 312 427 5 0 0 0 - - -, f 5;
#X floatatom 166 380 5 0 0 0 - - -, f 5;
#X obj 198 464 % 7;
#X floatatom 180 487 5 0 0 0 - - -, f 5;
#X msg 234 209 0;
#X obj 402 429 + 1;
#X obj 165 509 tabread scale_struct;
#X obj 312 508 tabread scale;
#X obj 324 616 tabwrite scale;
#X obj 265 165 tabwrite scale;
#X obj 290 263 until;
#X obj 343 262 select 96;
#X obj 174 63 r key;
#X obj 418 106 loadbang;
#X obj 219 381 t float float;
#X msg 294 63 28;
#X text 329 64 E;
#X connect 0 0 23 0;
#X connect 0 0 18 0;
#X connect 0 0 7 0;
#X connect 2 0 0 0;
#X connect 4 0 23 1;
#X connect 5 0 0 0;
#X connect 6 0 8 1;
#X connect 6 0 25 0;
#X connect 7 0 24 0;
#X connect 8 0 6 0;
#X connect 8 0 15 0;
#X connect 8 0 19 0;
#X connect 8 0 28 0;
#X connect 9 0 10 0;
#X connect 10 0 22 0;
#X connect 13 0 16 0;
#X connect 14 0 21 0;
#X connect 16 0 17 0;
#X connect 17 0 20 0;
#X connect 18 0 8 1;
#X connect 19 0 22 1;
#X connect 20 0 9 0;
#X connect 20 0 12 0;
#X connect 21 0 9 1;
#X connect 21 0 11 0;
#X connect 24 0 8 0;
#X connect 25 0 24 1;
#X connect 26 0 0 0;
#X connect 27 0 4 0;
#X connect 28 0 13 0;
#X connect 28 1 14 0;
#X connect 29 0 0 0;
#X restore 87 459 pd scalewriter;
#N canvas 66 87 433 768 drum_sequences 0;
#N canvas 0 50 450 300 (subpatch) 0;
#X array dr_sequence_1 16 float 3;
#A 0 1 0 0 0 1 0 0 0 1 0 0 0 1 0 0 0;
#X coords 0 1 15 -1 200 140 1 0 0;
#X restore 56 -437 graph;
#N canvas 219 84 450 300 (subpatch) 0;
#X array dr_sequence_2 16 float 3;
#A 0 0 0 0 1 0 0 0 0 0 0 1 0 0 1 0 0;
#X coords 0 1 15 -1 200 140 1 0 0;
#X restore 61 -255 graph;
#N canvas 51 116 450 300 (subpatch) 0;
#X array dr_sequence_3 16 float 3;
#A 0 1 0 1 0 0 0 1 0 0 0 1 0 0 1 0 1;
#X coords 0 1 15 -1 200 140 1 0 0;
#X restore 61 -77 graph;
#N canvas 217 87 450 300 (subpatch) 0;
#X array dr_sequence_4 16 float 3;
#A 0 0 1 0 1 0 1 0 1 0 1 0 0 1 0 1 0;
#X coords 0 1 15 -1 200 140 1 0 0;
#X restore 59 114 graph;
#X restore 81 709 pd drum_sequences;
#X obj 936 558 spigot;
#X obj 984 535 tgl 15 0 empty leadplayer_on empty 17 7 0 10 -262144
-1 -1 0 1;
#X obj 1041 558 spigot;
#X obj 1075 531 tgl 15 0 empty arpeggioplayer_on empty 17 7 0 10 -262144
-1 -1 1 1;
#N canvas 67 87 865 719 sequence_arrays 1;
#N canvas 2352 122 450 278 (subpatch) 0;
#X array lead_sequence 16 float 3;
#A 0 0 0 0 0 0 0 0 0 0 0 0 0 0 0 0 0;
#X coords 0 0 16 47 200 140 1 0 0;
#X restore 15 35 graph;
#N canvas 624 148 450 278 (subpatch) 0;
#X array lead_sequence_2 16 float 3;
#A 0 0 0 0 0 0 0 0 0 0 0 0 0 0 0 0 0;
#X coords 0 0 16 47 200 140 1 0 0;
#X restore 13 204 graph;
#N canvas 624 148 450 278 (subpatch) 0;
#X array arpeggio_sequence_1 16 float 3;
#A 0 1 2 3 4 1 2 3 4 1 2 3 3 4 3 2 1;
#X coords 0 0 16 100 200 140 1 0 0;
#X restore 225 40 graph;
#N canvas 624 148 450 278 (subpatch) 0;
#X array arpeggio_sequence_2 16 float 3;
#A 0 0 0 0 0 0 0 0 0 0 0 0 0 0 0 0 0;
#X coords 0 0 16 100 200 140 1 0 0;
#X restore 226 208 graph;
#N canvas 624 148 450 278 (subpatch) 0;
#X array arpeggio_sequence_4 16 float 3;
#A 0 0 0 0 0 0 0 0 0 0 0 0 0 0 0 0 0;
#X coords 0 0 16 100 200 140 1 0 0;
#X restore 233 541 graph;
#N canvas 624 148 450 278 (subpatch) 0;
#X array arpeggio_sequence_3 16 float 3;
#A 0 0 0 0 0 0 0 0 0 0 0 0 0 0 0 0 0;
#X coords 0 0 16 100 200 140 1 0 0;
#X restore 229 377 graph;
#N canvas 624 148 450 278 (subpatch) 0;
#X array chordroot_sequence 16 float 3;
#A 0 1 0 0 0 3 0 0 0 5 0 0 0 1 0 0 0;
#X coords 0 0 16 100 200 140 1 0 0;
#X restore 649 41 graph;
#N canvas 1793 230 450 278 (subpatch) 0;
#X array arpseq2_8ve_seq 16 float 3;
#A 0 0 0 0 0 0 0 0 0 0 0 0 0 0 0 0 0;
#X coords 0 0 16 100 200 140 1 0 0;
#X restore 436 209 graph;
#N canvas 1793 230 450 278 (subpatch) 0;
#X array blockchord_8ve_sequence 16 float 3;
#A 0 3 0 0 0 3 0 0 0 3 0 0 0 3 0 0 0;
#X coords 0 0 16 100 200 140 1 0 0;
#X restore 650 209 graph;
#N canvas 1793 230 450 278 (subpatch) 0;
#X array arpseq3_8ve_seq 16 float 3;
#A 0 0 0 0 0 0 0 0 0 0 0 0 0 0 0 0 0;
#X coords 0 0 16 100 200 140 1 0 0;
#X restore 441 383 graph;
#N canvas 1793 230 450 278 (subpatch) 0;
#X array arpseq4_8ve_seq 16 float 3;
#A 0 0 0 0 0 0 0 0 0 0 0 0 0 0 0 0 0;
#X coords 0 0 16 100 200 140 1 0 0;
#X restore 447 549 graph;
#N canvas 1793 230 450 278 (subpatch) 0;
#X array arpseq1_8ve_seq 16 float 3;
#A 0 0 0 0 1 1 1 1 2 2 2 2 3 3 3 3 0;
#X coords 0 0 16 100 200 140 1 0 0;
#X restore 433 41 graph;
#X restore 79 684 pd sequence_arrays;
#N canvas 1440 54 1920 1026 gui 0;
#X obj 29 163 vradio 15 1 0 7 empty empty empty 0 -8 0 10 -262144 -1
-1 0;
#X obj 49 163 vradio 15 1 0 7 empty empty empty 0 -8 0 10 -262144 -1
-1 0;
#X obj 71 164 vradio 15 1 0 7 empty empty empty 0 -8 0 10 -262144 -1
-1 0;
#X obj 94 164 vradio 15 1 0 7 empty empty empty 0 -8 0 10 -262144 -1
-1 0;
#X obj 26 386 t f b;
#X obj 39 357 t f b;
#X msg 73 501 0;
#X msg 75 398 1;
#X obj 50 336 t f b;
#X obj 66 315 t f b;
#X msg 88 372 2;
#X msg 95 344 3;
#X obj 131 163 vradio 15 1 0 7 empty empty empty 0 -8 0 10 -262144
-1 -1 0;
#X obj 151 165 vradio 15 1 0 7 empty empty empty 0 -8 0 10 -262144
-1 -1 0;
#X obj 172 164 vradio 15 1 0 7 empty empty empty 0 -8 0 10 -262144
-1 -1 0;
#X obj 191 164 vradio 15 1 0 7 empty empty empty 0 -8 0 10 -262144
-1 -1 0;
#X obj 131 387 t f b;
#X obj 149 360 t f b;
#X obj 160 339 t f b;
#X obj 179 313 t f b;
#X obj 221 165 vradio 15 1 0 7 empty empty empty 0 -8 0 10 -262144
-1 -1 0;
#X obj 241 165 vradio 15 1 0 7 empty empty empty 0 -8 0 10 -262144
-1 -1 0;
#X obj 262 166 vradio 15 1 0 7 empty empty empty 0 -8 0 10 -262144
-1 -1 0;
#X obj 284 167 vradio 15 1 0 7 empty empty empty 0 -8 0 10 -262144
-1 -1 0;
#X obj 253 389 t f b;
#X obj 271 362 t f b;
#X obj 282 341 t f b;
#X obj 298 320 t f b;
#X obj 315 167 vradio 15 1 0 7 empty empty empty 0 -8 0 10 -262144
-1 -1 0;
#X obj 335 167 vradio 15 1 0 7 empty empty empty 0 -8 0 10 -262144
-1 -1 0;
#X obj 356 168 vradio 15 1 0 7 empty empty empty 0 -8 0 10 -262144
-1 -1 0;
#X obj 406 154 vradio 15 1 0 8 empty empty empty 0 -8 0 10 -262144
-1 -1 0;
#X obj 375 393 t f b;
#X obj 393 366 t f b;
#X obj 404 345 t f b;
#X obj 416 323 t f b;
#X msg 172 427 4;
#X msg 187 403 5;
#X msg 198 376 6;
#X msg 209 346 7;
#X msg 296 430 8;
#X msg 307 403 9;
#X msg 320 377 10;
#X msg 329 349 11;
#X msg 424 432 12;
#X msg 439 406 13;
#X msg 450 380 14;
#X msg 455 351 15;
#X obj 378 169 vradio 15 1 0 7 empty empty empty 0 -8 0 10 -262144
-1 -1 0;
#X obj 150 570 +;
#X text 398 118 8ve adjust;
#X obj 45 683 tabwrite lead_sequence;
#X obj 46 655 spigot;
#X obj 79 620 tgl 15 0 empty write_lead1 empty 17 7 0 10 -262144 -1
-1 0 1;
#X obj 242 572 t f;
#X obj 224 651 spigot;
#X obj 257 617 tgl 15 0 empty write_lead2 empty 17 7 0 10 -262144 -1
-1 0 1;
#X obj 224 683 tabwrite lead_sequence_2;
#X obj 34 108 tgl 15 0 write_lead2 empty empty 17 7 0 10 -262144 -1
-1 0 1;
#X obj 34 74 tgl 15 0 write_lead1 empty empty 17 7 0 10 -262144 -1
-1 0 1;
#X text 51 75 write lead seq 1;
#X text 54 108 write lead seq 2;
#X obj 483 160 vradio 15 1 0 7 empty empty empty 0 -8 0 10 -262144
-1 -1 0;
#X obj 503 160 vradio 15 1 0 7 empty empty empty 0 -8 0 10 -262144
-1 -1 1;
#X obj 525 161 vradio 15 1 0 7 empty empty empty 0 -8 0 10 -262144
-1 -1 2;
#X obj 548 161 vradio 15 1 0 7 empty empty empty 0 -8 0 10 -262144
-1 -1 3;
#X obj 524 391 t f b;
#X obj 542 364 t f b;
#X msg 575 430 0;
#X msg 578 405 1;
#X obj 553 343 t f b;
#X obj 569 322 t f b;
#X msg 591 379 2;
#X msg 600 351 3;
#X obj 576 160 vradio 15 1 0 7 empty empty empty 0 -8 0 10 -262144
-1 -1 0;
#X obj 596 161 vradio 15 1 0 7 empty empty empty 0 -8 0 10 -262144
-1 -1 1;
#X obj 617 161 vradio 15 1 0 7 empty empty empty 0 -8 0 10 -262144
-1 -1 2;
#X obj 637 160 vradio 15 1 0 7 empty empty empty 0 -8 0 10 -262144
-1 -1 3;
#X obj 634 394 t f b;
#X obj 652 367 t f b;
#X obj 663 346 t f b;
#X obj 682 320 t f b;
#X obj 667 161 vradio 15 1 0 7 empty empty empty 0 -8 0 10 -262144
-1 -1 0;
#X obj 687 161 vradio 15 1 0 7 empty empty empty 0 -8 0 10 -262144
-1 -1 1;
#X obj 708 162 vradio 15 1 0 7 empty empty empty 0 -8 0 10 -262144
-1 -1 2;
#X obj 730 162 vradio 15 1 0 7 empty empty empty 0 -8 0 10 -262144
-1 -1 2;
#X obj 756 396 t f b;
#X obj 774 369 t f b;
#X obj 785 348 t f b;
#X obj 801 327 t f b;
#X obj 761 162 vradio 15 1 0 7 empty empty empty 0 -8 0 10 -262144
-1 -1 3;
#X obj 781 161 vradio 15 1 0 7 empty empty empty 0 -8 0 10 -262144
-1 -1 2;
#X obj 802 161 vradio 15 1 0 7 empty empty empty 0 -8 0 10 -262144
-1 -1 1;
#X obj 872 144 vradio 15 1 0 8 empty empty empty 0 -8 0 10 -262144
-1 -1 3;
#X obj 878 400 t f b;
#X obj 896 373 t f b;
#X obj 907 352 t f b;
#X obj 919 330 t f b;
#X msg 675 434 4;
#X msg 690 410 5;
#X msg 701 383 6;
#X msg 712 353 7;
#X msg 799 437 8;
#X msg 810 410 9;
#X msg 823 384 10;
#X msg 832 356 11;
#X msg 927 439 12;
#X msg 942 413 13;
#X msg 953 387 14;
#X msg 958 358 15;
#X obj 824 161 vradio 15 1 0 7 empty empty empty 0 -8 0 10 -262144
-1 -1 0;
#X obj 571 525 +;
#X text 852 129 8ve adjust;
#X obj 484 654 spigot;
#X obj 517 619 tgl 15 0 empty write_chord1 empty 17 7 0 10 -262144
-1 -1 1 1;
#X obj 675 555 t f;
#X obj 681 648 spigot;
#X obj 701 617 tgl 15 0 empty write_chord2 empty 17 7 0 10 -262144
-1 -1 0 1;
#X obj 478 117 tgl 15 0 write_chord2 empty empty 17 7 0 10 -262144
-1 -1 0 1;
#X obj 476 85 tgl 15 0 write_chord1 empty empty 17 7 0 10 -262144 -1
-1 1 1;
#X text 495 84 write chord seq 1;
#X text 498 117 write chord seq 2;
#X obj 480 749 spigot;
#X obj 513 715 tgl 15 0 empty write_chord3 empty 17 7 0 10 -262144
-1 -1 0 1;
#X obj 677 750 spigot;
#X obj 710 716 tgl 15 0 empty write_chord4 empty 17 7 0 10 -262144
-1 -1 0 1;
#X obj 631 120 tgl 15 0 write_chord4 empty empty 17 7 0 10 -262144
-1 -1 0 1;
#X obj 629 88 tgl 15 0 write_chord3 empty empty 17 7 0 10 -262144 -1
-1 0 1;
#X text 650 87 write chord seq 3;
#X text 651 120 write chord seq 4;
#X msg 875 105 0;
#X msg 365 100 0;
#X obj 336 83 bng 15 250 50 0 empty empty empty 17 7 0 10 -262144 -1
-1;
#X text 365 83 reset;
#X obj 842 82 bng 15 250 50 0 empty empty empty 17 7 0 10 -262144 -1
-1;
#X text 871 82 reset;
#X text 929 131 Chord;
#X text 931 158 I;
#X text 929 172 ii;
#X text 923 190 iii;
#X text 924 205 IV;
#X text 933 220 V;
#X text 928 233 vi;
#X text 928 250 vii;
#X obj 474 684 tabwrite arpeggio_sequence_1;
#X obj 679 684 tabwrite arpeggio_sequence_2;
#X obj 474 781 tabwrite arpeggio_sequence_3;
#X obj 682 782 tabwrite arpeggio_sequence_4;
#X obj 955 147 vradio 15 1 0 8 empty empty empty 0 -8 0 10 -262144
-1 -1 1;
#X obj 974 148 vradio 15 1 0 8 empty empty empty 0 -8 0 10 -262144
-1 -1 0;
#X obj 996 149 vradio 15 1 0 8 empty empty empty 0 -8 0 10 -262144
-1 -1 0;
#X obj 1019 149 vradio 15 1 0 8 empty empty empty 0 -8 0 10 -262144
-1 -1 0;
#X obj 1056 148 vradio 15 1 0 8 empty empty empty 0 -8 0 10 -262144
-1 -1 3;
#X obj 1076 149 vradio 15 1 0 8 empty empty empty 0 -8 0 10 -262144
-1 -1 0;
#X obj 1097 149 vradio 15 1 0 8 empty empty empty 0 -8 0 10 -262144
-1 -1 0;
#X obj 1117 148 vradio 15 1 0 8 empty empty empty 0 -8 0 10 -262144
-1 -1 0;
#X obj 1147 149 vradio 15 1 0 8 empty empty empty 0 -8 0 10 -262144
-1 -1 5;
#X obj 1167 149 vradio 15 1 0 8 empty empty empty 0 -8 0 10 -262144
-1 -1 0;
#X obj 1188 150 vradio 15 1 0 8 empty empty empty 0 -8 0 10 -262144
-1 -1 0;
#X obj 1210 150 vradio 15 1 0 8 empty empty empty 0 -8 0 10 -262144
-1 -1 0;
#X obj 1241 150 vradio 15 1 0 8 empty empty empty 0 -8 0 10 -262144
-1 -1 1;
#X obj 1261 149 vradio 15 1 0 8 empty empty empty 0 -8 0 10 -262144
-1 -1 0;
#X obj 1282 149 vradio 15 1 0 8 empty empty empty 0 -8 0 10 -262144
-1 -1 0;
#X obj 1349 150 vradio 15 1 0 8 empty empty empty 0 -8 0 10 -262144
-1 -1 3;
#X obj 1304 149 vradio 15 1 0 8 empty empty empty 0 -8 0 10 -262144
-1 -1 0;
#X text 1329 135 8ve adjust;
#X msg 1352 111 0;
#X obj 1319 88 bng 15 250 50 0 empty empty empty 17 7 0 10 -262144
-1 -1;
#X text 1348 88 reset;
#X msg 1097 526 0;
#X msg 1213 529 4;
#X obj 1139 657 tabwrite chordroot_sequence;
#X obj 1361 656 tabwrite blockchord_8ve_sequence;
#X obj 1086 498 t f b;
#X obj 1204 499 t f b;
#X obj 1294 501 t f b;
#X obj 1390 497 t f b;
#X msg 1305 529 8;
#X msg 1399 527 12;
#X obj 1477 550 bng 15 250 50 0 empty empty empty 17 7 0 10 -262144
-1 -1;
#X obj 1509 568 +;
#X floatatom 1567 601 5 0 0 0 - - -, f 5;
#X obj 9 34 tgl 15 0 metro_on empty empty 17 7 0 10 -262144 -1 -1 0
1;
#X text 3 19 On/off;
#X obj 55 45 tgl 15 0 leadplayer_on empty empty 17 7 0 10 -262144 -1
-1 0 1;
#X text 72 44 Lead player;
#X obj 479 45 tgl 15 0 arpeggioplayer_on empty empty 17 7 0 10 -262144
-1 -1 1 1;
#X obj 951 49 tgl 15 0 blockchordplayer_on empty empty 17 7 0 10 -262144
-1 -1 0 1;
#X text 496 44 Arpeggio player;
#X text 971 49 Chord player;
#X obj 220 59 hradio 15 1 0 8 empty empty empty 0 -8 0 10 -262144 -1
-1 0;
#X obj 209 305 s lead_sample_number;
#X obj 205 279 + 1;
#X obj 542 289 + 1;
#X obj 1006 279 + 1;
#X obj 1110 49 hradio 15 1 0 8 empty empty empty 0 -8 0 10 -262144
-1 -1 0;
#X obj 646 46 hradio 15 1 0 8 empty empty empty 0 -8 0 10 -262144 -1
-1 4;
#X obj 567 276 s arpeggio_sample_number;
#X obj 1042 282 s blockchord_sample_number;
#X obj 465 503 mtof, f 5;
#X obj 418 22 hradio 16 1 0 12 empty empty empty 0 -8 0 10 -262144
-1 -1 0;
#X floatatom 425 68 5 0 0 0 - - -, f 5;
#X obj 495 435 + 24;
#X text 419 1 C;
#X text 431 2 Db;
#X text 483 2 E;
#X text 499 1 F;
#X text 514 2 F#;
#X text 534 1 G;
#X text 545 3 Ab;
#X text 564 4 A;
#X text 575 3 Bb;
#X text 597 3 B;
#X text 452 1 D;
#X text 466 2 Eb;
#X floatatom 426 44 5 0 0 0 - - -, f 5;
#X obj 459 536 s key;
#X floatatom 824 25 5 0 0 0 - - -, f 5;
#X floatatom 914 26 5 0 0 0 - - -, f 5;
#X obj 824 46 s tempo;
#X obj 915 69 s density;
#X text 816 9 Tempo;
#X text 911 8 Density;
#X obj 29 143 bng 15 250 50 0 empty empty empty 17 7 0 10 -257985 -1
-1;
#X obj 23 480 t f b;
#X msg 15 453 0;
#X obj 128 613 + 1;
#X obj 430 278 * 7, f 4;
#X text 1396 378 Block chord array data is in the form of 0 for no
chord change? What does it mean to have no chord at a particular place?
No block chord to be played on that beat. That's actually quite important.
;
#X obj 571 579 + 1;
#X obj 929 688 tabwrite arpseq1_8ve_seq;
#X obj 916 616 +;
#X obj 824 588 bng 15 250 50 0 empty empty empty 17 7 0 10 -262144
-1 -1;
#X obj 1054 626 t f;
#X obj 906 657 spigot;
#X obj 914 727 spigot;
#X obj 914 801 spigot;
#X obj 934 879 spigot;
#X obj 948 761 tabwrite arpseq2_8ve_seq;
#X obj 960 831 tabwrite arpseq3_8ve_seq;
#X obj 959 916 tabwrite arpseq4_8ve_seq;
#X connect 0 0 4 0;
#X connect 1 0 5 0;
#X connect 2 0 8 0;
#X connect 3 0 9 0;
#X connect 4 0 49 0;
#X connect 4 1 6 0;
#X connect 5 0 49 0;
#X connect 5 1 7 0;
#X connect 6 0 54 0;
#X connect 7 0 54 0;
#X connect 8 0 49 0;
#X connect 8 1 10 0;
#X connect 9 0 49 0;
#X connect 9 1 11 0;
#X connect 10 0 54 0;
#X connect 11 0 54 0;
#X connect 12 0 16 0;
#X connect 13 0 17 0;
#X connect 14 0 18 0;
#X connect 15 0 19 0;
#X connect 16 0 49 0;
#X connect 16 1 36 0;
#X connect 17 0 49 0;
#X connect 17 1 37 0;
#X connect 18 0 49 0;
#X connect 18 1 38 0;
#X connect 19 0 49 0;
#X connect 19 1 39 0;
#X connect 20 0 24 0;
#X connect 21 0 25 0;
#X connect 22 0 26 0;
#X connect 23 0 27 0;
#X connect 24 0 49 0;
#X connect 24 1 40 0;
#X connect 25 0 49 0;
#X connect 25 1 41 0;
#X connect 26 0 49 0;
#X connect 26 1 42 0;
#X connect 27 0 49 0;
#X connect 27 1 43 0;
#X connect 28 0 32 0;
#X connect 29 0 33 0;
#X connect 30 0 34 0;
#X connect 31 0 227 0;
#X connect 32 0 49 0;
#X connect 32 1 44 0;
#X connect 33 0 49 0;
#X connect 33 1 45 0;
#X connect 34 0 49 0;
#X connect 34 1 46 0;
#X connect 35 0 49 0;
#X connect 35 1 47 0;
#X connect 36 0 54 0;
#X connect 37 0 54 0;
#X connect 38 0 54 0;
#X connect 39 0 54 0;
#X connect 40 0 54 0;
#X connect 41 0 54 0;
#X connect 42 0 54 0;
#X connect 43 0 54 0;
#X connect 44 0 54 0;
#X connect 45 0 54 0;
#X connect 46 0 54 0;
#X connect 47 0 54 0;
#X connect 48 0 35 0;
#X connect 49 0 226 0;
#X connect 52 0 51 0;
#X connect 53 0 52 1;
#X connect 54 0 51 1;
#X connect 54 0 57 1;
#X connect 55 0 57 0;
#X connect 56 0 55 1;
#X connect 62 0 66 0;
#X connect 63 0 67 0;
#X connect 64 0 70 0;
#X connect 65 0 71 0;
#X connect 66 0 111 0;
#X connect 66 1 68 0;
#X connect 67 0 111 0;
#X connect 67 1 69 0;
#X connect 68 0 115 0;
#X connect 68 0 232 0;
#X connect 68 0 233 0;
#X connect 69 0 115 0;
#X connect 69 0 232 0;
#X connect 69 0 233 0;
#X connect 70 0 111 0;
#X connect 70 1 72 0;
#X connect 71 0 111 0;
#X connect 71 1 73 0;
#X connect 72 0 115 0;
#X connect 72 0 232 0;
#X connect 72 0 233 0;
#X connect 73 0 115 0;
#X connect 73 0 232 0;
#X connect 73 0 233 0;
#X connect 74 0 78 0;
#X connect 75 0 79 0;
#X connect 76 0 80 0;
#X connect 77 0 81 0;
#X connect 78 0 111 0;
#X connect 78 1 98 0;
#X connect 79 0 111 0;
#X connect 79 1 99 0;
#X connect 80 0 111 0;
#X connect 80 1 100 0;
#X connect 81 0 111 0;
#X connect 81 1 101 0;
#X connect 82 0 86 0;
#X connect 83 0 87 0;
#X connect 84 0 88 0;
#X connect 85 0 89 0;
#X connect 86 0 111 0;
#X connect 86 1 102 0;
#X connect 87 0 111 0;
#X connect 87 1 103 0;
#X connect 88 0 111 0;
#X connect 88 1 104 0;
#X connect 89 0 111 0;
#X connect 89 1 105 0;
#X connect 90 0 94 0;
#X connect 91 0 95 0;
#X connect 92 0 96 0;
#X connect 93 0 231 1;
#X connect 94 0 111 0;
#X connect 94 1 106 0;
#X connect 95 0 111 0;
#X connect 95 1 107 0;
#X connect 96 0 111 0;
#X connect 96 1 108 0;
#X connect 97 0 111 0;
#X connect 97 1 109 0;
#X connect 98 0 115 0;
#X connect 98 0 232 0;
#X connect 98 0 233 0;
#X connect 99 0 115 0;
#X connect 99 0 232 0;
#X connect 99 0 233 0;
#X connect 100 0 115 0;
#X connect 100 0 232 0;
#X connect 100 0 233 0;
#X connect 101 0 115 0;
#X connect 101 0 232 0;
#X connect 101 0 233 0;
#X connect 102 0 115 0;
#X connect 102 0 232 0;
#X connect 102 0 233 0;
#X connect 103 0 115 0;
#X connect 103 0 232 0;
#X connect 103 0 233 0;
#X connect 104 0 115 0;
#X connect 104 0 232 0;
#X connect 104 0 233 0;
#X connect 105 0 115 0;
#X connect 105 0 232 0;
#X connect 105 0 233 0;
#X connect 106 0 115 0;
#X connect 106 0 232 0;
#X connect 106 0 233 0;
#X connect 107 0 115 0;
#X connect 107 0 232 0;
#X connect 107 0 233 0;
#X connect 108 0 115 0;
#X connect 108 0 232 0;
#X connect 108 0 233 0;
#X connect 109 0 115 0;
#X connect 109 0 232 0;
#X connect 109 0 233 0;
#X connect 110 0 97 0;
#X connect 111 0 229 0;
#X connect 113 0 144 0;
#X connect 114 0 113 1;
#X connect 114 0 234 1;
#X connect 115 0 144 1;
#X connect 115 0 145 1;
#X connect 115 0 146 1;
#X connect 115 0 147 1;
#X connect 116 0 145 0;
#X connect 117 0 116 1;
#X connect 117 0 235 1;
#X connect 122 0 146 0;
#X connect 123 0 122 1;
#X connect 123 0 236 1;
#X connect 124 0 147 0;
#X connect 125 0 124 1;
#X connect 125 0 237 1;
#X connect 130 0 62 0;
#X connect 130 0 63 0;
#X connect 130 0 64 0;
#X connect 130 0 65 0;
#X connect 130 0 74 0;
#X connect 130 0 75 0;
#X connect 130 0 76 0;
#X connect 130 0 77 0;
#X connect 130 0 82 0;
#X connect 130 0 83 0;
#X connect 130 0 84 0;
#X connect 130 0 85 0;
#X connect 130 0 90 0;
#X connect 130 0 91 0;
#X connect 130 0 92 0;
#X connect 130 0 110 0;
#X connect 131 0 48 0;
#X connect 131 0 30 0;
#X connect 131 0 29 0;
#X connect 131 0 28 0;
#X connect 131 0 23 0;
#X connect 131 0 22 0;
#X connect 131 0 21 0;
#X connect 131 0 20 0;
#X connect 131 0 15 0;
#X connect 131 0 14 0;
#X connect 131 0 13 0;
#X connect 131 0 12 0;
#X connect 131 0 3 0;
#X connect 131 0 2 0;
#X connect 131 0 1 0;
#X connect 131 0 0 0;
#X connect 132 0 131 0;
#X connect 134 0 130 0;
#X connect 148 0 173 0;
#X connect 152 0 174 0;
#X connect 156 0 175 0;
#X connect 160 0 176 0;
#X connect 163 0 180 1;
#X connect 166 0 148 0;
#X connect 166 0 149 0;
#X connect 166 0 150 0;
#X connect 166 0 151 0;
#X connect 166 0 152 0;
#X connect 166 0 153 0;
#X connect 166 0 154 0;
#X connect 166 0 155 0;
#X connect 166 0 156 0;
#X connect 166 0 157 0;
#X connect 166 0 158 0;
#X connect 166 0 159 0;
#X connect 166 0 160 0;
#X connect 166 0 161 0;
#X connect 166 0 162 0;
#X connect 166 0 164 0;
#X connect 167 0 166 0;
#X connect 169 0 171 1;
#X connect 169 0 172 1;
#X connect 169 0 179 0;
#X connect 170 0 171 1;
#X connect 170 0 172 1;
#X connect 170 0 179 0;
#X connect 173 0 171 0;
#X connect 173 1 169 0;
#X connect 174 0 171 0;
#X connect 174 1 170 0;
#X connect 175 0 171 0;
#X connect 175 1 177 0;
#X connect 176 0 171 0;
#X connect 176 1 178 0;
#X connect 177 0 171 1;
#X connect 177 0 172 1;
#X connect 177 0 179 0;
#X connect 178 0 171 1;
#X connect 178 0 172 1;
#X connect 178 0 179 0;
#X connect 179 0 180 0;
#X connect 180 0 172 0;
#X connect 180 0 181 0;
#X connect 190 0 192 0;
#X connect 192 0 191 0;
#X connect 193 0 197 0;
#X connect 194 0 198 0;
#X connect 195 0 194 0;
#X connect 196 0 193 0;
#X connect 199 0 201 0;
#X connect 200 0 202 0;
#X connect 202 0 199 0;
#X connect 202 0 215 0;
#X connect 215 0 216 0;
#X connect 217 0 219 0;
#X connect 218 0 220 0;
#X connect 223 0 225 0;
#X connect 224 0 52 0;
#X connect 224 1 6 0;
#X connect 225 0 224 0;
#X connect 226 0 52 0;
#X connect 226 0 55 0;
#X connect 227 0 49 1;
#X connect 229 0 113 0;
#X connect 229 0 122 0;
#X connect 229 0 116 0;
#X connect 229 0 124 0;
#X connect 231 0 234 0;
#X connect 231 0 235 0;
#X connect 231 0 236 0;
#X connect 231 0 237 0;
#X connect 232 0 231 0;
#X connect 233 0 230 1;
#X connect 233 0 238 1;
#X connect 233 0 239 1;
#X connect 233 0 240 1;
#X connect 234 0 230 0;
#X connect 235 0 238 0;
#X connect 236 0 239 0;
#X connect 237 0 240 0;
#X coords 0 -1 1 1 1400 280 1 0 0;
#X restore -3 55 pd gui;
#N canvas 50 127 580 575 leadplayer 0;
#X obj 184 21 inlet;
#X obj 34 101 tabread lead_sequence;
#X floatatom 37 249 5 0 0 0 - - -, f 5;
#X floatatom 37 322 5 0 0 0 - - -, f 5;
#X obj 42 176 - 1;
#X obj 42 216 moses 0;
#X obj 37 354 + 12;
#X obj 41 464 s note 60 90 150 2 0;
#X floatatom 193 296 5 0 0 0 - - -, f 5;
#X text 229 275 amplitude;
#X text 231 318 sample number;
#X text 231 295 duration (msec);
#X text 232 341 start location (msec);
#X text 231 362 rise time (msec);
#X text 233 382 decay time (msec);
#X floatatom 193 275 5 0 0 0 - - -, f 5;
#X floatatom 195 318 5 0 0 0 - - -, f 5;
#X floatatom 196 341 5 0 0 0 - - -, f 5;
#X floatatom 197 362 5 0 0 0 - - -, f 5;
#X floatatom 197 384 5 0 0 0 - - -, f 5;
#X obj 40 428 pack 60 90 150 1 0 10 10;
#X text 172 464 sends note to lead_player;
#X obj 70 281 tabread scale;
#X obj 231 102 tabread lead_sequence_2;
#X obj 360 304 r lead_sample_number;
#X connect 0 0 1 0;
#X connect 0 0 23 0;
#X connect 1 0 4 0;
#X connect 2 0 22 0;
#X connect 3 0 6 0;
#X connect 4 0 5 0;
#X connect 5 1 2 0;
#X connect 6 0 20 0;
#X connect 8 0 20 2;
#X connect 15 0 20 1;
#X connect 16 0 20 3;
#X connect 17 0 20 4;
#X connect 18 0 20 5;
#X connect 19 0 20 6;
#X connect 20 0 7 0;
#X connect 22 0 3 0;
#X connect 23 0 4 0;
#X connect 24 0 16 0;
#X restore 905 602 pd leadplayer;
#X obj 1021 642 main_sample_synth;
#X msg -5 -36 \; density 4 \; tempo 112 \; init_samples bang \; metro_on
1;
#X text 135 -8 Get it all going!;
#N canvas 936 87 661 728 scale_chord_arrays 1;
#N canvas 0 87 450 300 (subpatch) 0;
#X array scale 96 float 3;
#A 0 24 26 28 29 31 33 35 36 38 40 41 43 45 47 48 50 52 53 55 57 59
60 62 64 65 67 69 71 72 74 76 77 79 81 83 84 86 88 89 91 93 95 96 98
100 101 103 105 107 108 110 112 113 115 117 119 120 122 124 125 127
129 131 132 134 136 137 139 141 143 144 146 148 149 151 153 155 156
158 160 161 163 165 167 168 170 172 173 175 177 179 180 182 184 185
189;
#X coords 0 0 96 200 200 140 1 0 0;
#X restore -19 141 graph;
#N canvas 0 50 450 278 (subpatch) 0;
#X array scale_struct 7 float 3;
#A 0 2 2 1 2 2 2 1;
#X coords 0 0 7 12 200 140 1 0 0;
#X restore -21 -30 graph;
#N canvas 0 50 450 278 (subpatch) 0;
#X array blockchordtones 48 float 3;
#A 0 189 189 189 189 189 189 189 189 189 189 189 189 189 189 189 189
189 189 189 189 189 189 189 189 189 189 189 189 189 189 189 189 189
189 189 189 189 189 189 189 189 189 189 189 189 189 189 189;
#X coords 0 0 47 200 200 140 1 0 0;
#X restore 415 -27 graph;
#N canvas 0 50 450 278 (subpatch) 0;
#X array arp2chordtones 48 float 3;
#A 0 189 189 189 189 189 189 189 189 189 189 189 189 189 189 189 189
189 189 189 189 189 189 189 189 189 189 189 189 189 189 189 189 189
189 189 189 189 189 189 189 189 189 189 189 189 189 189 189;
#X coords 0 0 47 200 200 140 1 0 0;
#X restore 198 143 graph;
#N canvas 0 50 450 278 (subpatch) 0;
#X array chordtones 48 float 3;
#A 0 31 35 38 41 45 48 52 55 59 62 65 69 72 76 79 83 86 89 93 96 100
103 107 110 113 117 120 124 127 131 134 137 141 144 148 151 155 158
161 165 168 172 175 179 182 185 189 189;
#X coords 0 0 47 200 200 140 1 0 0;
#X restore -20 319 graph;
#N canvas 0 50 450 278 (subpatch) 0;
#X array arp3chordtones 48 float 3;
#A 0 91 95 98 101 105 108 112 115 119 122 125 129 132 136 139 143 146
149 153 156 160 163 167 170 173 177 180 184 189 189 189 189 189 189
189 189 189 189 189 189 189 189 189 189 189 189 189 189;
#X coords 0 0 47 200 200 140 1 0 0;
#X restore 193 325 graph;
#N canvas 0 50 450 278 (subpatch) 0;
#X array arp4chordtones 48 float 3;
#A 0 24 28 31 35 38 41 45 48 52 55 59 62 65 69 72 76 79 83 86 89 93
96 100 103 107 110 113 117 120 124 127 131 134 137 141 144 148 151
155 158 161 165 168 172 175 179 182 185;
#X coords 0 0 47 200 200 140 1 0 0;
#X restore 192 504 graph;
#N canvas 0 50 450 278 (subpatch) 0;
#X array arp1chordtones 48 float 3;
#A 0 28 31 35 38 41 45 48 52 55 59 62 65 69 72 76 79 83 86 89 93 96
100 103 107 110 113 117 120 124 127 131 134 137 141 144 148 151 155
158 161 165 168 172 175 179 182 185 24;
#X coords 0 0 47 200 200 140 1 0 0;
#X restore 197 -29 graph;
#X restore 84 619 pd scale_chord_arrays;
#X obj 1025 758 dac~;
#X obj 1000 682 catch~ sigL;
#X obj 1124 683 catch~ sigR;
#X obj 1065 759 output~;
#X text 49 355 Semitone intervals of scale;
#X text 48 432 Which is used to write a scale from a particular tonic:
;
#N canvas 1600 102 1440 818 arpeggioplayer 0;
#X obj 55 8 inlet;
#X floatatom 55 621 5 0 0 0 - - -, f 5;
#X obj 56 766 s note 60 90 150 2 0;
#X floatatom 226 603 5 0 0 0 - - -, f 5;
#X text 262 582 amplitude;
#X text 264 625 sample number;
#X text 264 602 duration (msec);
#X text 265 648 start location (msec);
#X text 264 669 rise time (msec);
#X text 266 689 decay time (msec);
#X floatatom 226 582 5 0 0 0 - - -, f 5;
#X floatatom 228 624 5 0 0 0 - - -, f 5;
#X floatatom 229 648 5 0 0 0 - - -, f 5;
#X floatatom 230 669 5 0 0 0 - - -, f 5;
#X floatatom 230 691 5 0 0 0 - - -, f 5;
#X obj 56 726 pack 60 90 150 1 0 10 10;
#X text 231 774 sends note to lead_player;
#X obj 39 304 tabread arpeggio_sequence_1;
#X obj 460 601 r arpeggio_sample_number;
#X text 1473 6 A "0" indicates not to play at all on that beat \; "1-7"
represents chord tones moving in thirds \, so 1 is the tonic \, 2 the
3rd \, 3 the 5th \, 4 the 7th \, 5 the 9th \, 6 the 11th and 7 the
13th.;
#X obj 34 371 moses 1;
#X obj 128 246 tabread arpseq1_8ve_seq;
#X obj 55 403 - 1;
#X text 86 403 Arpseq has 1 as root \, 2 as 3rd and so on \, so need
to adjust for chordtone rep \, where root is at index 0 \, 3rd at 1
\, and so on;
#X obj 128 277 s arpeggiostartoctave;
#X obj 1174 39 tabread chordroot_sequence;
#X obj 1254 143 s chord;
#X obj 1220 103 t b f;
#X obj 1200 142 bng 15 250 50 0 empty empty empty 17 7 0 10 -262144
-1 -1;
#X obj 1280 73 moses 1;
#X text 1161 8 Set the chord;
#X text 259 122 Set the array;
#X text 128 225 Set correct octave;
#X obj 252 202 s arparraytowrite;
#X msg 252 141 arp1chordtones;
#X obj 252 172 pack s;
#X obj 352 26 t f f f f f;
#X obj 55 527 tabread arp1chordtones;
#X obj 497 376 moses 1;
#X obj 543 408 - 1;
#X obj 595 271 s arpeggiostartoctave;
#X text 617 156 Set the array;
#X text 458 250 Set correct octave;
#X obj 724 201 s arparraytowrite;
#X obj 724 171 pack s;
#X obj 488 310 tabread arpeggio_sequence_2;
#X obj 595 240 tabread arpseq2_8ve_seq;
#X msg 725 140 arp2chordtones;
#X obj 528 519 tabread arp2chordtones;
#X obj 898 431 moses 1;
#X obj 895 489 - 1;
#X obj 999 354 s arpeggiostartoctave;
#X text 1000 219 Set the array;
#X text 862 333 Set correct octave;
#X obj 1128 284 s arparraytowrite;
#X obj 1107 234 pack s;
#X obj 1019 180 t f f f b;
#X msg 1108 203 arp3chordtones;
#X obj 998 323 tabread arpseq3_8ve_seq;
#X obj 892 393 tabread arpeggio_sequence_3;
#X obj 855 606 tabread arp3chordtones;
#X obj 1295 470 moses 1;
#X obj 1292 528 - 1;
#X obj 1396 393 s arpeggiostartoctave;
#X text 1397 258 Set the array;
#X text 1259 372 Set correct octave;
#X obj 1525 323 s arparraytowrite;
#X obj 1504 273 pack s;
#X obj 1416 219 t f f f b;
#X msg 1505 242 arp4chordtones;
#X obj 1395 362 tabread arpseq4_8ve_seq;
#X obj 1289 432 tabread arpeggio_sequence_4;
#X obj 1252 645 tabread arp4chordtones;
#X floatatom 1156 83 5 0 0 0 - - -, f 5;
#X obj 196 77 t f f b;
#X obj 661 93 t f f b;
#X obj 98 338 t f b;
#X obj 204 373 s writearpchordtonearray;
#X obj 561 349 t f b;
#X obj 667 384 s writearpchordtonearray;
#X obj 209 347 bng 15 250 50 0 empty empty empty 17 7 0 10 -262144
-1 -1;
#X floatatom 80 277 5 0 0 0 - - -, f 5;
#X connect 0 0 36 0;
#X connect 1 0 15 0;
#X connect 3 0 15 2;
#X connect 10 0 15 1;
#X connect 11 0 15 3;
#X connect 12 0 15 4;
#X connect 13 0 15 5;
#X connect 14 0 15 6;
#X connect 15 0 2 0;
#X connect 17 0 76 0;
#X connect 18 0 11 0;
#X connect 20 1 22 0;
#X connect 21 0 24 0;
#X connect 21 0 81 0;
#X connect 22 0 37 0;
#X connect 25 0 29 0;
#X connect 25 0 73 0;
#X connect 27 0 28 0;
#X connect 27 1 26 0;
#X connect 29 1 27 0;
#X connect 34 0 35 0;
#X connect 35 0 33 0;
#X connect 36 3 74 0;
#X connect 36 4 25 0;
#X connect 37 0 1 0;
#X connect 38 1 39 0;
#X connect 39 0 48 0;
#X connect 44 0 43 0;
#X connect 46 0 40 0;
#X connect 47 0 44 0;
#X connect 48 0 15 0;
#X connect 49 1 50 0;
#X connect 50 0 60 0;
#X connect 55 0 54 0;
#X connect 56 1 59 0;
#X connect 56 2 58 0;
#X connect 56 3 57 0;
#X connect 57 0 55 0;
#X connect 58 0 51 0;
#X connect 59 0 49 0;
#X connect 60 0 15 0;
#X connect 61 1 62 0;
#X connect 62 0 72 0;
#X connect 67 0 66 0;
#X connect 68 1 71 0;
#X connect 68 2 70 0;
#X connect 68 3 69 0;
#X connect 69 0 67 0;
#X connect 70 0 63 0;
#X connect 71 0 61 0;
#X connect 72 0 15 0;
#X connect 74 0 17 0;
#X connect 74 1 21 0;
#X connect 74 2 34 0;
#X connect 75 0 45 0;
#X connect 75 1 46 0;
#X connect 75 2 47 0;
#X connect 76 0 20 0;
#X connect 76 1 80 0;
#X connect 78 0 38 0;
#X connect 78 1 79 0;
#X connect 80 0 77 0;
#X restore 1015 603 pd arpeggioplayer;
#N canvas 2291 82 960 998 blockchordplayer 0;
#X obj 92 25 inlet;
#X floatatom 185 466 5 0 0 0 - - -, f 5;
#X obj 338 464 moses 0;
#X obj 77 685 s note 60 90 150 2 0;
#X floatatom 229 517 5 0 0 0 - - -, f 5;
#X text 265 496 amplitude;
#X text 267 539 sample number;
#X text 267 516 duration (msec);
#X text 268 562 start location (msec);
#X text 267 583 rise time (msec);
#X text 269 603 decay time (msec);
#X floatatom 229 496 5 0 0 0 - - -, f 5;
#X floatatom 231 538 5 0 0 0 - - -, f 5;
#X floatatom 232 562 5 0 0 0 - - -, f 5;
#X floatatom 233 583 5 0 0 0 - - -, f 5;
#X floatatom 233 605 5 0 0 0 - - -, f 5;
#X obj 76 649 pack 60 90 150 1 0 10 10;
#X text 239 685 sends note to lead_player;
#X obj 64 241 tabread chordroot_sequence;
#X obj 99 352 s chord;
#X obj 66 304 t b f;
#X text 394 122 read which octave chord should be in;
#X obj 400 159 tabread blockchord_8ve_sequence;
#X text 324 332 play the root;
#X text 564 304 play the 3rd;
#X text 698 303 play the 5th;
#X obj 428 330 +;
#X obj 567 331 + 1;
#X obj 705 332 + 2;
#X obj 469 523 r blockchord_sample_number;
#X floatatom 709 458 5 0 0 0 - - -, f 5;
#X floatatom 451 463 5 0 0 0 - - -, f 5;
#X floatatom 574 462 5 0 0 0 - - -, f 5;
#X obj 49 357 bng 15 250 50 0 empty empty empty 17 7 0 10 -262144 -1
-1;
#X floatatom 74 174 5 0 0 0 - - -, f 5;
#X floatatom 27 279 5 0 0 0 - - -, f 5;
#X floatatom 350 253 5 0 0 0 - - -, f 5;
#X obj 494 244 bng 15 250 50 0 empty empty empty 17 7 0 10 -262144
-1 -1;
#X obj 443 200 moses 1;
#X floatatom 855 458 5 0 0 0 - - -, f 5;
#X text 874 306 play the 7th;
#X obj 881 330 + 3;
#X obj 126 274 moses 1;
#X obj 540 62 tabread blockchord_8ve_sequence;
#X obj 257 62 t f f f;
#X msg 541 253 0;
#X obj 586 98 s blockchordstartoctave;
#X obj 422 376 tabread blockchordtones;
#X obj 627 377 tabread blockchordtones;
#X obj 815 373 tabread blockchordtones;
#X obj 1002 376 tabread blockchordtones;
#X connect 0 0 44 0;
#X connect 1 0 16 0;
#X connect 4 0 16 2;
#X connect 11 0 16 1;
#X connect 12 0 16 3;
#X connect 13 0 16 4;
#X connect 14 0 16 5;
#X connect 15 0 16 6;
#X connect 16 0 3 0;
#X connect 18 0 35 0;
#X connect 18 0 42 0;
#X connect 20 0 33 0;
#X connect 20 1 19 0;
#X connect 22 0 38 0;
#X connect 22 0 36 0;
#X connect 26 0 47 0;
#X connect 27 0 48 0;
#X connect 28 0 49 0;
#X connect 29 0 12 0;
#X connect 38 1 37 0;
#X connect 38 1 45 0;
#X connect 41 0 50 0;
#X connect 42 1 20 0;
#X connect 43 0 46 0;
#X connect 44 0 22 0;
#X connect 44 1 18 0;
#X connect 44 1 34 0;
#X connect 44 2 43 0;
#X connect 45 0 26 0;
#X connect 45 0 27 0;
#X connect 45 0 28 0;
#X connect 45 0 41 0;
#X connect 47 0 31 0;
#X connect 47 0 1 0;
#X connect 48 0 32 0;
#X connect 48 0 1 0;
#X connect 49 0 30 0;
#X connect 49 0 1 0;
#X connect 50 0 39 0;
#X connect 50 0 1 0;
#X restore 1246 479 pd blockchordplayer;
#X obj 1247 439 spigot;
#X obj 1283 410 tgl 15 0 empty blockchordplayer_on empty 17 7 0 10
-262144 -1 -1 0 1;
#X text 57 497 Which results in the appropriate arrays being written
for scales and chord tones;
#X text 46 575 And that is used to fill an array with chord tones for
particular chords in that key:;
#X text 43 654 These are the arrays that hold sequence information:
;
#N canvas 648 116 793 595 main_pulse 0;
#X obj 295 228 metro;
#X floatatom 261 110 5 0 0 0 - - -, f 5;
#X floatatom 290 184 5 0 0 0 - - -, f 5;
#X obj 292 263 bng 15 250 50 0 empty empty empty 17 7 0 10 -262144
-1 -1;
#X obj 258 203 tgl 15 0 empty metro_on empty 17 7 0 10 -262144 -1 -1
0 1;
#X obj 288 148 expr 60000/$f1/$f2;
#X obj 320 82 int;
#X floatatom 370 115 5 0 0 0 - - -, f 5;
#X obj 322 122 bng 15 250 50 0 empty empty empty 17 7 0 10 -262144
-1 -1;
#X obj 336 35 r density;
#X obj 245 36 r tempo;
#X obj 399 255 + 1;
#X obj 374 296 % 16;
#X obj 359 254 int;
#X obj 374 331 s beatnum;
#X msg 416 113 4;
#X floatatom 280 82 5 0 0 0 - - -, f 5;
#X obj 319 390 outlet;
#X text 109 37 Overall tempo control;
#X text 396 35 subdivision per beat;
#X text 15 202 Receives metro_on as main on/off switch;
#X connect 0 0 3 0;
#X connect 0 0 13 0;
#X connect 1 0 5 0;
#X connect 2 0 0 1;
#X connect 4 0 0 0;
#X connect 5 0 2 0;
#X connect 6 0 7 0;
#X connect 6 0 8 0;
#X connect 7 0 5 1;
#X connect 8 0 5 0;
#X connect 9 0 6 0;
#X connect 9 0 16 0;
#X connect 10 0 1 0;
#X connect 11 0 13 1;
#X connect 12 0 14 0;
#X connect 12 0 17 0;
#X connect 13 0 12 0;
#X connect 13 0 11 0;
#X connect 15 0 5 1;
#X restore 938 366 pd main_pulse;
#N canvas 1642 87 1007 970 reset_arrays 0;
#X obj 44 -29 inlet;
#X msg 52 371 \; blockchord_8ve_sequence 0 0 0 0 0 0 0 0 0 0 0 0 0
0 0 0 0;
#X msg 22 309 \; chordroot_sequence 0 0 0 0 0 0 0 0 0 0 0 0 0 0 0 0
0;
#X msg 20 14 \; lead_sequence 0 0 0 0 0 0 0 0 0 0 0 0 0 0 0 0 0;
#X msg 34 59 \; lead_sequence_2 0 0 0 0 0 0 0 0 0 0 0 0 0 0 0 0 0;
#X msg 64 154 \; arpeggio_sequence_2 0 0 0 0 0 0 0 0 0 0 0 0 0 0 0
0 0;
#X msg 53 107 \; arpeggio_sequence_1 0 0 0 0 0 0 0 0 0 0 0 0 0 0 0
0 0;
#X msg 21 210 \; arpeggio_sequence_3 0 0 0 0 0 0 0 0 0 0 0 0 0 0 0
0 0;
#X msg 34 253 \; arpeggio_sequence_4 0 0 0 0 0 0 0 0 0 0 0 0 0 0 0
0 0;
#X msg 64 418 \; arpseq1_8ve_seq 0 0 0 0 0 0 0 0 0 0 0 0 0 0 0 0 0
;
#X msg 80 467 \; arpseq2_8ve_seq 0 0 0 0 0 0 0 0 0 0 0 0 0 0 0 0 0
;
#X msg 93 520 \; arpseq3_8ve_seq 0 0 0 0 0 0 0 0 0 0 0 0 0 0 0 0 0
;
#X msg 108 572 \; arpseq4_8ve_seq 0 0 0 0 0 0 0 0 0 0 0 0 0 0 0 0 0
;
#X connect 0 0 3 0;
#X connect 0 0 4 0;
#X connect 0 0 6 0;
#X connect 0 0 5 0;
#X connect 0 0 7 0;
#X connect 0 0 8 0;
#X connect 0 0 2 0;
#X connect 0 0 1 0;
#X connect 0 0 9 0;
#X connect 0 0 10 0;
#X connect 0 0 11 0;
#X connect 0 0 12 0;
#X restore 331 2 pd reset_arrays;
#X obj 334 -28 bng 15 250 50 0 empty empty empty 17 7 0 10 -262144
-1 -1;
#X obj 1018 452 t f f f;
#N canvas 167 262 626 818 blockchordtone_calc 0;
#X obj 119 424 int;
#X obj 179 420 + 2;
#X floatatom 104 478 5 0 0 0 - - -, f 5;
#X obj 200 290 bng 15 250 50 0 empty empty empty 17 7 0 10 -262144
-1 -1;
#X obj 82 540 tabread scale;
#X floatatom 51 579 5 0 0 0 - - -, f 5;
#X obj 240 422 int;
#X obj 295 425 + 1;
#X msg 255 253 0;
#X obj 178 391 t b b;
#X floatatom 258 466 5 0 0 0 - - -, f 5;
#X obj 404 470 select 48;
#X obj 202 331 until;
#X obj 238 92 r chord;
#X msg 176 26 2;
#X msg 229 26 5;
#X obj 195 60 s chord;
#X obj 187 183 t float float;
#X msg 135 51 1;
#X obj 237 132 - 1;
#X obj 84 219 * 7;
#X obj 80 312 +;
#X msg 33 155 1;
#X msg 39 196 2;
#X obj 45 93 r blockchordstartoctave;
#X obj 94 613 tabwrite blockchordtones;
#X connect 0 0 1 0;
#X connect 0 0 2 0;
#X connect 1 0 0 1;
#X connect 2 0 4 0;
#X connect 3 0 12 0;
#X connect 4 0 5 0;
#X connect 4 0 25 0;
#X connect 6 0 7 0;
#X connect 6 0 10 0;
#X connect 6 0 25 1;
#X connect 7 0 6 1;
#X connect 7 0 11 0;
#X connect 8 0 6 1;
#X connect 8 0 3 0;
#X connect 9 0 0 0;
#X connect 9 1 6 0;
#X connect 11 0 12 1;
#X connect 12 0 9 0;
#X connect 13 0 19 0;
#X connect 14 0 16 0;
#X connect 15 0 16 0;
#X connect 17 0 8 0;
#X connect 17 1 21 1;
#X connect 18 0 16 0;
#X connect 19 0 17 0;
#X connect 20 0 21 0;
#X connect 21 0 0 1;
#X connect 22 0 20 0;
#X connect 23 0 20 0;
#X connect 24 0 20 0;
#X restore 87 540 pd blockchordtone_calc;
#X msg 565 394 1;
#X msg 566 422 2;
#X msg 568 447 3;
#X msg 568 472 4;
#X msg 569 498 5;
#X msg 568 525 6;
#X msg 568 554 7;
#X obj 700 684 s chord;
#N canvas 340 299 567 533 chordprog 0;
#X obj 92 25 inlet;
#X obj 92 77 tabread chordroot_sequence;
#X obj 127 217 s chord;
#X obj 94 169 t b f;
#X obj 77 222 bng 15 250 50 0 empty empty empty 17 7 0 10 -262144 -1
-1;
#X floatatom 55 144 5 0 0 0 - - -, f 5;
#X obj 154 139 moses 1;
#X connect 0 0 1 0;
#X connect 1 0 5 0;
#X connect 1 0 6 0;
#X connect 3 0 4 0;
#X connect 3 1 2 0;
#X connect 6 1 3 0;
#X restore 1150 604 pd chordprog;
#N canvas 63 95 1086 805 arpchordtone_calc 1;
#X obj 117 440 int;
#X obj 177 436 + 2;
#X floatatom 102 494 5 0 0 0 - - -, f 5;
#X obj 198 306 bng 15 250 50 0 empty empty empty 17 7 0 10 -262144
-1 -1;
#X obj 80 556 tabread scale;
#X floatatom 34 604 5 0 0 0 - - -, f 5;
#X obj 238 438 int;
#X obj 293 441 + 1;
#X msg 253 269 0;
#X obj 176 407 t b b;
#X floatatom 256 482 5 0 0 0 - - -, f 5;
#X obj 365 419 select 48;
#X obj 200 347 until;
#X obj 299 67 r chord;
#X msg 468 75 2;
#X msg 528 75 5;
#X obj 494 109 s chord;
#X obj 248 158 t float float;
#X msg 434 100 1;
#X obj 298 107 - 1;
#X obj 85 166 * 7;
#X obj 89 211 +;
#X msg 29 118 1;
#X msg 29 140 2;
#X obj 52 51 r arpeggiostartoctave;
#X text 7 6 Arpeggio player chordtone setter;
#X floatatom 89 78 5 0 0 0 - - -, f 5;
#X obj 92 629 tabwrite arp1chordtones;
#X obj 460 474 pack s;
#X msg 408 546 set \$1;
#X obj 486 370 r arparraytowrite;
#X obj 81 267 t b f;
#X obj 503 525 print;
#X obj 356 122 bng 15 250 50 0 empty empty empty 17 7 0 10 -262144
-1 -1;
#X floatatom 45 319 5 0 0 0 - - -, f 5;
#X obj 297 225 r writearpchordtonearray;
#X obj 582 234 s writearpchordtonearray;
#X obj 579 186 bng 15 250 50 0 empty empty empty 17 7 0 10 -262144
-1 -1;
#X floatatom 230 215 5 0 0 0 - - -, f 5;
#X floatatom 33 246 5 0 0 0 - - -, f 5;
#X msg 370 464 0;
#X connect 0 0 1 0;
#X connect 0 0 2 0;
#X connect 1 0 0 1;
#X connect 2 0 4 0;
#X connect 3 0 12 0;
#X connect 4 0 5 0;
#X connect 4 0 27 0;
#X connect 6 0 7 0;
#X connect 6 0 10 0;
#X connect 6 0 27 1;
#X connect 7 0 6 1;
#X connect 7 0 11 0;
#X connect 8 0 6 1;
#X connect 8 0 3 0;
#X connect 9 0 0 0;
#X connect 9 1 6 0;
#X connect 11 0 12 1;
#X connect 11 0 40 0;
#X connect 12 0 9 0;
#X connect 13 0 19 0;
#X connect 13 0 33 0;
#X connect 14 0 16 0;
#X connect 15 0 16 0;
#X connect 17 0 38 0;
#X connect 17 1 21 0;
#X connect 18 0 16 0;
#X connect 19 0 17 0;
#X connect 20 0 21 1;
#X connect 21 0 31 0;
#X connect 21 0 39 0;
#X connect 22 0 20 0;
#X connect 23 0 20 0;
#X connect 24 0 20 0;
#X connect 24 0 26 0;
#X connect 28 0 29 0;
#X connect 29 0 27 0;
#X connect 30 0 28 0;
#X connect 31 1 0 1;
#X connect 31 1 34 0;
#X connect 35 0 8 0;
#X connect 37 0 36 0;
#X connect 40 0 0 1;
#X restore 468 658 pd arpchordtone_calc;
#X connect 1 0 32 0;
#X connect 5 0 11 0;
#X connect 6 0 5 1;
#X connect 7 0 22 0;
#X connect 8 0 7 1;
#X connect 17 0 19 0;
#X connect 18 0 19 1;
#X connect 24 0 23 0;
#X connect 25 0 24 1;
#X connect 29 0 1 0;
#X connect 31 0 30 0;
#X connect 32 0 5 0;
#X connect 32 1 7 0;
#X connect 34 0 41 0;
#X connect 35 0 41 0;
#X connect 36 0 41 0;
#X connect 37 0 41 0;
#X connect 38 0 41 0;
#X connect 39 0 41 0;
#X connect 40 0 41 0;
