#N canvas 1600 109 1440 818 12;
#X msg 84 20 \; scale_struct 0 2 2 1 2 2 2 1;
#X floatatom 988 65 5 0 0 0 - - -, f 5;
#N canvas 172 262 1155 818 chordtone_calc 0;
#X obj 117 440 int;
#X obj 177 436 + 2;
#X floatatom 102 494 5 0 0 0 - - -, f 5;
#X obj 198 306 bng 15 250 50 0 empty empty empty 17 7 0 10 -262144
-1 -1;
#X obj 80 556 tabread scale;
#X obj 92 629 tabwrite chordtones;
#X floatatom 49 595 5 0 0 0 - - -, f 5;
#X obj 238 438 int;
#X obj 293 441 + 1;
#X msg 253 269 0;
#X obj 176 407 t b b;
#X floatatom 256 482 5 0 0 0 - - -, f 5;
#X obj 365 419 select 48;
#X obj 200 347 until;
#X obj 297 103 r chord;
#X msg 167 42 2;
#X msg 227 42 5;
#X obj 193 76 s chord;
#X obj 185 199 t float float;
#X msg 133 67 1;
#X obj 235 148 - 1;
#X obj 82 251 * 7;
#X obj 80 293 +;
#X msg 26 203 1;
#X msg 26 225 2;
#X obj 49 136 r arpeggiostartoctave;
#X text 7 6 Arpeggio player chordtone setter;
#X floatatom 86 163 5 0 0 0 - - -, f 5;
#X connect 0 0 1 0;
#X connect 0 0 2 0;
#X connect 1 0 0 1;
#X connect 2 0 4 0;
#X connect 3 0 13 0;
#X connect 4 0 5 0;
#X connect 4 0 6 0;
#X connect 7 0 8 0;
#X connect 7 0 5 1;
#X connect 7 0 11 0;
#X connect 8 0 7 1;
#X connect 8 0 12 0;
#X connect 9 0 7 1;
#X connect 9 0 3 0;
#X connect 10 0 0 0;
#X connect 10 1 7 0;
#X connect 12 0 13 1;
#X connect 13 0 10 0;
#X connect 15 0 17 0;
#X connect 16 0 17 0;
#X connect 18 0 9 0;
#X connect 18 1 0 1;
#X connect 19 0 17 0;
#X connect 20 0 18 0;
#X connect 21 0 22 0;
#X connect 23 0 21 0;
#X connect 24 0 21 0;
#X connect 25 0 21 0;
#X connect 25 0 27 0;
#X restore 441 176 pd chordtone_calc;
#N canvas 0 82 1440 818 scalewriter 0;
#X floatatom 86 134 5 0 0 0 - - -, f 5;
#X text 122 133 MIDI note of key root;
#X msg 140 64 24;
#X text 176 64 C;
#X msg 274 173 0;
#X msg 78 70 50;
#X obj 138 358 + 1;
#X obj 36 254 bng 15 250 50 0 empty empty empty 17 7 0 10 -262144 -1
-1;
#X obj 83 355 int;
#X obj 79 580 +;
#X floatatom 80 612 5 0 0 0 - - -, f 5;
#X floatatom 200 571 5 0 0 0 - - -, f 5;
#X floatatom 9 575 5 0 0 0 - - -, f 5;
#X floatatom 41 456 5 0 0 0 - - -, f 5;
#X floatatom 157 459 5 0 0 0 - - -, f 5;
#X floatatom 11 412 5 0 0 0 - - -, f 5;
#X obj 43 496 % 7;
#X floatatom 25 519 5 0 0 0 - - -, f 5;
#X msg 79 241 0;
#X obj 247 461 + 1;
#X obj 10 541 tabread scale_struct;
#X obj 157 540 tabread scale;
#X obj 169 648 tabwrite scale;
#X obj 110 197 tabwrite scale;
#X obj 135 295 until;
#X obj 188 294 select 96;
#X obj 19 95 r key;
#X obj 301 140 loadbang;
#X obj 64 413 t float float;
#X msg 139 95 28;
#X text 174 96 E;
#X connect 0 0 23 0;
#X connect 0 0 18 0;
#X connect 0 0 7 0;
#X connect 2 0 0 0;
#X connect 4 0 23 1;
#X connect 5 0 0 0;
#X connect 6 0 8 1;
#X connect 6 0 25 0;
#X connect 7 0 24 0;
#X connect 8 0 6 0;
#X connect 8 0 15 0;
#X connect 8 0 19 0;
#X connect 8 0 28 0;
#X connect 9 0 10 0;
#X connect 10 0 22 0;
#X connect 13 0 16 0;
#X connect 14 0 21 0;
#X connect 16 0 17 0;
#X connect 17 0 20 0;
#X connect 18 0 8 1;
#X connect 19 0 22 1;
#X connect 20 0 9 0;
#X connect 20 0 12 0;
#X connect 21 0 9 1;
#X connect 21 0 11 0;
#X connect 24 0 8 0;
#X connect 25 0 24 1;
#X connect 26 0 0 0;
#X connect 27 0 4 0;
#X connect 28 0 13 0;
#X connect 28 1 14 0;
#X connect 29 0 0 0;
#X restore 82 94 pd scalewriter;
#N canvas 0 97 1425 818 sequence_arrays 0;
#N canvas 2352 122 450 278 (subpatch) 0;
#X array lead_accidentals_sequence 16 float 3;
#A 0 0 0 -1 0 0 -1 0 0 0 0 0 0 0 0 0 0;
#X coords 0 -2 16 2 200 140 1 0 0;
#X restore 223 31 graph;
#N canvas 624 148 450 278 (subpatch) 0;
#X array lead_sequence_2 16 float 3;
#A 0 0 0 0 0 0 0 0 0 0 0 0 0 0 0 0 0;
#X coords 0 0 16 47 200 140 1 0 0;
#X restore 14 202 graph;
#N canvas 624 148 450 278 (subpatch) 0;
#X array arpeggio_sequence_1 16 float 3;
#A 0 0 0 0 0 0 0 0 0 0 0 0 0 0 0 0 0;
#X coords 0 0 16 100 200 140 1 0 0;
#X restore 427 32 graph;
#N canvas 624 148 450 278 (subpatch) 0;
#X array arpeggio_sequence_2 16 float 3;
#A 0 0 0 0 0 0 0 0 0 0 0 0 0 0 0 0 0;
#X coords 0 0 16 100 200 140 1 0 0;
#X restore 428 199 graph;
#N canvas 624 148 450 278 (subpatch) 0;
#X array arpeggio_sequence_4 16 float 3;
#A 0 0 0 0 0 0 0 0 0 0 0 0 0 0 0 0 0;
#X coords 0 0 16 100 200 140 1 0 0;
#X restore 430 526 graph;
#N canvas 624 148 450 278 (subpatch) 0;
#X array arpeggio_sequence_3 16 float 3;
#A 0 0 0 0 0 0 0 0 0 0 0 0 0 0 0 0 0;
#X coords 0 0 16 100 200 140 1 0 0;
#X restore 431 369 graph;
#N canvas 1793 230 450 278 (subpatch) 0;
#X array arpseq2_8ve_seq 16 float 3;
#A 0 0 0 0 0 0 0 0 0 0 0 0 0 0 0 0 0;
#X coords 0 0 16 100 200 140 1 0 0;
#X restore 638 199 graph;
#N canvas 1793 230 450 278 (subpatch) 0;
#X array arpseq3_8ve_seq 16 float 3;
#A 0 0 0 0 0 0 0 0 0 0 0 0 0 0 0 0 0;
#X coords 0 0 16 100 200 140 1 0 0;
#X restore 640 369 graph;
#N canvas 1793 230 450 278 (subpatch) 0;
#X array arpseq4_8ve_seq 16 float 3;
#A 0 0 0 0 0 0 0 0 0 0 0 0 0 0 0 0 0;
#X coords 0 0 16 100 200 140 1 0 0;
#X restore 641 528 graph;
#N canvas 1793 230 450 278 (subpatch) 0;
#X array arpseq1_8ve_seq 16 float 3;
#A 0 0 0 0 0 0 0 0 0 0 0 0 0 0 0 0 0;
#X coords 0 0 16 100 200 140 1 0 0;
#X restore 635 33 graph;
#N canvas 624 148 450 278 (subpatch) 0;
#X array chord7thmodified_sequence 16 float 3;
#A 0 0 0 0 0 0 0 0 0 0 0 0 0 0 0 0 0;
#X coords 0 -3 16 3 200 140 1 0 0;
#X restore 852 369 graph;
#N canvas 1793 230 450 278 (subpatch) 0;
#X array blockchord_8ve_sequence 16 float 3;
#A 0 0 0 0 0 0 0 0 0 0 0 0 0 0 0 0 0;
#X coords 0 0 16 100 200 140 1 0 0;
#X restore 863 570 graph;
#N canvas 2352 122 450 278 (subpatch) 0;
#X array dr1_sequence 16 float 3;
#A 0 0 0 0 0 0 0 0 0 0 0 0 0 0 0 0 0;
#X coords 0 0 16 47 200 140 1 0 0;
#X restore 1066 36 graph;
#N canvas 624 148 450 278 (subpatch) 0;
#X array dr2_sequence 16 float 3;
#A 0 0 0 0 0 0 0 0 0 0 0 0 0 0 0 0 0;
#X coords 0 0 16 47 200 140 1 0 0;
#X restore 1066 197 graph;
#N canvas 2352 122 450 278 (subpatch) 0;
#X array dr3_sequence 16 float 3;
#A 0 0 0 0 0 0 0 0 0 0 0 0 0 0 0 0 0;
#X coords 0 0 16 47 200 140 1 0 0;
#X restore 1066 358 graph;
#N canvas 624 148 450 278 (subpatch) 0;
#X array dr4_sequence 16 float 3;
#A 0 0 0 0 0 0 0 0 0 0 0 0 0 0 0 0 0;
#X coords 0 0 16 47 200 140 1 0 0;
#X restore 1066 519 graph;
#X text 934 536 Unused...;
#N canvas 624 148 450 278 (subpatch) 0;
#X array chord3rdmodified_sequence 16 float 3;
#A 0 0 0 0 0 0 0 0 0 0 0 0 0 0 0 0 0;
#X coords 0 -3 16 3 200 140 1 0 0;
#X restore 850 199 graph;
#N canvas 552 327 450 278 (subpatch) 0;
#X array chordroot_sequence 16 float 3;
#A 0 0 0 0 0 0 0 0 0 0 0 0 0 0 0 0 0;
#X coords 0 0 16 100 200 140 1 0 0;
#X restore 846 36 graph;
#N canvas 2352 122 450 278 (subpatch) 0;
#X array lead_sequence 16 float 3;
#A 0 0 0 0 0 0 0 0 0 0 0 0 0 0 0 0 0;
#X coords 0 0 16 47 200 140 1 0 0;
#X restore 16 33 graph;
#X restore 67 315 pd sequence_arrays;
#N canvas 0 54 1600 846 gui 1;
#N canvas 2018 92 1037 998 lead_gui 0;
#X obj 36 141 vradio 15 1 0 7 empty empty empty 0 -8 0 10 -262144 -1
-1 0;
#X obj 56 141 vradio 15 1 0 7 empty empty empty 0 -8 0 10 -262144 -1
-1 0;
#X obj 78 142 vradio 15 1 0 7 empty empty empty 0 -8 0 10 -262144 -1
-1 0;
#X obj 101 142 vradio 15 1 0 7 empty empty empty 0 -8 0 10 -262144
-1 -1 0;
#X obj 40 454 t f b;
#X obj 53 425 t f b;
#X msg 89 497 0;
#X msg 89 466 1;
#X obj 64 404 t f b;
#X obj 80 383 t f b;
#X msg 102 440 2;
#X msg 109 412 3;
#X obj 133 139 vradio 15 1 0 7 empty empty empty 0 -8 0 10 -262144
-1 -1 0;
#X obj 154 140 vradio 15 1 0 7 empty empty empty 0 -8 0 10 -262144
-1 -1 0;
#X obj 174 140 vradio 15 1 0 7 empty empty empty 0 -8 0 10 -262144
-1 -1 0;
#X obj 193 140 vradio 15 1 0 7 empty empty empty 0 -8 0 10 -262144
-1 -1 0;
#X obj 145 455 t f b;
#X obj 163 428 t f b;
#X obj 174 407 t f b;
#X obj 193 381 t f b;
#X obj 227 139 vradio 15 1 0 7 empty empty empty 0 -8 0 10 -262144
-1 -1 0;
#X obj 247 139 vradio 15 1 0 7 empty empty empty 0 -8 0 10 -262144
-1 -1 0;
#X obj 268 140 vradio 15 1 0 7 empty empty empty 0 -8 0 10 -262144
-1 -1 0;
#X obj 290 141 vradio 15 1 0 7 empty empty empty 0 -8 0 10 -262144
-1 -1 0;
#X obj 267 457 t f b;
#X obj 285 430 t f b;
#X obj 296 409 t f b;
#X obj 312 388 t f b;
#X obj 321 140 vradio 15 1 0 7 empty empty empty 0 -8 0 10 -262144
-1 -1 0;
#X obj 341 140 vradio 15 1 0 7 empty empty empty 0 -8 0 10 -262144
-1 -1 0;
#X obj 362 141 vradio 15 1 0 7 empty empty empty 0 -8 0 10 -262144
-1 -1 0;
#X obj 413 129 vradio 15 1 0 8 empty empty empty 0 -8 0 10 -262144
-1 -1 0;
#X obj 378 465 t f b;
#X obj 398 438 t f b;
#X obj 419 414 t f b;
#X obj 438 389 t f b;
#X msg 186 495 4;
#X msg 201 471 5;
#X msg 212 444 6;
#X msg 223 414 7;
#X msg 310 498 8;
#X msg 321 471 9;
#X msg 334 445 10;
#X msg 343 417 11;
#X msg 414 491 12;
#X msg 433 465 13;
#X msg 451 439 14;
#X msg 472 412 15;
#X obj 384 142 vradio 15 1 0 7 empty empty empty 0 -8 0 10 -262144
-1 -1 0;
#X obj 138 615 +;
#X text 362 111 8ve adjust;
#X obj 49 736 tabwrite lead_sequence;
#X obj 237 594 t f;
#X msg 364 88 0;
#X obj 358 56 bng 15 250 50 0 empty empty empty 17 7 0 10 -262144 -1
-1;
#X text 374 55 reset;
#X obj 18 11 tgl 15 0 leadplayer_on empty empty 17 7 0 10 -262144 -1
-1 0 1;
#X text 36 12 Lead player;
#X obj 185 14 hradio 15 1 0 8 empty empty empty 0 -8 0 10 -262144 -1
-1 0;
#X obj 184 76 s lead_sample_number;
#X obj 185 43 + 1;
#X obj 25 115 bng 15 250 50 0 empty empty empty 17 7 0 10 -257985 -1
-1;
#X obj 24 592 t f b;
#X msg 25 566 0;
#X obj 132 666 + 1;
#X obj 510 364 * 7, f 4;
#X obj 230 633 +;
#X floatatom 287 675 5 0 0 0 - - -, f 5;
#X obj 343 585 r edit_start_pulse;
#X obj 36 252 vradio 15 1 0 3 empty empty empty 0 -8 0 10 -262144 -1
-1 0;
#X obj 457 742 tabwrite lead_accidentals_sequence;
#X obj 37 309 t f b;
#X obj 534 456 print x1;
#X obj 552 482 print x2;
#X obj 562 508 print x3;
#X floatatom 672 305 5 0 0 0 - - -, f 5;
#X obj 457 657 - 1;
#X obj 57 253 vradio 15 1 0 3 empty empty empty 0 -8 0 10 -262144 -1
-1 0;
#X obj 62 335 t f b;
#X obj 79 251 vradio 15 1 0 3 empty empty empty 0 -8 0 10 -262144 -1
-1 0;
#X obj 80 308 t f b;
#X obj 100 252 vradio 15 1 0 3 empty empty empty 0 -8 0 10 -262144
-1 -1 0;
#X obj 105 334 t f b;
#X text 17 248 b;
#X text 13 276 #;
#X obj 134 253 vradio 15 1 0 3 empty empty empty 0 -8 0 10 -262144
-1 -1 0;
#X obj 135 310 t f b;
#X obj 155 254 vradio 15 1 0 3 empty empty empty 0 -8 0 10 -262144
-1 -1 0;
#X obj 160 336 t f b;
#X obj 177 252 vradio 15 1 0 3 empty empty empty 0 -8 0 10 -262144
-1 -1 0;
#X obj 178 309 t f b;
#X obj 198 253 vradio 15 1 0 3 empty empty empty 0 -8 0 10 -262144
-1 -1 0;
#X obj 203 335 t f b;
#X obj 225 252 vradio 15 1 0 3 empty empty empty 0 -8 0 10 -262144
-1 -1 0;
#X obj 226 309 t f b;
#X obj 246 253 vradio 15 1 0 3 empty empty empty 0 -8 0 10 -262144
-1 -1 0;
#X obj 251 335 t f b;
#X obj 268 251 vradio 15 1 0 3 empty empty empty 0 -8 0 10 -262144
-1 -1 0;
#X obj 269 308 t f b;
#X obj 289 252 vradio 15 1 0 3 empty empty empty 0 -8 0 10 -262144
-1 -1 0;
#X obj 294 334 t f b;
#X obj 323 253 vradio 15 1 0 3 empty empty empty 0 -8 0 10 -262144
-1 -1 0;
#X obj 324 310 t f b;
#X obj 344 254 vradio 15 1 0 3 empty empty empty 0 -8 0 10 -262144
-1 -1 0;
#X obj 349 336 t f b;
#X obj 366 252 vradio 15 1 0 3 empty empty empty 0 -8 0 10 -262144
-1 -1 0;
#X obj 367 309 t f b;
#X obj 387 253 vradio 15 1 0 3 empty empty empty 0 -8 0 10 -262144
-1 -1 0;
#X obj 392 335 t f b;
#X connect 0 0 4 0;
#X connect 1 0 5 0;
#X connect 2 0 8 0;
#X connect 3 0 9 0;
#X connect 4 0 49 0;
#X connect 4 1 6 0;
#X connect 5 0 49 0;
#X connect 5 1 7 0;
#X connect 6 0 52 0;
#X connect 7 0 52 0;
#X connect 8 0 49 0;
#X connect 8 1 10 0;
#X connect 9 0 49 0;
#X connect 9 1 11 0;
#X connect 10 0 52 0;
#X connect 11 0 52 0;
#X connect 12 0 16 0;
#X connect 13 0 17 0;
#X connect 14 0 18 0;
#X connect 15 0 19 0;
#X connect 16 0 49 0;
#X connect 16 1 36 0;
#X connect 17 0 49 0;
#X connect 17 1 37 0;
#X connect 18 0 49 0;
#X connect 18 1 38 0;
#X connect 19 0 49 0;
#X connect 19 1 39 0;
#X connect 20 0 24 0;
#X connect 21 0 25 0;
#X connect 22 0 26 0;
#X connect 23 0 27 0;
#X connect 24 0 49 0;
#X connect 24 1 40 0;
#X connect 25 0 49 0;
#X connect 25 1 41 0;
#X connect 26 0 49 0;
#X connect 26 1 42 0;
#X connect 27 0 49 0;
#X connect 27 1 43 0;
#X connect 28 0 32 0;
#X connect 29 0 33 0;
#X connect 30 0 34 0;
#X connect 31 0 65 0;
#X connect 32 0 49 0;
#X connect 32 1 44 0;
#X connect 33 0 49 0;
#X connect 33 1 45 0;
#X connect 34 0 49 0;
#X connect 34 1 46 0;
#X connect 35 0 49 0;
#X connect 35 1 47 0;
#X connect 36 0 52 0;
#X connect 37 0 52 0;
#X connect 38 0 52 0;
#X connect 39 0 52 0;
#X connect 40 0 52 0;
#X connect 41 0 52 0;
#X connect 42 0 52 0;
#X connect 43 0 52 0;
#X connect 44 0 52 0;
#X connect 45 0 52 0;
#X connect 46 0 52 0;
#X connect 47 0 52 0;
#X connect 48 0 35 0;
#X connect 49 0 64 0;
#X connect 52 0 66 0;
#X connect 53 0 48 0;
#X connect 53 0 30 0;
#X connect 53 0 29 0;
#X connect 53 0 28 0;
#X connect 53 0 23 0;
#X connect 53 0 22 0;
#X connect 53 0 21 0;
#X connect 53 0 20 0;
#X connect 53 0 15 0;
#X connect 53 0 14 0;
#X connect 53 0 13 0;
#X connect 53 0 12 0;
#X connect 53 0 3 0;
#X connect 53 0 2 0;
#X connect 53 0 1 0;
#X connect 53 0 0 0;
#X connect 54 0 53 0;
#X connect 58 0 60 0;
#X connect 60 0 59 0;
#X connect 61 0 63 0;
#X connect 62 0 51 0;
#X connect 62 1 6 0;
#X connect 63 0 62 0;
#X connect 64 0 51 0;
#X connect 65 0 49 1;
#X connect 66 0 51 1;
#X connect 66 0 67 0;
#X connect 66 0 70 1;
#X connect 68 0 66 1;
#X connect 69 0 71 0;
#X connect 71 0 76 0;
#X connect 71 1 6 0;
#X connect 76 0 70 0;
#X connect 77 0 78 0;
#X connect 78 0 76 0;
#X connect 78 1 7 0;
#X connect 79 0 80 0;
#X connect 80 0 76 0;
#X connect 80 1 10 0;
#X connect 81 0 82 0;
#X connect 82 0 76 0;
#X connect 82 1 11 0;
#X connect 85 0 86 0;
#X connect 86 0 76 0;
#X connect 86 1 36 0;
#X connect 87 0 88 0;
#X connect 88 0 76 0;
#X connect 88 1 37 0;
#X connect 89 0 90 0;
#X connect 90 0 38 0;
#X connect 90 0 76 0;
#X connect 90 1 39 0;
#X connect 91 0 92 0;
#X connect 92 0 76 0;
#X connect 92 1 39 0;
#X connect 93 0 94 0;
#X connect 94 0 76 0;
#X connect 94 1 40 0;
#X connect 95 0 96 0;
#X connect 96 0 41 0;
#X connect 96 0 76 0;
#X connect 97 0 98 0;
#X connect 98 0 76 0;
#X connect 98 1 42 0;
#X connect 99 0 100 0;
#X connect 100 0 76 0;
#X connect 100 1 43 0;
#X connect 101 0 102 0;
#X connect 102 0 76 0;
#X connect 102 1 44 0;
#X connect 103 0 104 0;
#X connect 104 0 76 0;
#X connect 104 1 45 0;
#X connect 105 0 106 0;
#X connect 106 0 76 0;
#X connect 106 1 46 0;
#X connect 107 0 108 0;
#X connect 108 0 76 0;
#X connect 108 1 47 0;
#X coords 0 -1 1 1 450 300 1 0 0;
#X restore 21 -80 pd lead_gui;
#N canvas 2283 220 983 841 main_control_gui 0;
#X floatatom 403 51 5 0 0 0 - - -, f 5;
#X obj 587 290 r pulses_per_bar;
#X floatatom 588 331 5 0 0 0 - - -, f 5;
#X obj 564 375 *;
#X obj 565 251 - 1;
#X floatatom 588 424 5 0 0 0 - - -, f 5;
#X obj 588 527 s edit_start_pulse;
#X obj 11 48 tgl 15 0 metro_on empty empty 17 7 0 10 -262144 -1 -1
0 1;
#X text 5 33 On/off;
#X floatatom 110 45 5 0 0 0 - - -, f 5;
#X obj 111 152 s tempo;
#X text 102 29 Tempo;
#X floatatom 182 45 5 0 0 0 - - -, f 5;
#X obj 181 152 s density;
#X text 179 27 Density;
#X obj 356 255 mtof, f 5;
#X obj 132 91 hradio 16 1 0 12 empty empty empty 0 -8 0 10 -262144
-1 -1 0;
#X floatatom 301 210 5 0 0 0 - - -, f 5;
#X obj 386 187 + 24;
#X text 131 72 C;
#X text 143 73 Db;
#X text 195 73 E;
#X text 211 72 F;
#X text 226 73 F#;
#X text 246 72 G;
#X text 257 74 Ab;
#X text 276 75 A;
#X text 287 74 Bb;
#X text 309 74 B;
#X text 164 72 D;
#X text 178 73 Eb;
#X floatatom 302 186 5 0 0 0 - - -, f 5;
#X obj 350 288 s key;
#X text 346 32 Bar to edit;
#X text 98 71 Key:;
#X floatatom 403 88 5 0 0 0 - - -, f 5;
#X text 342 69 number of bars;
#X obj 465 246 s num_bars;
#X floatatom 497 51 5 0 0 0 - - -, f 5;
#X obj 540 163 s loop_start_bar;
#X obj 668 164 s loop_end_bar;
#X floatatom 496 74 5 0 0 0 - - -, f 5;
#X text 440 30 Loop:;
#X text 447 50 Start:;
#X text 462 71 End:;
#X floatatom 592 53 5 0 0 0 - - -, f 5;
#X floatatom 595 77 5 0 0 0 - - -, f 5;
#X obj 637 -52 r current_bar_num;
#X obj 786 -51 r current_pulse_num;
#X obj 636 -16 + 1;
#X obj 785 -11 + 1;
#X text 555 51 Bar:;
#X text 546 76 Pulse:;
#X obj 67 51 vsl 15 64 0 100 0 0 empty empty empty 0 -9 0 10 -262144
-1 -1 0 1;
#X floatatom 136 351 5 0 0 0 - - -, f 5;
#X obj 204 401 s master_vol;
#X text 33 77 Vol:;
#X obj 768 47 vsl 15 64 0 120 0 0 empty empty empty 0 -9 0 10 -262144
-1 -1 0 1;
#X obj 770 141 s lead_vol;
#X obj 804 45 vsl 15 64 0 120 0 0 empty empty empty 0 -9 0 10 -262144
-1 -1 0 1;
#X obj 878 46 vsl 15 64 0 120 0 0 empty empty empty 0 -9 0 10 -262144
-1 -1 0 1;
#X obj 810 170 s arp_vol;
#X obj 888 231 s drum_vol;
#X text 696 22 Mixer:;
#X text 764 24 Ld;
#X text 797 25 Arp;
#X text 873 24 Dr;
#X obj 840 47 vsl 15 64 0 120 0 0 empty empty empty 0 -9 0 10 -262144
-1 -1 0 1;
#X text 835 25 Bass;
#X obj 847 202 s bass_vol;
#X connect 0 0 4 0;
#X connect 1 0 2 0;
#X connect 2 0 3 1;
#X connect 3 0 5 0;
#X connect 4 0 3 0;
#X connect 5 0 6 0;
#X connect 9 0 10 0;
#X connect 12 0 13 0;
#X connect 15 0 17 0;
#X connect 16 0 18 0;
#X connect 18 0 15 0;
#X connect 18 0 31 0;
#X connect 31 0 32 0;
#X connect 35 0 37 0;
#X connect 38 0 39 0;
#X connect 41 0 40 0;
#X connect 47 0 49 0;
#X connect 48 0 50 0;
#X connect 49 0 45 0;
#X connect 50 0 46 0;
#X connect 53 0 54 0;
#X connect 53 0 55 0;
#X connect 57 0 58 0;
#X connect 59 0 61 0;
#X connect 60 0 62 0;
#X connect 67 0 69 0;
#X coords 0 -1 1 1 920 100 1 0 20;
#X restore 21 -371 pd main_control_gui;
#N canvas 2193 82 847 818 arp_gui 0;
#X obj 653 715 spigot;
#X obj 658 755 tabwrite arpseq4_8ve_seq;
#X obj 33 131 vradio 15 1 0 7 empty empty empty 0 -8 0 10 -262144 -1
-1 0;
#X obj 53 131 vradio 15 1 0 7 empty empty empty 0 -8 0 10 -262144 -1
-1 0;
#X obj 75 132 vradio 15 1 0 7 empty empty empty 0 -8 0 10 -262144 -1
-1 0;
#X obj 98 132 vradio 15 1 0 7 empty empty empty 0 -8 0 10 -262144 -1
-1 0;
#X obj 23 357 t f b;
#X obj 41 330 t f b;
#X msg 74 396 0;
#X msg 77 371 1;
#X obj 52 309 t f b;
#X obj 68 288 t f b;
#X msg 90 345 2;
#X msg 100 316 3;
#X obj 126 131 vradio 15 1 0 7 empty empty empty 0 -8 0 10 -262144
-1 -1 0;
#X obj 146 132 vradio 15 1 0 7 empty empty empty 0 -8 0 10 -262144
-1 -1 0;
#X obj 167 132 vradio 15 1 0 7 empty empty empty 0 -8 0 10 -262144
-1 -1 0;
#X obj 187 131 vradio 15 1 0 7 empty empty empty 0 -8 0 10 -262144
-1 -1 0;
#X obj 139 364 t f b;
#X obj 157 337 t f b;
#X obj 168 316 t f b;
#X obj 187 290 t f b;
#X obj 217 132 vradio 15 1 0 7 empty empty empty 0 -8 0 10 -262144
-1 -1 0;
#X obj 237 132 vradio 15 1 0 7 empty empty empty 0 -8 0 10 -262144
-1 -1 0;
#X obj 258 133 vradio 15 1 0 7 empty empty empty 0 -8 0 10 -262144
-1 -1 0;
#X obj 280 133 vradio 15 1 0 7 empty empty empty 0 -8 0 10 -262144
-1 -1 0;
#X obj 258 370 t f b;
#X obj 264 341 t f b;
#X obj 263 314 t f b;
#X obj 262 286 t f b;
#X obj 311 133 vradio 15 1 0 7 empty empty empty 0 -8 0 10 -262144
-1 -1 0;
#X obj 331 132 vradio 15 1 0 7 empty empty empty 0 -8 0 10 -262144
-1 -1 0;
#X obj 352 132 vradio 15 1 0 7 empty empty empty 0 -8 0 10 -262144
-1 -1 0;
#X obj 422 115 vradio 15 1 0 8 empty empty empty 0 -8 0 10 -262144
-1 -1 0;
#X obj 373 375 t f b;
#X obj 377 343 t f b;
#X obj 389 314 t f b;
#X obj 393 286 t f b;
#X msg 180 404 4;
#X msg 195 380 5;
#X msg 206 353 6;
#X msg 221 318 7;
#X msg 296 400 8;
#X msg 307 365 9;
#X msg 319 328 10;
#X msg 319 298 11;
#X msg 420 390 12;
#X msg 429 356 13;
#X msg 438 331 14;
#X msg 445 304 15;
#X obj 374 132 vradio 15 1 0 7 empty empty empty 0 -8 0 10 -262144
-1 -1 0;
#X obj 65 461 +;
#X text 402 100 8ve adjust;
#X obj 70 579 spigot;
#X obj 107 547 tgl 15 0 empty write_chord1 empty 17 7 0 10 -262144
-1 -1 0 1;
#X obj 276 488 t f;
#X obj 448 584 spigot;
#X obj 530 556 tgl 15 0 empty write_chord2 empty 17 7 0 10 -262144
-1 -1 0 1;
#X obj 28 88 tgl 15 0 write_chord2 empty empty 17 7 0 10 -262144 -1
-1 0 1;
#X obj 26 56 tgl 15 0 write_chord1 empty empty 17 7 0 10 -262144 -1
-1 0 1;
#X text 45 55 write chord seq 1;
#X text 48 88 write chord seq 2;
#X obj 36 707 spigot;
#X obj 89 678 tgl 15 0 empty write_chord3 empty 17 7 0 10 -262144 -1
-1 0 1;
#X obj 480 717 spigot;
#X obj 533 674 tgl 15 0 empty write_chord4 empty 17 7 0 10 -262144
-1 -1 0 1;
#X obj 181 91 tgl 15 0 write_chord4 empty empty 17 7 0 10 -262144 -1
-1 0 1;
#X obj 179 59 tgl 15 0 write_chord3 empty empty 17 7 0 10 -262144 -1
-1 0 1;
#X text 200 58 write chord seq 3;
#X text 201 91 write chord seq 4;
#X msg 425 76 0;
#X obj 392 53 bng 15 250 50 0 empty empty empty 17 7 0 10 -262144 -1
-1;
#X text 421 53 reset;
#X obj 15 609 tabwrite arpeggio_sequence_1;
#X obj 442 615 tabwrite arpeggio_sequence_2;
#X obj 13 751 tabwrite arpeggio_sequence_3;
#X obj 448 754 tabwrite arpeggio_sequence_4;
#X obj 25 17 tgl 15 0 arpeggioplayer_on empty empty 17 7 0 10 -262144
-1 -1 0 1;
#X text 42 16 Arpeggio player;
#X obj 566 43 + 1;
#X obj 157 20 hradio 15 1 0 8 empty empty empty 0 -8 0 10 -262144 -1
-1 0;
#X obj 565 81 s arpeggio_sample_number;
#X obj 67 489 + 1;
#X obj 225 612 tabwrite arpseq1_8ve_seq;
#X obj 155 491 +;
#X obj 159 462 bng 15 250 50 0 empty empty empty 17 7 0 10 -262144
-1 -1;
#X obj 379 484 t f;
#X obj 226 582 spigot;
#X obj 581 585 spigot;
#X obj 130 696 spigot;
#X obj 649 612 tabwrite arpseq2_8ve_seq;
#X obj 221 753 tabwrite arpseq3_8ve_seq;
#X obj 275 517 +;
#X obj 430 483 r edit_start_pulse;
#X obj 382 515 +;
#X connect 0 0 1 0;
#X connect 2 0 6 0;
#X connect 3 0 7 0;
#X connect 4 0 10 0;
#X connect 5 0 11 0;
#X connect 6 0 51 0;
#X connect 6 1 8 0;
#X connect 7 0 51 0;
#X connect 7 1 9 0;
#X connect 8 0 55 0;
#X connect 8 0 85 0;
#X connect 8 0 86 0;
#X connect 9 0 55 0;
#X connect 9 0 85 0;
#X connect 9 0 86 0;
#X connect 10 0 51 0;
#X connect 10 1 12 0;
#X connect 11 0 51 0;
#X connect 11 1 13 0;
#X connect 12 0 55 0;
#X connect 12 0 85 0;
#X connect 12 0 86 0;
#X connect 13 0 55 0;
#X connect 13 0 85 0;
#X connect 13 0 86 0;
#X connect 14 0 18 0;
#X connect 15 0 19 0;
#X connect 16 0 20 0;
#X connect 17 0 21 0;
#X connect 18 0 51 0;
#X connect 18 1 38 0;
#X connect 19 0 51 0;
#X connect 19 1 39 0;
#X connect 20 0 51 0;
#X connect 20 1 40 0;
#X connect 21 0 51 0;
#X connect 21 1 41 0;
#X connect 22 0 26 0;
#X connect 23 0 27 0;
#X connect 24 0 28 0;
#X connect 25 0 29 0;
#X connect 26 0 51 0;
#X connect 26 1 42 0;
#X connect 27 0 51 0;
#X connect 27 1 43 0;
#X connect 28 0 51 0;
#X connect 28 1 44 0;
#X connect 29 0 51 0;
#X connect 29 1 45 0;
#X connect 30 0 34 0;
#X connect 31 0 35 0;
#X connect 32 0 36 0;
#X connect 33 0 84 1;
#X connect 34 0 51 0;
#X connect 34 1 46 0;
#X connect 35 0 51 0;
#X connect 35 1 47 0;
#X connect 36 0 51 0;
#X connect 36 1 48 0;
#X connect 37 0 51 0;
#X connect 37 1 49 0;
#X connect 38 0 55 0;
#X connect 38 0 85 0;
#X connect 38 0 86 0;
#X connect 39 0 55 0;
#X connect 39 0 85 0;
#X connect 39 0 86 0;
#X connect 40 0 55 0;
#X connect 40 0 85 0;
#X connect 40 0 86 0;
#X connect 41 0 55 0;
#X connect 41 0 85 0;
#X connect 41 0 86 0;
#X connect 42 0 55 0;
#X connect 42 0 85 0;
#X connect 42 0 86 0;
#X connect 43 0 55 0;
#X connect 43 0 85 0;
#X connect 43 0 86 0;
#X connect 44 0 55 0;
#X connect 44 0 85 0;
#X connect 44 0 86 0;
#X connect 45 0 55 0;
#X connect 45 0 85 0;
#X connect 45 0 86 0;
#X connect 46 0 55 0;
#X connect 46 0 85 0;
#X connect 46 0 86 0;
#X connect 47 0 55 0;
#X connect 47 0 85 0;
#X connect 47 0 86 0;
#X connect 48 0 55 0;
#X connect 48 0 85 0;
#X connect 48 0 86 0;
#X connect 49 0 55 0;
#X connect 49 0 85 0;
#X connect 49 0 86 0;
#X connect 50 0 37 0;
#X connect 51 0 82 0;
#X connect 53 0 73 0;
#X connect 54 0 53 1;
#X connect 54 0 87 1;
#X connect 55 0 92 0;
#X connect 56 0 74 0;
#X connect 57 0 56 1;
#X connect 57 0 88 1;
#X connect 62 0 75 0;
#X connect 63 0 62 1;
#X connect 63 0 89 1;
#X connect 64 0 76 0;
#X connect 65 0 64 1;
#X connect 65 0 0 1;
#X connect 70 0 2 0;
#X connect 70 0 3 0;
#X connect 70 0 4 0;
#X connect 70 0 5 0;
#X connect 70 0 14 0;
#X connect 70 0 15 0;
#X connect 70 0 16 0;
#X connect 70 0 17 0;
#X connect 70 0 22 0;
#X connect 70 0 23 0;
#X connect 70 0 24 0;
#X connect 70 0 25 0;
#X connect 70 0 30 0;
#X connect 70 0 31 0;
#X connect 70 0 32 0;
#X connect 70 0 50 0;
#X connect 71 0 70 0;
#X connect 79 0 81 0;
#X connect 80 0 79 0;
#X connect 82 0 53 0;
#X connect 82 0 62 0;
#X connect 82 0 56 0;
#X connect 82 0 64 0;
#X connect 84 0 87 0;
#X connect 84 0 88 0;
#X connect 84 0 89 0;
#X connect 84 0 0 0;
#X connect 85 0 84 0;
#X connect 86 0 94 0;
#X connect 87 0 83 0;
#X connect 88 0 90 0;
#X connect 89 0 91 0;
#X connect 92 0 73 1;
#X connect 92 0 75 1;
#X connect 92 0 74 1;
#X connect 92 0 76 1;
#X connect 93 0 92 1;
#X connect 93 0 94 1;
#X connect 94 0 83 1;
#X connect 94 0 91 1;
#X connect 94 0 90 1;
#X connect 94 0 1 1;
#X coords 0 -1 1 1 480 300 1 0 0;
#X restore 931 -79 pd arp_gui;
#N canvas 1856 109 961 801 chordprog_gui 0;
#X text 2 191 Chord;
#X text 16 207 I;
#X text 14 221 ii;
#X text 8 239 iii;
#X text 9 254 IV;
#X text 18 269 V;
#X text 13 282 vi;
#X text 13 299 vii;
#X obj 74 195 vradio 15 1 0 8 empty empty empty 0 -8 0 10 -262144 -1
-1 0;
#X obj 180 195 vradio 15 1 0 8 empty empty empty 0 -8 0 10 -262144
-1 -1 0;
#X obj 271 196 vradio 15 1 0 8 empty empty empty 0 -8 0 10 -262144
-1 -1 0;
#X obj 365 197 vradio 15 1 0 8 empty empty empty 0 -8 0 10 -262144
-1 -1 0;
#X msg 604 10 0;
#X obj 474 151 bng 15 250 50 0 empty empty empty 17 7 0 10 -262144
-1 -1;
#X text 429 149 reset;
#X msg 99 403 0;
#X msg 197 400 4;
#X obj 53 683 tabwrite chordroot_sequence;
#X obj 79 364 t f b;
#X obj 178 362 t f b;
#X obj 279 361 t f b;
#X obj 381 359 t f b;
#X msg 302 397 8;
#X msg 399 400 12;
#X text 149 120 Chord player;
#X obj 744 131 + 1;
#X obj 749 95 hradio 15 1 0 8 empty empty empty 0 -8 0 10 -262144 -1
-1 0;
#X obj 741 168 s blockchord_sample_number;
#X text 34 9 Block chord array data is in the form of 0 for no chord
change? What does it mean to have no chord at a particular place? No
block chord to be played on that beat. That's actually quite important.
;
#X msg 746 236 1;
#X msg 747 264 2;
#X msg 749 289 3;
#X msg 749 314 4;
#X msg 750 340 5;
#X msg 749 367 6;
#X msg 749 396 7;
#X obj 840 335 s chord;
#X obj 521 553 r edit_start_pulse;
#X obj 483 589 +;
#X obj 75 148 tgl 15 0 empty empty empty 17 7 0 10 -262144 -1 -1 0
1;
#X obj 75 170 tgl 15 0 empty empty empty 17 7 0 10 -262144 -1 -1 0
1;
#X text 49 146 #3;
#X text 49 168 b7;
#X obj 36 400 t f b;
#X obj 317 682 tabwrite chord7thmodified_sequence;
#X obj 290 600 select 1;
#X msg 314 638 -1;
#X obj 573 623 select 1;
#X obj 600 705 tabwrite chord3rdmodified_sequence;
#X obj 27 363 t f b;
#X obj 367 151 tgl 15 0 empty empty empty 17 7 0 10 -262144 -1 -1 0
1;
#X obj 366 174 tgl 15 0 empty empty empty 17 7 0 10 -262144 -1 -1 0
1;
#X obj 271 149 tgl 15 0 empty empty empty 17 7 0 10 -262144 -1 -1 0
1;
#X obj 271 171 tgl 15 0 empty empty empty 17 7 0 10 -262144 -1 -1 0
1;
#X obj 180 147 tgl 15 0 empty empty empty 17 7 0 10 -262144 -1 -1 0
1;
#X obj 180 170 tgl 15 0 empty empty empty 17 7 0 10 -262144 -1 -1 0
1;
#X obj 140 401 t f b;
#X obj 127 362 t f b;
#X obj 244 398 t f b;
#X obj 228 363 t f b;
#X obj 344 397 t f b;
#X obj 335 360 t f b;
#X msg 597 661 1;
#X connect 8 0 18 0;
#X connect 9 0 19 0;
#X connect 10 0 20 0;
#X connect 11 0 21 0;
#X connect 12 0 8 0;
#X connect 12 0 9 0;
#X connect 12 0 10 0;
#X connect 12 0 11 0;
#X connect 13 0 12 0;
#X connect 15 0 38 0;
#X connect 16 0 38 0;
#X connect 18 0 17 0;
#X connect 18 1 15 0;
#X connect 19 0 17 0;
#X connect 19 1 16 0;
#X connect 20 0 17 0;
#X connect 20 1 22 0;
#X connect 21 0 17 0;
#X connect 21 1 23 0;
#X connect 22 0 38 0;
#X connect 23 0 38 0;
#X connect 25 0 27 0;
#X connect 26 0 25 0;
#X connect 29 0 36 0;
#X connect 30 0 36 0;
#X connect 31 0 36 0;
#X connect 32 0 36 0;
#X connect 33 0 36 0;
#X connect 34 0 36 0;
#X connect 35 0 36 0;
#X connect 37 0 38 1;
#X connect 38 0 17 1;
#X connect 38 0 44 1;
#X connect 38 0 48 1;
#X connect 39 0 49 0;
#X connect 40 0 43 0;
#X connect 43 0 45 0;
#X connect 43 1 15 0;
#X connect 45 0 46 0;
#X connect 45 1 44 0;
#X connect 46 0 44 0;
#X connect 47 0 62 0;
#X connect 47 1 48 0;
#X connect 49 0 47 0;
#X connect 49 1 15 0;
#X connect 50 0 61 0;
#X connect 51 0 60 0;
#X connect 52 0 59 0;
#X connect 53 0 58 0;
#X connect 54 0 57 0;
#X connect 55 0 56 0;
#X connect 56 0 45 0;
#X connect 56 1 16 0;
#X connect 57 0 47 0;
#X connect 57 1 16 0;
#X connect 58 0 45 0;
#X connect 58 1 22 0;
#X connect 59 0 47 0;
#X connect 59 1 22 0;
#X connect 60 0 45 0;
#X connect 60 1 23 0;
#X connect 61 0 47 0;
#X connect 61 1 23 0;
#X connect 62 0 48 0;
#X coords 0 -1 1 1 500 200 1 0 120;
#X restore 215 225 pd chordprog_gui;
#N canvas 1663 82 1007 840 reset_arrays 0;
#X obj 44 -29 inlet;
#X msg 52 371 \; blockchord_8ve_sequence 0 0 0 0 0 0 0 0 0 0 0 0 0
0 0 0 0;
#X msg 22 309 \; chordroot_sequence 0 0 0 0 0 0 0 0 0 0 0 0 0 0 0 0
0;
#X msg 20 14 \; lead_sequence 0 0 0 0 0 0 0 0 0 0 0 0 0 0 0 0 0;
#X msg 34 59 \; lead_sequence_2 0 0 0 0 0 0 0 0 0 0 0 0 0 0 0 0 0;
#X msg 64 154 \; arpeggio_sequence_2 0 0 0 0 0 0 0 0 0 0 0 0 0 0 0
0 0;
#X msg 53 107 \; arpeggio_sequence_1 0 0 0 0 0 0 0 0 0 0 0 0 0 0 0
0 0;
#X msg 21 210 \; arpeggio_sequence_3 0 0 0 0 0 0 0 0 0 0 0 0 0 0 0
0 0;
#X msg 34 253 \; arpeggio_sequence_4 0 0 0 0 0 0 0 0 0 0 0 0 0 0 0
0 0;
#X msg 64 418 \; arpseq1_8ve_seq 0 0 0 0 0 0 0 0 0 0 0 0 0 0 0 0 0
;
#X msg 80 467 \; arpseq2_8ve_seq 0 0 0 0 0 0 0 0 0 0 0 0 0 0 0 0 0
;
#X msg 93 520 \; arpseq3_8ve_seq 0 0 0 0 0 0 0 0 0 0 0 0 0 0 0 0 0
;
#X msg 113 570 \; arpseq4_8ve_seq 0 0 0 0 0 0 0 0 0 0 0 0 0 0 0 0 0
;
#X msg 524 530 \; dr1_sequence 0 0 0 0 0 0 0 0 0 0 0 0 0 0 0 0 0;
#X msg 521 595 \; dr2_sequence 0 0 0 0 0 0 0 0 0 0 0 0 0 0 0 0 0;
#X msg 533 647 \; dr3_sequence 0 0 0 0 0 0 0 0 0 0 0 0 0 0 0 0 0;
#X msg 546 709 \; dr4_sequence 0 0 0 0 0 0 0 0 0 0 0 0 0 0 0 0 0;
#X connect 0 0 3 0;
#X connect 0 0 4 0;
#X connect 0 0 6 0;
#X connect 0 0 5 0;
#X connect 0 0 7 0;
#X connect 0 0 8 0;
#X connect 0 0 2 0;
#X connect 0 0 1 0;
#X connect 0 0 9 0;
#X connect 0 0 10 0;
#X connect 0 0 11 0;
#X connect 0 0 12 0;
#X connect 0 0 13 0;
#X connect 0 0 14 0;
#X connect 0 0 15 0;
#X connect 0 0 16 0;
#X restore 1270 -343 pd reset_arrays;
#X obj 1270 -369 bng 15 250 50 0 empty empty empty 17 7 0 10 -262144
-1 -1;
#X text 1166 -294 Get it all going!;
#N canvas 0 93 1425 818 drum_gui 0;
#X obj 7 20 tgl 15 0 drumplayer_on empty empty 17 7 0 10 -262144 -1
-1 1 1;
#X obj 25 60 tgl 15 0 empty empty empty 17 7 0 10 -262144 -1 -1 0 1
;
#X obj 6 60 tgl 15 0 empty empty empty 17 7 0 10 -262144 -1 -1 0 1
;
#X obj 44 60 tgl 15 0 empty empty empty 17 7 0 10 -262144 -1 -1 0 1
;
#X obj 62 60 tgl 15 0 empty empty empty 17 7 0 10 -262144 -1 -1 0 1
;
#X obj 100 60 tgl 15 0 empty empty empty 17 7 0 10 -262144 -1 -1 0
1;
#X obj 81 60 tgl 15 0 empty empty empty 17 7 0 10 -262144 -1 -1 0 1
;
#X obj 120 60 tgl 15 0 empty empty empty 17 7 0 10 -262144 -1 -1 0
1;
#X obj 138 60 tgl 15 0 empty empty empty 17 7 0 10 -262144 -1 -1 0
1;
#X obj 176 60 tgl 15 0 empty empty empty 17 7 0 10 -262144 -1 -1 0
1;
#X obj 157 60 tgl 15 0 empty empty empty 17 7 0 10 -262144 -1 -1 0
1;
#X obj 195 60 tgl 15 0 empty empty empty 17 7 0 10 -262144 -1 -1 0
1;
#X obj 213 60 tgl 15 0 empty empty empty 17 7 0 10 -262144 -1 -1 0
1;
#X obj 251 60 tgl 15 0 empty empty empty 17 7 0 10 -262144 -1 -1 0
1;
#X obj 232 60 tgl 15 0 empty empty empty 17 7 0 10 -262144 -1 -1 0
1;
#X obj 270 60 tgl 15 0 empty empty empty 17 7 0 10 -262144 -1 -1 0
1;
#X obj 288 60 tgl 15 0 empty empty empty 17 7 0 10 -262144 -1 -1 0
1;
#X text 24 19 Drum player;
#X obj 180 -211 tabwrite dr1_sequence;
#X obj 389 -213 tabwrite dr2_sequence;
#X obj 610 -212 tabwrite dr3_sequence;
#X obj 830 -217 tabwrite dr4_sequence;
#X obj 562 -357 +;
#X obj 675 -370 r edit_start_pulse;
#X obj 284 -621 t f f;
#X obj 283 -592 t f f;
#X obj 278 -563 t f f;
#X obj 277 -535 t f f;
#X obj 215 -620 t f f;
#X obj 213 -590 t f f;
#X obj 217 -563 t f f;
#X obj 213 -535 t f f;
#X obj 152 -621 t f f;
#X obj 152 -592 t f f;
#X obj 151 -562 t f f;
#X obj 151 -536 t f f;
#X obj 90 -619 t f f;
#X obj 89 -594 t f f;
#X obj 87 -566 t f f;
#X obj 91 -539 t f f;
#X msg 573 -497 0;
#X msg 566 -464 1;
#X msg 558 -440 2;
#X msg 553 -415 3;
#X msg 650 -482 4;
#X msg 645 -460 5;
#X msg 637 -436 6;
#X msg 633 -410 7;
#X msg 755 -487 8;
#X msg 750 -462 9;
#X msg 742 -438 10;
#X msg 737 -413 11;
#X msg 849 -473 12;
#X msg 837 -450 13;
#X msg 829 -425 14;
#X msg 824 -398 15;
#X obj 25 81 tgl 15 0 empty empty empty 17 7 0 10 -262144 -1 -1 0 1
;
#X obj 6 81 tgl 15 0 empty empty empty 17 7 0 10 -262144 -1 -1 0 1
;
#X obj 44 81 tgl 15 0 empty empty empty 17 7 0 10 -262144 -1 -1 0 1
;
#X obj 62 81 tgl 15 0 empty empty empty 17 7 0 10 -262144 -1 -1 0 1
;
#X obj 100 81 tgl 15 0 empty empty empty 17 7 0 10 -262144 -1 -1 0
1;
#X obj 81 81 tgl 15 0 empty empty empty 17 7 0 10 -262144 -1 -1 0 1
;
#X obj 118 81 tgl 15 0 empty empty empty 17 7 0 10 -262144 -1 -1 0
1;
#X obj 136 81 tgl 15 0 empty empty empty 17 7 0 10 -262144 -1 -1 0
1;
#X obj 176 81 tgl 15 0 empty empty empty 17 7 0 10 -262144 -1 -1 0
1;
#X obj 157 81 tgl 15 0 empty empty empty 17 7 0 10 -262144 -1 -1 0
1;
#X obj 196 81 tgl 15 0 empty empty empty 17 7 0 10 -262144 -1 -1 0
1;
#X obj 211 81 tgl 15 0 empty empty empty 17 7 0 10 -262144 -1 -1 0
1;
#X obj 251 81 tgl 15 0 empty empty empty 17 7 0 10 -262144 -1 -1 0
1;
#X obj 232 81 tgl 15 0 empty empty empty 17 7 0 10 -262144 -1 -1 0
1;
#X obj 270 80 tgl 15 0 empty empty empty 17 7 0 10 -262144 -1 -1 0
1;
#X obj 288 81 tgl 15 0 empty empty empty 17 7 0 10 -262144 -1 -1 0
1;
#X obj 626 -607 t f f;
#X obj 627 -581 t f f;
#X obj 628 -557 t f f;
#X obj 629 -533 t f f;
#X obj 580 -608 t f f;
#X obj 579 -582 t f f;
#X obj 577 -559 t f f;
#X obj 580 -535 t f f;
#X obj 528 -609 t f f;
#X obj 526 -582 t f f;
#X obj 524 -557 t f f;
#X obj 524 -534 t f f;
#X obj 474 -609 t f f;
#X obj 474 -586 t f f;
#X obj 472 -560 t f f;
#X obj 471 -534 t f f;
#X obj 25 102 tgl 15 0 empty empty empty 17 7 0 10 -262144 -1 -1 0
1;
#X obj 6 102 tgl 15 0 empty empty empty 17 7 0 10 -262144 -1 -1 0 1
;
#X obj 43 101 tgl 15 0 empty empty empty 17 7 0 10 -262144 -1 -1 0
1;
#X obj 62 101 tgl 15 0 empty empty empty 17 7 0 10 -262144 -1 -1 0
1;
#X obj 100 102 tgl 15 0 empty empty empty 17 7 0 10 -262144 -1 -1 0
1;
#X obj 81 102 tgl 15 0 empty empty empty 17 7 0 10 -262144 -1 -1 0
1;
#X obj 138 102 tgl 15 0 empty empty empty 17 7 0 10 -262144 -1 -1 0
1;
#X obj 119 102 tgl 15 0 empty empty empty 17 7 0 10 -262144 -1 -1 0
1;
#X obj 176 102 tgl 15 0 empty empty empty 17 7 0 10 -262144 -1 -1 0
1;
#X obj 157 102 tgl 15 0 empty empty empty 17 7 0 10 -262144 -1 -1 0
1;
#X obj 193 102 tgl 15 0 empty empty empty 17 7 0 10 -262144 -1 -1 0
1;
#X obj 211 102 tgl 15 0 empty empty empty 17 7 0 10 -262144 -1 -1 0
1;
#X obj 251 102 tgl 15 0 empty empty empty 17 7 0 10 -262144 -1 -1 0
1;
#X obj 232 102 tgl 15 0 empty empty empty 17 7 0 10 -262144 -1 -1 0
1;
#X obj 288 102 tgl 15 0 empty empty empty 17 7 0 10 -262144 -1 -1 0
1;
#X obj 268 102 tgl 15 0 empty empty empty 17 7 0 10 -262144 -1 -1 0
1;
#X obj 939 -603 t f f;
#X obj 940 -577 t f f;
#X obj 941 -553 t f f;
#X obj 942 -529 t f f;
#X obj 893 -604 t f f;
#X obj 892 -578 t f f;
#X obj 890 -555 t f f;
#X obj 893 -531 t f f;
#X obj 841 -605 t f f;
#X obj 839 -578 t f f;
#X obj 837 -553 t f f;
#X obj 837 -530 t f f;
#X obj 787 -605 t f f;
#X obj 787 -582 t f f;
#X obj 785 -556 t f f;
#X obj 784 -530 t f f;
#X obj 25 123 tgl 15 0 empty empty empty 17 7 0 10 -262144 -1 -1 0
1;
#X obj 6 123 tgl 15 0 empty empty empty 17 7 0 10 -262144 -1 -1 0 1
;
#X obj 44 123 tgl 15 0 empty empty empty 17 7 0 10 -262144 -1 -1 0
1;
#X obj 63 123 tgl 15 0 empty empty empty 17 7 0 10 -262144 -1 -1 0
1;
#X obj 100 123 tgl 15 0 empty empty empty 17 7 0 10 -262144 -1 -1 0
1;
#X obj 81 123 tgl 15 0 empty empty empty 17 7 0 10 -262144 -1 -1 0
1;
#X obj 119 123 tgl 15 0 empty empty empty 17 7 0 10 -262144 -1 -1 0
1;
#X obj 137 123 tgl 15 0 empty empty empty 17 7 0 10 -262144 -1 -1 0
1;
#X obj 176 123 tgl 15 0 empty empty empty 17 7 0 10 -262144 -1 -1 0
1;
#X obj 157 123 tgl 15 0 empty empty empty 17 7 0 10 -262144 -1 -1 0
1;
#X obj 194 123 tgl 15 0 empty empty empty 17 7 0 10 -262144 -1 -1 0
1;
#X obj 213 123 tgl 15 0 empty empty empty 17 7 0 10 -262144 -1 -1 0
1;
#X obj 251 123 tgl 15 0 empty empty empty 17 7 0 10 -262144 -1 -1 0
1;
#X obj 232 123 tgl 15 0 empty empty empty 17 7 0 10 -262144 -1 -1 0
1;
#X obj 268 123 tgl 15 0 empty empty empty 17 7 0 10 -262144 -1 -1 0
1;
#X obj 288 123 tgl 15 0 empty empty empty 17 7 0 10 -262144 -1 -1 0
1;
#X obj 1263 -600 t f f;
#X obj 1264 -574 t f f;
#X obj 1265 -550 t f f;
#X obj 1266 -526 t f f;
#X obj 1217 -601 t f f;
#X obj 1216 -575 t f f;
#X obj 1214 -552 t f f;
#X obj 1217 -528 t f f;
#X obj 1165 -602 t f f;
#X obj 1163 -575 t f f;
#X obj 1161 -550 t f f;
#X obj 1161 -524 t f f;
#X obj 1111 -602 t f f;
#X obj 1111 -579 t f f;
#X obj 1109 -553 t f f;
#X obj 1108 -527 t f f;
#X connect 1 0 37 0;
#X connect 2 0 36 0;
#X connect 3 0 38 0;
#X connect 4 0 39 0;
#X connect 5 0 33 0;
#X connect 6 0 32 0;
#X connect 7 0 34 0;
#X connect 8 0 35 0;
#X connect 9 0 29 0;
#X connect 10 0 28 0;
#X connect 11 0 30 0;
#X connect 12 0 31 0;
#X connect 13 0 25 0;
#X connect 14 0 24 0;
#X connect 15 0 26 0;
#X connect 16 0 27 0;
#X connect 22 0 21 1;
#X connect 22 0 20 1;
#X connect 22 0 19 1;
#X connect 22 0 18 1;
#X connect 23 0 22 1;
#X connect 24 0 18 0;
#X connect 24 1 52 0;
#X connect 25 0 18 0;
#X connect 25 1 53 0;
#X connect 26 0 18 0;
#X connect 26 1 54 0;
#X connect 27 0 18 0;
#X connect 27 1 55 0;
#X connect 28 0 18 0;
#X connect 28 1 48 0;
#X connect 29 0 18 0;
#X connect 29 1 49 0;
#X connect 30 0 18 0;
#X connect 30 1 50 0;
#X connect 31 0 18 0;
#X connect 31 1 51 0;
#X connect 32 0 18 0;
#X connect 32 1 44 0;
#X connect 33 0 18 0;
#X connect 33 1 45 0;
#X connect 34 0 18 0;
#X connect 34 1 46 0;
#X connect 35 0 18 0;
#X connect 35 1 47 0;
#X connect 36 0 18 0;
#X connect 36 1 40 0;
#X connect 37 0 18 0;
#X connect 37 1 41 0;
#X connect 38 0 18 0;
#X connect 38 1 42 0;
#X connect 39 0 18 0;
#X connect 39 1 43 0;
#X connect 40 0 22 0;
#X connect 41 0 22 0;
#X connect 42 0 22 0;
#X connect 43 0 22 0;
#X connect 44 0 22 0;
#X connect 45 0 22 0;
#X connect 46 0 22 0;
#X connect 47 0 22 0;
#X connect 48 0 22 0;
#X connect 49 0 22 0;
#X connect 50 0 22 0;
#X connect 51 0 22 0;
#X connect 52 0 22 0;
#X connect 53 0 22 0;
#X connect 54 0 22 0;
#X connect 55 0 22 0;
#X connect 56 0 85 0;
#X connect 57 0 84 0;
#X connect 58 0 86 0;
#X connect 59 0 87 0;
#X connect 60 0 81 0;
#X connect 61 0 80 0;
#X connect 62 0 82 0;
#X connect 63 0 83 0;
#X connect 64 0 77 0;
#X connect 65 0 76 0;
#X connect 66 0 78 0;
#X connect 67 0 79 0;
#X connect 68 0 73 0;
#X connect 69 0 72 0;
#X connect 70 0 74 0;
#X connect 71 0 75 0;
#X connect 72 0 19 0;
#X connect 72 1 52 0;
#X connect 73 0 19 0;
#X connect 73 1 53 0;
#X connect 74 0 19 0;
#X connect 74 1 54 0;
#X connect 75 0 19 0;
#X connect 75 1 55 0;
#X connect 76 0 19 0;
#X connect 76 1 48 0;
#X connect 77 0 19 0;
#X connect 77 1 49 0;
#X connect 78 0 19 0;
#X connect 78 1 50 0;
#X connect 79 0 19 0;
#X connect 79 1 51 0;
#X connect 80 0 19 0;
#X connect 80 1 44 0;
#X connect 81 0 19 0;
#X connect 81 1 45 0;
#X connect 82 0 19 0;
#X connect 82 1 46 0;
#X connect 83 0 19 0;
#X connect 83 1 47 0;
#X connect 84 0 19 0;
#X connect 84 1 40 0;
#X connect 85 0 19 0;
#X connect 85 1 41 0;
#X connect 86 0 19 0;
#X connect 86 1 42 0;
#X connect 87 0 19 0;
#X connect 87 1 43 0;
#X connect 88 0 117 0;
#X connect 89 0 116 0;
#X connect 90 0 118 0;
#X connect 91 0 119 0;
#X connect 92 0 113 0;
#X connect 93 0 112 0;
#X connect 94 0 114 0;
#X connect 95 0 115 0;
#X connect 96 0 109 0;
#X connect 97 0 108 0;
#X connect 98 0 110 0;
#X connect 99 0 111 0;
#X connect 100 0 105 0;
#X connect 101 0 104 0;
#X connect 102 0 106 0;
#X connect 103 0 107 0;
#X connect 104 0 20 0;
#X connect 104 1 52 0;
#X connect 105 0 20 0;
#X connect 105 1 53 0;
#X connect 106 0 20 0;
#X connect 106 1 54 0;
#X connect 107 0 20 0;
#X connect 107 1 55 0;
#X connect 108 0 20 0;
#X connect 108 1 48 0;
#X connect 109 0 20 0;
#X connect 109 1 49 0;
#X connect 110 0 20 0;
#X connect 110 1 50 0;
#X connect 111 0 20 0;
#X connect 111 1 51 0;
#X connect 112 0 20 0;
#X connect 112 1 44 0;
#X connect 113 0 20 0;
#X connect 113 1 45 0;
#X connect 114 0 20 0;
#X connect 114 1 46 0;
#X connect 115 0 20 0;
#X connect 115 1 47 0;
#X connect 116 0 20 0;
#X connect 116 1 40 0;
#X connect 117 0 20 0;
#X connect 117 1 41 0;
#X connect 118 0 20 0;
#X connect 118 1 42 0;
#X connect 119 0 20 0;
#X connect 119 1 43 0;
#X connect 120 0 149 0;
#X connect 121 0 148 0;
#X connect 122 0 150 0;
#X connect 123 0 151 0;
#X connect 124 0 145 0;
#X connect 125 0 144 0;
#X connect 126 0 146 0;
#X connect 127 0 147 0;
#X connect 128 0 141 0;
#X connect 129 0 140 0;
#X connect 130 0 142 0;
#X connect 131 0 143 0;
#X connect 132 0 137 0;
#X connect 133 0 136 0;
#X connect 134 0 138 0;
#X connect 135 0 139 0;
#X connect 136 0 21 0;
#X connect 136 1 52 0;
#X connect 137 0 21 0;
#X connect 137 1 53 0;
#X connect 138 0 21 0;
#X connect 138 1 54 0;
#X connect 139 0 21 0;
#X connect 139 1 55 0;
#X connect 140 0 21 0;
#X connect 140 1 48 0;
#X connect 141 0 21 0;
#X connect 141 1 49 0;
#X connect 142 0 21 0;
#X connect 142 1 50 0;
#X connect 143 0 21 0;
#X connect 143 1 51 0;
#X connect 144 0 21 0;
#X connect 144 1 44 0;
#X connect 145 0 21 0;
#X connect 145 1 45 0;
#X connect 146 0 21 0;
#X connect 146 1 46 0;
#X connect 147 0 21 0;
#X connect 147 1 47 0;
#X connect 148 0 21 0;
#X connect 148 1 40 0;
#X connect 149 0 21 0;
#X connect 149 1 41 0;
#X connect 150 0 21 0;
#X connect 150 1 42 0;
#X connect 151 0 21 0;
#X connect 151 1 43 0;
#X coords 0 -1 1 1 320 200 1 0 0;
#X restore 720 225 pd drum_gui;
#N canvas 1494 120 809 837 bass_gui 0;
#X obj 29 163 vradio 15 1 0 7 empty empty empty 0 -8 0 10 -262144 -1
-1 0;
#X obj 49 163 vradio 15 1 0 7 empty empty empty 0 -8 0 10 -262144 -1
-1 0;
#X obj 71 164 vradio 15 1 0 7 empty empty empty 0 -8 0 10 -262144 -1
-1 0;
#X obj 94 164 vradio 15 1 0 7 empty empty empty 0 -8 0 10 -262144 -1
-1 0;
#X obj 26 386 t f b;
#X obj 39 357 t f b;
#X msg 73 501 0;
#X msg 75 398 1;
#X obj 50 336 t f b;
#X obj 66 315 t f b;
#X msg 88 372 2;
#X msg 95 344 3;
#X obj 131 163 vradio 15 1 0 7 empty empty empty 0 -8 0 10 -262144
-1 -1 0;
#X obj 151 165 vradio 15 1 0 7 empty empty empty 0 -8 0 10 -262144
-1 -1 0;
#X obj 172 164 vradio 15 1 0 7 empty empty empty 0 -8 0 10 -262144
-1 -1 0;
#X obj 191 164 vradio 15 1 0 7 empty empty empty 0 -8 0 10 -262144
-1 -1 0;
#X obj 131 387 t f b;
#X obj 149 360 t f b;
#X obj 160 339 t f b;
#X obj 179 313 t f b;
#X obj 221 165 vradio 15 1 0 7 empty empty empty 0 -8 0 10 -262144
-1 -1 0;
#X obj 241 165 vradio 15 1 0 7 empty empty empty 0 -8 0 10 -262144
-1 -1 0;
#X obj 262 166 vradio 15 1 0 7 empty empty empty 0 -8 0 10 -262144
-1 -1 0;
#X obj 284 167 vradio 15 1 0 7 empty empty empty 0 -8 0 10 -262144
-1 -1 0;
#X obj 253 389 t f b;
#X obj 271 362 t f b;
#X obj 282 341 t f b;
#X obj 298 320 t f b;
#X obj 313 169 vradio 15 1 0 7 empty empty empty 0 -8 0 10 -262144
-1 -1 0;
#X obj 333 169 vradio 15 1 0 7 empty empty empty 0 -8 0 10 -262144
-1 -1 0;
#X obj 354 170 vradio 15 1 0 7 empty empty empty 0 -8 0 10 -262144
-1 -1 0;
#X obj 404 156 vradio 15 1 0 8 empty empty empty 0 -8 0 10 -262144
-1 -1 0;
#X obj 364 397 t f b;
#X obj 384 370 t f b;
#X obj 405 346 t f b;
#X obj 424 321 t f b;
#X msg 172 427 4;
#X msg 187 403 5;
#X msg 198 376 6;
#X msg 209 346 7;
#X msg 296 430 8;
#X msg 307 403 9;
#X msg 320 377 10;
#X msg 329 349 11;
#X msg 400 423 12;
#X msg 419 397 13;
#X msg 437 371 14;
#X msg 458 344 15;
#X obj 376 171 vradio 15 1 0 7 empty empty empty 0 -8 0 10 -262144
-1 -1 0;
#X obj 150 570 +;
#X text 361 131 8ve adjust;
#X obj 242 572 t f;
#X obj 132 746 tabwrite lead_sequence_2;
#X msg 365 100 0;
#X obj 359 68 bng 15 250 50 0 empty empty empty 17 7 0 10 -262144 -1
-1;
#X text 375 67 reset;
#X obj 19 23 tgl 15 0 bassplayer_on empty empty 17 7 0 10 -262144 -1
-1 0 1;
#X obj 186 26 hradio 15 1 0 8 empty empty empty 0 -8 0 10 -262144 -1
-1 0;
#X obj 185 88 s lead_sample_number;
#X obj 186 55 + 1;
#X obj 29 143 bng 15 250 50 0 empty empty empty 17 7 0 10 -257985 -1
-1;
#X obj 23 480 t f b;
#X msg 15 453 0;
#X obj 215 653 + 1;
#X obj 412 288 * 7, f 4;
#X obj 309 617 +;
#X floatatom 366 659 5 0 0 0 - - -, f 5;
#X obj 422 569 r edit_start_pulse;
#X text 37 24 Bass player;
#X connect 0 0 4 0;
#X connect 1 0 5 0;
#X connect 2 0 8 0;
#X connect 3 0 9 0;
#X connect 4 0 49 0;
#X connect 4 1 6 0;
#X connect 5 0 49 0;
#X connect 5 1 7 0;
#X connect 6 0 51 0;
#X connect 7 0 51 0;
#X connect 8 0 49 0;
#X connect 8 1 10 0;
#X connect 9 0 49 0;
#X connect 9 1 11 0;
#X connect 10 0 51 0;
#X connect 11 0 51 0;
#X connect 12 0 16 0;
#X connect 13 0 17 0;
#X connect 14 0 18 0;
#X connect 15 0 19 0;
#X connect 16 0 49 0;
#X connect 16 1 36 0;
#X connect 17 0 49 0;
#X connect 17 1 37 0;
#X connect 18 0 49 0;
#X connect 18 1 38 0;
#X connect 19 0 49 0;
#X connect 19 1 39 0;
#X connect 20 0 24 0;
#X connect 21 0 25 0;
#X connect 22 0 26 0;
#X connect 23 0 27 0;
#X connect 24 0 49 0;
#X connect 24 1 40 0;
#X connect 25 0 49 0;
#X connect 25 1 41 0;
#X connect 26 0 49 0;
#X connect 26 1 42 0;
#X connect 27 0 49 0;
#X connect 27 1 43 0;
#X connect 28 0 32 0;
#X connect 29 0 33 0;
#X connect 30 0 34 0;
#X connect 31 0 64 0;
#X connect 32 0 49 0;
#X connect 32 1 44 0;
#X connect 33 0 49 0;
#X connect 33 1 45 0;
#X connect 34 0 49 0;
#X connect 34 1 46 0;
#X connect 35 0 49 0;
#X connect 35 1 47 0;
#X connect 36 0 51 0;
#X connect 37 0 51 0;
#X connect 38 0 51 0;
#X connect 39 0 51 0;
#X connect 40 0 51 0;
#X connect 41 0 51 0;
#X connect 42 0 51 0;
#X connect 43 0 51 0;
#X connect 44 0 51 0;
#X connect 45 0 51 0;
#X connect 46 0 51 0;
#X connect 47 0 51 0;
#X connect 48 0 35 0;
#X connect 49 0 63 0;
#X connect 51 0 65 0;
#X connect 53 0 48 0;
#X connect 53 0 30 0;
#X connect 53 0 29 0;
#X connect 53 0 28 0;
#X connect 53 0 23 0;
#X connect 53 0 22 0;
#X connect 53 0 21 0;
#X connect 53 0 20 0;
#X connect 53 0 15 0;
#X connect 53 0 14 0;
#X connect 53 0 13 0;
#X connect 53 0 12 0;
#X connect 53 0 3 0;
#X connect 53 0 2 0;
#X connect 53 0 1 0;
#X connect 53 0 0 0;
#X connect 54 0 53 0;
#X connect 57 0 59 0;
#X connect 59 0 58 0;
#X connect 60 0 62 0;
#X connect 61 0 52 0;
#X connect 61 1 6 0;
#X connect 62 0 61 0;
#X connect 63 0 52 0;
#X connect 64 0 49 1;
#X connect 65 0 52 1;
#X connect 65 0 66 0;
#X connect 67 0 65 1;
#X coords 0 -1 1 1 450 300 1 0 0;
#X restore 476 -80 pd bass_gui;
#N canvas 1953 82 949 722 save_and_open 0;
#X obj 204 120 bng 15 250 50 0 empty empty empty 0 -6 0 8 -262144 -1
-1;
#X obj 204 158 savepanel;
#X msg 201 424 \; array99 write \$1;
#X obj 196 338 print x1;
#X msg 273 217 2;
#X obj 195 264 pack s f;
#X msg 410 401 \; lead_sequence write \$1;
#X obj 398 254 bng 15 250 50 0 empty empty empty 17 7 0 10 -262144
-1 -1;
#X msg 94 542 \; array99 read 15.file.txt;
#X obj 388 313 symbol test_examples/4_bar_blues/text2.txt;
#X msg 477 538 \; lead_sequence_2 read test_examples/4_bar_blues/text2.txt
;
#X msg 625 129 doowop;
#X obj 622 236 print x1;
#X obj 631 184 symbol \$0hoo;
#X obj 401 114 makefilename;
#X connect 0 0 1 0;
#X connect 1 0 5 0;
#X connect 4 0 5 1;
#X connect 5 0 3 0;
#X connect 7 0 9 0;
#X connect 9 0 6 0;
#X connect 11 0 13 0;
#X connect 13 0 12 0;
#X restore 1061 243 pd save_and_open;
#N canvas 2047 162 689 652 random_filler 0;
#X obj 140 37 bng 15 250 50 0 empty empty empty 17 7 0 10 -262144 -1
-1;
#X floatatom 92 181 5 0 0 0 - - -, f 5;
#X obj 155 94 random 8;
#X obj 161 207 moses 5;
#X obj 131 327 bng 15 250 50 0 empty empty empty 17 7 0 10 -262144
-1 -1;
#X obj 132 363 until;
#X obj 132 407 int;
#X obj 198 411 + 1;
#X obj 213 444 select 4;
#X floatatom 127 458 5 0 0 0 - - -, f 5;
#X connect 0 0 2 0;
#X connect 2 0 1 0;
#X connect 2 0 3 0;
#X connect 4 0 5 0;
#X connect 6 0 7 0;
#X connect 6 0 9 0;
#X connect 7 0 6 1;
#X connect 7 0 8 0;
#X connect 8 0 5 1;
#X restore 1072 313 pd random_filler;
#X obj 953 -374 loadbang;
#X msg 1027 -374 \; density 4 \; num_beats 4 \; num_bars 1 \; tempo
112 \; init_samples bang \; master_vol 82 \; drum_vol 100 \; drumplayer_on
1 \; metro_on 1;
#X msg 1019 -166 \; dr1_sequence 1 0 0 0 1 0 0 0 1 0 0 0 1 0 0 0 \;
dr2_sequence 0 0 0 0 1 0 0 0 0 0 1 0 1 0 0 0 \; dr3_sequence 0 0 1
0 1 0 0 1 1 0 0 1 0 1 0 1 \; dr4_sequence 0 1 0 0 0 1 0 0 0 0 1 0 0
1 1 0;
#X obj 974 -265 t b b;
#X obj 1082 -199 print loadbang;
#X connect 5 0 4 0;
#X connect 11 0 14 0;
#X connect 12 0 15 0;
#X connect 14 0 13 0;
#X connect 14 1 12 0;
#X coords 0 846 1 845 1400 280 0;
#X restore 634 -4 pd gui;
#N canvas 1742 87 960 818 leadplayer 0;
#X obj 184 21 inlet;
#X obj 34 101 tabread lead_sequence;
#X floatatom 83 501 5 0 0 0 - - -, f 5;
#X floatatom 55 658 5 0 0 0 - - -, f 5;
#X obj 30 297 - 1;
#X obj 72 458 moses 0;
#X obj 95 739 + 12;
#X obj 100 907 s note 60 90 150 2 0;
#X floatatom 527 545 5 0 0 0 - - -, f 5;
#X text 563 524 amplitude;
#X text 565 567 sample number;
#X text 565 544 duration (msec);
#X text 566 590 start location (msec);
#X text 565 611 rise time (msec);
#X text 567 631 decay time (msec);
#X floatatom 527 524 5 0 0 0 - - -, f 5;
#X floatatom 529 567 5 0 0 0 - - -, f 5;
#X floatatom 530 590 5 0 0 0 - - -, f 5;
#X floatatom 531 611 5 0 0 0 - - -, f 5;
#X floatatom 531 633 5 0 0 0 - - -, f 5;
#X obj 98 813 pack 60 90 150 1 0 10 10;
#X obj 88 602 tabread scale;
#X obj 694 553 r lead_sample_number;
#X obj 281 22 r lead_vol;
#X floatatom 314 63 5 0 0 0 - - -, f 5;
#X obj 89 147 t f b;
#X obj 123 189 f 60;
#X obj 72 413 +;
#X obj 119 55 t f f;
#X obj 197 604 tabread lead_accidentals_sequence;
#X obj 151 660 +;
#X obj 144 532 t f f;
#X floatatom 170 707 5 0 0 0 - - -, f 5;
#X floatatom 213 636 5 0 0 0 - - -, f 5;
#X obj 152 844 tgl 15 0 empty leadplayer_on empty 17 7 0 10 -262144
-1 -1 0 1;
#X obj 98 871 spigot;
#X connect 0 0 28 0;
#X connect 1 0 25 0;
#X connect 4 0 27 0;
#X connect 5 1 2 0;
#X connect 5 1 31 0;
#X connect 6 0 20 0;
#X connect 8 0 20 2;
#X connect 15 0 20 1;
#X connect 16 0 20 3;
#X connect 17 0 20 4;
#X connect 18 0 20 5;
#X connect 19 0 20 6;
#X connect 20 0 35 0;
#X connect 21 0 3 0;
#X connect 21 0 30 0;
#X connect 22 0 16 0;
#X connect 23 0 24 0;
#X connect 24 0 26 1;
#X connect 25 0 4 0;
#X connect 25 1 26 0;
#X connect 26 0 15 0;
#X connect 27 0 5 0;
#X connect 28 0 1 0;
#X connect 28 1 29 0;
#X connect 29 0 30 1;
#X connect 29 0 33 0;
#X connect 30 0 6 0;
#X connect 30 0 32 0;
#X connect 31 0 21 0;
#X connect 34 0 35 1;
#X connect 35 0 7 0;
#X restore 853 264 pd leadplayer;
#X obj 1013 323 main_sample_synth;
#N canvas 281 82 800 818 scale_chord_arrays 0;
#N canvas 62 407 450 300 (subpatch) 0;
#X array bass_player_scale 96 float 3;
#A 0 24 26 28 29 31 33 35 36 38 40 41 43 45 47 48 50 52 53 55 57 59
60 62 64 65 67 69 71 72 74 76 77 79 81 83 84 86 88 89 91 93 95 96 98
100 101 103 105 107 108 110 112 113 115 117 119 120 122 124 125 127
129 131 132 134 136 137 139 141 143 144 146 148 149 151 153 155 156
158 160 161 163 165 167 168 170 172 173 175 177 179 180 182 184 185
189;
#X coords 0 0 96 200 200 140 1 0 0;
#X restore 422 143 graph;
#N canvas 0 50 450 278 (subpatch) 0;
#X array scale_struct 7 float 3;
#A 0 2 2 1 2 2 2 1;
#X coords 0 0 7 12 200 140 1 0 0;
#X restore -21 -30 graph;
#N canvas 0 50 450 278 (subpatch) 0;
#X array blockchordtones 48 float 3;
#A 0 189 189 189 189 189 189 189 189 189 189 189 189 189 189 189 189
189 189 189 189 189 189 189 189 189 189 189 189 189 189 189 189 189
189 189 189 189 189 189 189 189 189 189 189 189 189 189 189;
#X coords 0 0 47 200 200 140 1 0 0;
#X restore 415 -27 graph;
#N canvas 0 50 450 278 (subpatch) 0;
#X array arp2chordtones 48 float 3;
#A 0 24 28 31 35 38 41 45 48 52 55 59 62 65 69 72 76 79 83 86 89 93
96 100 103 107 110 113 117 120 124 127 131 134 137 141 144 148 151
155 158 161 165 168 172 175 179 182 24;
#X coords 0 0 47 200 200 140 1 0 0;
#X restore 198 143 graph;
#N canvas 0 50 450 278 (subpatch) 0;
#X array chordtones 48 float 3;
#A 0 31 35 38 41 45 48 52 55 59 62 65 69 72 76 79 83 86 89 93 96 100
103 107 110 113 117 120 124 127 131 134 137 141 144 148 151 155 158
161 165 168 172 175 179 182 185 189 189;
#X coords 0 0 47 200 200 140 1 0 0;
#X restore -20 319 graph;
#N canvas 0 50 450 278 (subpatch) 0;
#X array arp3chordtones 48 float 3;
#A 0 24 28 31 35 38 41 45 48 52 55 59 62 65 69 72 76 79 83 86 89 93
96 100 103 107 110 113 117 120 124 127 131 134 137 141 144 148 151
155 158 161 165 168 172 175 179 182 24;
#X coords 0 0 47 200 200 140 1 0 0;
#X restore 193 325 graph;
#N canvas 0 50 450 278 (subpatch) 0;
#X array arp4chordtones 48 float 3;
#A 0 24 28 31 35 38 41 45 48 52 55 59 62 65 69 72 76 79 83 86 89 93
96 100 103 107 110 113 117 120 124 127 131 134 137 141 144 148 151
155 158 161 165 168 172 175 179 182 24;
#X coords 0 0 47 200 200 140 1 0 0;
#X restore 192 504 graph;
#N canvas 0 50 450 278 (subpatch) 0;
#X array arp1chordtones 48 float 3;
#A 0 24 28 31 35 38 41 45 48 52 55 59 62 65 69 72 76 79 83 86 89 93
96 100 103 107 110 113 117 120 124 127 131 134 137 141 144 148 151
155 158 161 165 168 172 175 179 182 24;
#X coords 0 0 47 200 200 140 1 0 0;
#X restore 197 -29 graph;
#N canvas 65 402 450 300 (subpatch) 0;
#X array scale 96 float 3;
#A 0 24 26 28 29 31 33 35 36 38 40 41 43 45 47 48 50 52 53 55 57 59
60 62 64 65 67 69 71 72 74 76 77 79 81 83 84 86 88 89 91 93 95 96 98
100 101 103 105 107 108 110 112 113 115 117 119 120 122 124 125 127
129 131 132 134 136 137 139 141 143 144 146 148 149 151 153 155 156
158 160 161 163 165 167 168 170 172 173 175 177 179 180 182 184 185
189;
#X coords 0 0 96 200 200 140 1 0 0;
#X restore -19 141 graph;
#X restore 69 258 pd scale_chord_arrays;
#X obj 1050 400 catch~ sigL;
#X obj 1174 401 catch~ sigR;
#X text 44 -10 Semitone intervals of scale;
#X text 43 67 Which is used to write a scale from a particular tonic:
;
#N canvas 1582 107 1712 960 arpeggioplayer 0;
#X obj 55 8 inlet;
#X obj 66 835 s note 60 90 150 2 0;
#X floatatom 226 603 5 0 0 0 - - -, f 5;
#X text 262 582 amplitude;
#X text 264 625 sample number;
#X text 264 602 duration (msec);
#X text 265 648 start location (msec);
#X text 264 669 rise time (msec);
#X text 266 689 decay time (msec);
#X floatatom 226 582 5 0 0 0 - - -, f 5;
#X floatatom 228 624 5 0 0 0 - - -, f 5;
#X floatatom 229 648 5 0 0 0 - - -, f 5;
#X floatatom 230 669 5 0 0 0 - - -, f 5;
#X floatatom 230 691 5 0 0 0 - - -, f 5;
#X obj 56 726 pack 60 90 150 1 0 10 10;
#X text 225 836 sends note to lead_player;
#X obj 39 304 tabread arpeggio_sequence_1;
#X obj 460 601 r arpeggio_sample_number;
#X text 1805 13 A "0" indicates not to play at all on that beat \;
"1-7" represents chord tones moving in thirds \, so 1 is the tonic
\, 2 the 3rd \, 3 the 5th \, 4 the 7th \, 5 the 9th \, 6 the 11th and
7 the 13th.;
#X obj 34 371 moses 1;
#X obj 128 246 tabread arpseq1_8ve_seq;
#X obj 53 464 - 1;
#X text 84 464 Arpseq has 1 as root \, 2 as 3rd and so on \, so need
to adjust for chordtone rep \, where root is at index 0 \, 3rd at 1
\, and so on;
#X obj 128 277 s arpeggiostartoctave;
#X obj 1703 154 tabread chordroot_sequence;
#X obj 1779 261 s chord;
#X obj 1747 228 t b f;
#X obj 1729 257 bng 15 250 50 0 empty empty empty 17 7 0 10 -262144
-1 -1;
#X obj 1700 198 moses 1;
#X text 1700 123 Set the chord;
#X text 259 122 Set the array;
#X text 128 225 Set correct octave;
#X obj 252 202 s arparraytowrite;
#X msg 252 141 arp1chordtones;
#X obj 252 172 pack s;
#X obj 417 10 t f f f f f;
#X obj 55 527 tabread arp1chordtones;
#X obj 497 376 moses 1;
#X obj 541 412 - 1;
#X obj 595 271 s arpeggiostartoctave;
#X text 481 156 Set the array;
#X text 458 250 Set correct octave;
#X obj 588 201 s arparraytowrite;
#X obj 588 171 pack s;
#X obj 488 310 tabread arpeggio_sequence_2;
#X obj 595 240 tabread arpseq2_8ve_seq;
#X msg 589 140 arp2chordtones;
#X obj 481 522 tabread arp2chordtones;
#X obj 788 407 moses 1;
#X obj 814 438 - 1;
#X obj 897 288 s arpeggiostartoctave;
#X text 822 173 Set the array;
#X text 760 267 Set correct octave;
#X obj 932 219 s arparraytowrite;
#X obj 932 187 pack s;
#X obj 841 134 t f f f b;
#X msg 930 157 arp3chordtones;
#X obj 896 257 tabread arpseq3_8ve_seq;
#X obj 790 327 tabread arpeggio_sequence_3;
#X obj 795 520 tabread arp3chordtones;
#X obj 1235 442 moses 1;
#X obj 1186 475 - 1;
#X obj 1301 316 s arpeggiostartoctave;
#X text 1158 173 Set the array;
#X text 1164 295 Set correct octave;
#X obj 1267 220 s arparraytowrite;
#X obj 1265 188 pack s;
#X obj 1177 134 t f f f b;
#X msg 1266 157 arp4chordtones;
#X obj 1300 285 tabread arpseq4_8ve_seq;
#X obj 1224 357 tabread arpeggio_sequence_4;
#X obj 1157 568 tabread arp4chordtones;
#X obj 194 112 t f f b;
#X obj 447 113 t f f b;
#X obj 90 336 t f b;
#X obj 235 346 s writearpchordtonearray;
#X obj 561 349 t f b;
#X obj 630 380 s writearpchordtonearray;
#X floatatom 80 277 5 0 0 0 - - -, f 5;
#X obj 875 363 t f b;
#X obj 983 426 s writearpchordtonearray;
#X obj 1251 398 t f b;
#X obj 1338 439 s writearpchordtonearray;
#X obj 663 18 r arp_vol;
#X obj 291 546 f 90;
#X obj 1662 555 tabread chord3rdmodified_sequence;
#X obj 1662 608 s modify3rd;
#X obj 1730 336 % 4;
#X obj 1697 426 f;
#X obj 1719 366 bng 15 250 50 0 empty empty empty 17 7 0 10 -262144
-1 -1;
#X obj 1729 401 bng 15 250 50 0 empty empty empty 17 7 0 10 -262144
-1 -1;
#X floatatom 1769 609 5 0 0 0 - - -, f 5;
#X floatatom 1654 490 5 0 0 0 - - -, f 5;
#X obj 1755 373 select 0;
#X obj 117 796 spigot;
#X obj 143 766 tgl 15 0 empty arpeggioplayer_on empty 17 7 0 10 -262144
-1 -1 0 1;
#X floatatom 2019 610 5 0 0 0 - - -, f 5;
#X obj 1912 556 tabread chord7thmodified_sequence;
#X obj 1912 609 s modify7th;
#X connect 0 0 35 0;
#X connect 2 0 14 2;
#X connect 9 0 14 1;
#X connect 10 0 14 3;
#X connect 11 0 14 4;
#X connect 12 0 14 5;
#X connect 13 0 14 6;
#X connect 14 0 94 0;
#X connect 16 0 74 0;
#X connect 17 0 10 0;
#X connect 19 1 21 0;
#X connect 20 0 23 0;
#X connect 20 0 78 0;
#X connect 21 0 36 0;
#X connect 24 0 28 0;
#X connect 26 0 27 0;
#X connect 26 1 25 0;
#X connect 28 1 26 0;
#X connect 33 0 34 0;
#X connect 34 0 32 0;
#X connect 35 0 67 0;
#X connect 35 1 55 0;
#X connect 35 2 73 0;
#X connect 35 3 72 0;
#X connect 35 4 24 0;
#X connect 35 4 88 1;
#X connect 35 4 87 0;
#X connect 36 0 14 0;
#X connect 37 1 38 0;
#X connect 38 0 47 0;
#X connect 43 0 42 0;
#X connect 44 0 76 0;
#X connect 45 0 39 0;
#X connect 46 0 43 0;
#X connect 47 0 14 0;
#X connect 48 1 49 0;
#X connect 49 0 59 0;
#X connect 54 0 53 0;
#X connect 55 1 58 0;
#X connect 55 2 57 0;
#X connect 55 3 56 0;
#X connect 56 0 54 0;
#X connect 57 0 50 0;
#X connect 58 0 79 0;
#X connect 59 0 14 0;
#X connect 60 1 61 0;
#X connect 61 0 71 0;
#X connect 66 0 65 0;
#X connect 67 1 70 0;
#X connect 67 2 69 0;
#X connect 67 3 68 0;
#X connect 68 0 66 0;
#X connect 69 0 62 0;
#X connect 70 0 81 0;
#X connect 71 0 14 0;
#X connect 72 0 16 0;
#X connect 72 1 20 0;
#X connect 72 2 33 0;
#X connect 73 0 44 0;
#X connect 73 1 45 0;
#X connect 73 2 46 0;
#X connect 74 0 19 0;
#X connect 74 1 75 0;
#X connect 74 1 84 0;
#X connect 76 0 37 0;
#X connect 76 1 77 0;
#X connect 76 1 84 0;
#X connect 79 0 48 0;
#X connect 79 1 80 0;
#X connect 79 1 84 0;
#X connect 81 0 60 0;
#X connect 81 1 82 0;
#X connect 81 1 84 0;
#X connect 83 0 84 1;
#X connect 84 0 9 0;
#X connect 85 0 86 0;
#X connect 85 0 91 0;
#X connect 87 0 89 0;
#X connect 87 0 93 0;
#X connect 88 0 85 0;
#X connect 88 0 92 0;
#X connect 88 0 97 0;
#X connect 90 0 88 0;
#X connect 93 0 90 0;
#X connect 94 0 1 0;
#X connect 95 0 94 1;
#X connect 97 0 96 0;
#X connect 97 0 98 0;
#X restore 1075 267 pd arpeggioplayer;
#N canvas 2074 92 1220 902 blockchordplayer 0;
#X obj 92 25 inlet;
#X floatatom 185 466 5 0 0 0 - - -, f 5;
#X obj 338 464 moses 0;
#X obj 77 685 s note 60 90 150 2 0;
#X floatatom 229 517 5 0 0 0 - - -, f 5;
#X text 265 496 amplitude;
#X text 267 539 sample number;
#X text 267 516 duration (msec);
#X text 268 562 start location (msec);
#X text 267 583 rise time (msec);
#X text 269 603 decay time (msec);
#X floatatom 229 496 5 0 0 0 - - -, f 5;
#X floatatom 231 538 5 0 0 0 - - -, f 5;
#X floatatom 232 562 5 0 0 0 - - -, f 5;
#X floatatom 233 583 5 0 0 0 - - -, f 5;
#X floatatom 233 605 5 0 0 0 - - -, f 5;
#X obj 76 649 pack 60 90 150 1 0 10 10;
#X text 239 685 sends note to lead_player;
#X obj 64 241 tabread chordroot_sequence;
#X obj 99 352 s chord;
#X obj 66 304 t b f;
#X text 394 122 read which octave chord should be in;
#X obj 400 159 tabread blockchord_8ve_sequence;
#X text 324 332 play the root;
#X text 564 304 play the 3rd;
#X text 698 303 play the 5th;
#X obj 428 330 +;
#X obj 567 331 + 1;
#X obj 705 332 + 2;
#X obj 469 523 r blockchord_sample_number;
#X floatatom 709 458 5 0 0 0 - - -, f 5;
#X floatatom 451 463 5 0 0 0 - - -, f 5;
#X floatatom 574 462 5 0 0 0 - - -, f 5;
#X obj 49 357 bng 15 250 50 0 empty empty empty 17 7 0 10 -262144 -1
-1;
#X floatatom 74 174 5 0 0 0 - - -, f 5;
#X floatatom 27 279 5 0 0 0 - - -, f 5;
#X floatatom 350 253 5 0 0 0 - - -, f 5;
#X obj 494 244 bng 15 250 50 0 empty empty empty 17 7 0 10 -262144
-1 -1;
#X obj 443 200 moses 1;
#X floatatom 855 458 5 0 0 0 - - -, f 5;
#X text 874 306 play the 7th;
#X obj 881 330 + 3;
#X obj 126 274 moses 1;
#X obj 540 62 tabread blockchord_8ve_sequence;
#X obj 257 62 t f f f;
#X msg 541 253 0;
#X obj 586 98 s blockchordstartoctave;
#X obj 422 376 tabread blockchordtones;
#X obj 627 377 tabread blockchordtones;
#X obj 815 373 tabread blockchordtones;
#X obj 1002 376 tabread blockchordtones;
#X connect 0 0 44 0;
#X connect 1 0 16 0;
#X connect 4 0 16 2;
#X connect 11 0 16 1;
#X connect 12 0 16 3;
#X connect 13 0 16 4;
#X connect 14 0 16 5;
#X connect 15 0 16 6;
#X connect 16 0 3 0;
#X connect 18 0 35 0;
#X connect 18 0 42 0;
#X connect 20 0 33 0;
#X connect 22 0 38 0;
#X connect 22 0 36 0;
#X connect 26 0 47 0;
#X connect 27 0 48 0;
#X connect 28 0 49 0;
#X connect 29 0 12 0;
#X connect 38 1 37 0;
#X connect 38 1 45 0;
#X connect 41 0 50 0;
#X connect 42 0 19 0;
#X connect 42 1 20 0;
#X connect 43 0 46 0;
#X connect 44 0 22 0;
#X connect 44 1 18 0;
#X connect 44 1 34 0;
#X connect 44 2 43 0;
#X connect 45 0 26 0;
#X connect 45 0 27 0;
#X connect 45 0 28 0;
#X connect 45 0 41 0;
#X connect 47 0 31 0;
#X connect 47 0 1 0;
#X connect 48 0 32 0;
#X connect 48 0 1 0;
#X connect 49 0 30 0;
#X connect 49 0 1 0;
#X connect 50 0 39 0;
#X connect 50 0 1 0;
#X restore 236 761 pd blockchordplayer;
#X obj 237 721 spigot;
#X obj 273 692 tgl 15 0 empty blockchordplayer_on empty 17 7 0 10 -262144
-1 -1 0 1;
#X text 52 132 Which results in the appropriate arrays being written
for scales and chord tones;
#X text 41 210 And that is used to fill an array with chord tones for
particular chords in that key:;
#N canvas 1998 87 1039 818 main_pulse 0;
#X obj 295 228 metro;
#X floatatom 261 110 5 0 0 0 - - -, f 5;
#X floatatom 290 184 5 0 0 0 - - -, f 5;
#X obj 292 263 bng 15 250 50 0 empty empty empty 17 7 0 10 -262144
-1 -1;
#X obj 258 203 tgl 15 0 empty metro_on empty 17 7 0 10 -262144 -1 -1
0 1;
#X obj 288 148 expr 60000/$f1/$f2;
#X obj 320 82 int;
#X floatatom 370 115 5 0 0 0 - - -, f 5;
#X obj 322 122 bng 15 250 50 0 empty empty empty 17 7 0 10 -262144
-1 -1;
#X obj 336 35 r density;
#X obj 245 36 r tempo;
#X obj 399 255 + 1;
#X obj 374 296 % 16;
#X obj 359 254 int;
#X obj 374 331 s beatnum;
#X msg 416 113 4;
#X floatatom 280 82 5 0 0 0 - - -, f 5;
#X obj 319 390 outlet;
#X text 75 37 Overall tempo control;
#X text 406 35 subdivision per beat;
#X text -29 201 Receives metro_on as main on/off switch;
#X obj 579 94 r num_beats;
#X floatatom 586 137 5 0 0 0 - - -, f 5;
#X obj 566 188 expr $f1 * $f2;
#X obj 505 131 bng 15 250 50 0 empty empty empty 17 7 0 10 -262144
-1 -1;
#X obj 495 96 t b f;
#X floatatom 530 246 5 0 0 0 - - -, f 5;
#X text 581 245 Number of pulses per bar;
#X obj 539 294 s pulses_per_bar;
#X obj 396 206 s ms_per_pulse;
#X obj 737 6 r ping_patch_for_info;
#X obj 732 35 bng 15 250 50 0 empty empty empty 17 7 0 10 -262144 -1
-1;
#X floatatom 733 150 5 0 0 0 - - -, f 5;
#X obj 775 189 s num_beats_info;
#X obj 137 116 s density_info;
#X text 891 8 Used by app to get info;
#X connect 0 0 3 0;
#X connect 0 0 13 0;
#X connect 1 0 5 0;
#X connect 2 0 0 1;
#X connect 2 0 29 0;
#X connect 4 0 0 0;
#X connect 5 0 2 0;
#X connect 6 0 7 0;
#X connect 6 0 8 0;
#X connect 7 0 5 1;
#X connect 8 0 5 0;
#X connect 9 0 6 0;
#X connect 9 0 16 0;
#X connect 9 0 25 0;
#X connect 10 0 1 0;
#X connect 11 0 13 1;
#X connect 12 0 14 0;
#X connect 12 0 17 0;
#X connect 13 0 12 0;
#X connect 13 0 11 0;
#X connect 15 0 5 1;
#X connect 16 0 34 0;
#X connect 21 0 22 0;
#X connect 22 0 23 0;
#X connect 22 0 32 0;
#X connect 23 0 26 0;
#X connect 24 0 23 0;
#X connect 25 0 24 0;
#X connect 25 1 23 1;
#X connect 26 0 12 1;
#X connect 26 0 28 0;
#X connect 30 0 31 0;
#X connect 31 0 16 0;
#X connect 31 0 32 0;
#X connect 32 0 33 0;
#X restore 974 32 pd main_pulse;
#N canvas 167 262 626 818 blockchordtone_calc 0;
#X obj 119 424 int;
#X obj 179 420 + 2;
#X floatatom 104 478 5 0 0 0 - - -, f 5;
#X obj 200 290 bng 15 250 50 0 empty empty empty 17 7 0 10 -262144
-1 -1;
#X obj 82 540 tabread scale;
#X floatatom 51 579 5 0 0 0 - - -, f 5;
#X obj 240 422 int;
#X obj 295 425 + 1;
#X msg 255 253 0;
#X obj 178 391 t b b;
#X floatatom 258 466 5 0 0 0 - - -, f 5;
#X obj 404 470 select 48;
#X obj 202 331 until;
#X obj 238 92 r chord;
#X msg 176 26 2;
#X msg 229 26 5;
#X obj 195 60 s chord;
#X obj 187 183 t float float;
#X msg 135 51 1;
#X obj 237 132 - 1;
#X obj 84 219 * 7;
#X obj 80 312 +;
#X msg 33 155 1;
#X msg 39 196 2;
#X obj 45 93 r blockchordstartoctave;
#X obj 94 613 tabwrite blockchordtones;
#X connect 0 0 1 0;
#X connect 0 0 2 0;
#X connect 1 0 0 1;
#X connect 2 0 4 0;
#X connect 3 0 12 0;
#X connect 4 0 5 0;
#X connect 4 0 25 0;
#X connect 6 0 7 0;
#X connect 6 0 10 0;
#X connect 6 0 25 1;
#X connect 7 0 6 1;
#X connect 7 0 11 0;
#X connect 8 0 6 1;
#X connect 8 0 3 0;
#X connect 9 0 0 0;
#X connect 9 1 6 0;
#X connect 11 0 12 1;
#X connect 12 0 9 0;
#X connect 13 0 19 0;
#X connect 14 0 16 0;
#X connect 15 0 16 0;
#X connect 17 0 8 0;
#X connect 17 1 21 1;
#X connect 18 0 16 0;
#X connect 19 0 17 0;
#X connect 20 0 21 0;
#X connect 21 0 0 1;
#X connect 22 0 20 0;
#X connect 23 0 20 0;
#X connect 24 0 20 0;
#X restore 266 176 pd blockchordtone_calc;
#N canvas 337 304 567 533 chordprog 0;
#X obj 92 25 inlet;
#X obj 92 77 tabread chordroot_sequence;
#X obj 127 217 s chord;
#X obj 94 169 t b f;
#X obj 77 222 bng 15 250 50 0 empty empty empty 17 7 0 10 -262144 -1
-1;
#X floatatom 55 144 5 0 0 0 - - -, f 5;
#X obj 154 139 moses 1;
#X connect 0 0 1 0;
#X connect 1 0 5 0;
#X connect 1 0 6 0;
#X connect 3 0 4 0;
#X connect 3 1 2 0;
#X connect 6 1 3 0;
#X restore 127 721 pd chordprog;
#N canvas 1597 92 1440 818 arpchordtone_calc 0;
#X obj 118 452 int;
#X obj 178 452 + 2;
#X floatatom 96 498 5 0 0 0 - - -, f 5;
#X obj 198 306 bng 15 250 50 0 empty empty empty 17 7 0 10 -262144
-1 -1;
#X obj 65 626 tabread scale;
#X floatatom -31 629 5 0 0 0 - - -, f 5;
#X obj 481 424 int;
#X obj 529 426 + 1;
#X msg 294 279 0;
#X obj 199 390 t b b;
#X floatatom 480 462 5 0 0 0 - - -, f 5;
#X obj 216 347 until;
#X obj 299 67 r chord;
#X msg 1029 64 2;
#X msg 1089 64 5;
#X obj 1055 98 s chord;
#X obj 248 158 t float float;
#X msg 995 89 1;
#X obj 298 107 - 1;
#X obj 85 166 * 7;
#X obj 89 211 +;
#X msg 29 118 1;
#X msg 29 140 2;
#X obj 52 51 r arpeggiostartoctave;
#X text 7 6 Arpeggio player chordtone setter;
#X floatatom 89 78 5 0 0 0 - - -, f 5;
#X obj 79 744 tabwrite arp1chordtones;
#X obj -70 425 pack s;
#X msg -69 470 set \$1, f 10;
#X obj -69 383 r arparraytowrite;
#X obj 81 267 t b f;
#X obj 356 122 bng 15 250 50 0 empty empty empty 17 7 0 10 -262144
-1 -1;
#X obj 297 225 r writearpchordtonearray;
#X obj 1172 102 s writearpchordtonearray;
#X obj 1169 54 bng 15 250 50 0 empty empty empty 17 7 0 10 -262144
-1 -1;
#X floatatom 230 215 5 0 0 0 - - -, f 5;
#X floatatom 33 246 5 0 0 0 - - -, f 5;
#X floatatom 109 357 5 0 0 0 - - -, f 5;
#X obj 60 477 bng 15 250 50 0 empty empty empty 17 7 0 10 -262144 -1
-1;
#X text 171 434 Triads \, so every 2nd index of scale;
#X text 433 400 Main loop to cycle through index to chordtone array
;
#X obj 146 525 t f f;
#X obj 956 434 tabread arp1chordtones;
#X obj 961 686 +;
#X obj 960 759 tabwrite arp1chordtones;
#X floatatom 896 528 5 0 0 0 - - -, f 5;
#X floatatom 900 726 5 0 0 0 - - -, f 5;
#X obj 1022 711 bng 15 250 50 0 empty empty empty 17 7 0 10 -262144
-1 -1;
#X floatatom 1104 337 5 0 0 0 - - -, f 5;
#X obj 1012 372 t f f;
#X obj 1093 468 % 7;
#X obj 968 214 until;
#X obj 969 255 int;
#X obj 1016 257 + 1;
#X floatatom 975 334 5 0 0 0 - - -, f 5;
#X msg 1067 297 0;
#X obj 968 182 bng 15 250 50 0 empty empty empty 17 7 0 10 -262144
-1 -1;
#X obj 1112 612 f;
#X text 954 162 Chord modifier;
#X text 1172 547 chordtone to modify;
#X text 1140 612 amount to modify by;
#X obj 679 512 bng 15 250 50 0 empty empty empty 17 7 0 10 -262144
-1 -1;
#X obj 592 515 bng 15 250 50 0 empty empty empty 17 7 0 10 -262144
-1 -1;
#X obj 1171 465 r chordtone_to_modify;
#X obj 1168 589 r modify_chordtone_by;
#X obj 354 871 s chordtone_to_modify;
#X obj 402 837 s modify_chordtone_by;
#X msg 357 813 1;
#X obj 617 477 t b b b;
#X obj 433 752 r modify3rd;
#X floatatom 1153 639 5 0 0 0 - - -, f 5;
#X obj 1061 259 select 48;
#X obj 610 425 select 48;
#X obj 927 242 bng 15 250 50 0 empty empty empty 17 7 0 10 -262144
-1 -1;
#X floatatom 1244 523 5 0 0 0 - - -, f 5;
#X floatatom 1102 403 5 0 0 0 - - -, f 5;
#X floatatom 1112 499 5 0 0 0 - - -, f 5;
#X floatatom 1182 764 5 0 0 0 - - -, f 5;
#X floatatom 1176 570 5 0 0 0 - - -, f 5;
#X obj 1100 533 select 1;
#X obj 1120 566 bng 15 250 50 0 empty empty empty 17 7 0 10 -262144
-1 -1;
#X msg 1026 685 0;
#X obj 839 343 pack s;
#X msg 837 381 set \$1, f 10;
#X obj 839 306 r arparraytowrite;
#X text 673 306 Same array for reading:;
#X obj 571 877 s chordtone_to_modify;
#X obj 619 843 s modify_chordtone_by;
#X obj 650 758 r modify7th;
#X msg 574 819 3;
#X connect 0 0 1 0;
#X connect 0 0 2 0;
#X connect 0 0 38 0;
#X connect 1 0 0 1;
#X connect 2 0 41 0;
#X connect 3 0 11 0;
#X connect 4 0 5 0;
#X connect 4 0 26 0;
#X connect 6 0 7 0;
#X connect 6 0 10 0;
#X connect 6 0 26 1;
#X connect 7 0 6 1;
#X connect 7 0 72 0;
#X connect 8 0 6 1;
#X connect 8 0 3 0;
#X connect 9 0 0 0;
#X connect 9 1 6 0;
#X connect 11 0 9 0;
#X connect 12 0 18 0;
#X connect 12 0 31 0;
#X connect 13 0 15 0;
#X connect 14 0 15 0;
#X connect 16 0 35 0;
#X connect 16 1 20 1;
#X connect 17 0 15 0;
#X connect 18 0 16 0;
#X connect 19 0 20 0;
#X connect 20 0 30 0;
#X connect 20 0 36 0;
#X connect 21 0 19 0;
#X connect 22 0 19 0;
#X connect 23 0 19 0;
#X connect 23 0 25 0;
#X connect 27 0 28 0;
#X connect 28 0 26 0;
#X connect 28 0 44 0;
#X connect 29 0 27 0;
#X connect 30 1 37 0;
#X connect 32 0 8 0;
#X connect 34 0 33 0;
#X connect 37 0 0 1;
#X connect 41 0 4 0;
#X connect 42 0 45 0;
#X connect 42 0 43 0;
#X connect 43 0 46 0;
#X connect 43 0 47 0;
#X connect 43 0 44 0;
#X connect 43 0 81 0;
#X connect 48 0 49 0;
#X connect 49 0 42 0;
#X connect 49 1 44 1;
#X connect 49 1 50 0;
#X connect 49 1 75 0;
#X connect 50 0 76 0;
#X connect 50 0 79 0;
#X connect 51 0 52 0;
#X connect 52 0 53 0;
#X connect 52 0 54 0;
#X connect 53 0 52 1;
#X connect 53 0 71 0;
#X connect 54 0 49 0;
#X connect 55 0 52 1;
#X connect 56 0 51 0;
#X connect 57 0 43 1;
#X connect 57 0 70 0;
#X connect 63 0 74 0;
#X connect 63 0 79 1;
#X connect 64 0 57 1;
#X connect 67 0 65 0;
#X connect 68 1 62 0;
#X connect 68 2 61 0;
#X connect 68 2 56 0;
#X connect 69 0 67 0;
#X connect 69 0 66 0;
#X connect 71 0 51 1;
#X connect 71 0 55 0;
#X connect 72 0 11 1;
#X connect 72 0 37 0;
#X connect 72 0 68 0;
#X connect 73 0 52 0;
#X connect 79 0 80 0;
#X connect 79 0 57 0;
#X connect 79 1 78 0;
#X connect 81 0 43 1;
#X connect 82 0 83 0;
#X connect 83 0 42 0;
#X connect 84 0 82 0;
#X connect 88 0 89 0;
#X connect 88 0 87 0;
#X connect 89 0 86 0;
#X restore 69 176 pd arpchordtone_calc;
#N canvas 1926 82 1038 818 bars 0;
#X obj 532 65 r num_bars;
#X msg 550 216 \; lead_sequence resize \$1 \; lead_sequence_2 resize
\$1;
#X obj 32 166 inlet;
#X obj 134 594 outlet;
#X obj 34 594 outlet;
#X obj 149 350 + 1;
#X obj 108 262 moses 1;
#X floatatom 119 498 5 0 0 0 - - -, f 5;
#X obj 108 307 bng 15 250 50 0 empty empty empty 17 7 0 10 -262144
-1 -1;
#X obj 107 350 int;
#X floatatom 32 496 5 0 0 0 - - -, f 5;
#X text 37 526 pulse;
#X text 139 527 bar number;
#X obj 393 64 r pulses_per_bar;
#X obj 446 151 expr $f1 * $f2;
#X floatatom 760 191 5 0 0 0 - - -, f 5;
#X text 598 188 Total number of pulses;
#X obj 425 96 t b f;
#X msg 551 367 \; arpseq1_8ve_seq resize \$1 \; arpseq2_8ve_seq resize
\$1 \; arpseq3_8ve_seq resize \$1 \; arpseq4_8ve_seq resize \$1 \;
;
#X msg 550 276 \; arpeggio_sequence_1 resize \$1 \; arpeggio_sequence_2
resize \$1 \; arpeggio_sequence_3 resize \$1 \; arpeggio_sequence_4
resize \$1 \;;
#X msg 552 458 \; chordroot_sequence resize \$1 \; blockchord_8ve_sequence
resize \$1;
#X text 27 20 Takes as input the main pulse and outputs bar number
and pulse values \; also changes number of bars;
#X obj 370 570 *;
#X obj 121 421 %;
#X obj 330 619 +;
#X floatatom 332 688 5 0 0 0 - - -, f 5;
#X text 243 687 total pulse;
#X obj 333 737 outlet;
#X floatatom 216 184 5 0 0 0 - - -, f 5;
#X floatatom 294 182 5 0 0 0 - - -, f 5;
#X text 210 162 start bar;
#X text 297 164 end bar;
#X obj 237 304 -;
#X floatatom 289 361 5 0 0 0 - - -, f 5;
#X obj 223 256 t b f;
#X obj 168 463 +;
#X obj 297 216 - 1;
#X obj 213 217 - 1;
#X obj 149 111 r loop_start_bar;
#X obj 276 112 r loop_end_bar;
#X obj 217 553 s current_bar_num;
#X obj 61 552 s current_pulse_num;
#X obj 475 620 select 0;
#X obj 491 675 s pulse_zero_bang;
#X obj 450 655 bng 15 250 50 0 empty empty empty 17 7 0 10 -262144
-1 -1;
#X msg 550 521 \; dr1_sequence resize \$1 \; dr2_sequence resize \$1
\; dr3_sequence resize \$1 \; dr4_sequence resize \$1 \;;
#X msg 547 609 \; chord3rdmodified_sequence resize \$1 \; chord7thmodified_sequence
resize \$1 \;;
#X floatatom 567 111 5 0 0 0 - - -, f 5;
#X obj 649 66 r ping_patch_for_info;
#X text 803 68 Used by app to get info;
#X obj 634 94 bng 15 250 50 0 empty empty empty 17 7 0 10 -262144 -1
-1;
#X obj 639 142 s num_bars_info;
#X connect 0 0 14 0;
#X connect 0 0 23 1;
#X connect 0 0 47 0;
#X connect 2 0 6 0;
#X connect 2 0 10 0;
#X connect 5 0 9 1;
#X connect 6 0 8 0;
#X connect 7 0 3 0;
#X connect 7 0 22 0;
#X connect 7 0 40 0;
#X connect 8 0 9 0;
#X connect 9 0 5 0;
#X connect 9 0 23 0;
#X connect 10 0 4 0;
#X connect 10 0 24 0;
#X connect 10 0 41 0;
#X connect 13 0 17 0;
#X connect 13 0 22 1;
#X connect 14 0 1 0;
#X connect 14 0 15 0;
#X connect 14 0 19 0;
#X connect 14 0 18 0;
#X connect 14 0 20 0;
#X connect 14 0 45 0;
#X connect 14 0 46 0;
#X connect 17 0 14 0;
#X connect 17 1 14 1;
#X connect 22 0 24 1;
#X connect 23 0 35 0;
#X connect 24 0 25 0;
#X connect 24 0 42 0;
#X connect 25 0 27 0;
#X connect 28 0 37 0;
#X connect 29 0 36 0;
#X connect 32 0 33 0;
#X connect 33 0 23 1;
#X connect 34 0 32 0;
#X connect 34 1 32 1;
#X connect 35 0 7 0;
#X connect 36 0 32 0;
#X connect 37 0 34 0;
#X connect 37 0 35 1;
#X connect 38 0 28 0;
#X connect 39 0 29 0;
#X connect 42 0 43 0;
#X connect 42 0 44 0;
#X connect 47 0 51 0;
#X connect 48 0 50 0;
#X connect 50 0 47 0;
#X restore 1004 94 pd bars;
#N canvas 293 114 986 754 record_it 0;
#X floatatom 754 324 5 0 0 0 - - -, f 5;
#X obj 754 293 soundfiler;
#X obj 754 161 r keepit;
#X obj 754 203 pack s;
#X msg 758 82 \; keepit test.wav;
#X msg 632 248 write -wave -bytes 4 \$1 recordL recordR;
#X obj 467 288 r resize_mix2;
#X obj 466 328 float;
#X obj 383 357 bng 15 250 50 0 empty empty empty 17 7 0 10 -262144
-1 -1;
#X floatatom 589 324 12 0 0 0 - - -, f 12;
#X obj 424 286 bng 15 250 50 0 empty empty empty 17 7 0 10 -262144
-1 -1;
#X obj 440 201 t b f;
#X obj 606 365 s num_samples;
#X msg 339 396 \; recordL resize \$1;
#X msg 480 394 \; recordR resize \$1;
#X obj 317 148 r pulses_per_bar;
#X obj 209 147 r ms_per_pulse;
#X obj 127 147 r num_bars;
#X obj 147 215 expr $f1 * $f2 * $f3;
#X floatatom 157 265 12 0 0 0 - - -, f 12;
#X text -33 215 total piece length in ms;
#X obj 80 173 bng 15 250 50 0 empty empty empty 17 7 0 10 -262144 -1
-1;
#X obj 165 316 * 44.1;
#X text -60 367 number of samples for recording;
#X floatatom 166 369 12 0 0 0 - - -, f 12;
#X msg 35 430 \; recordL resize \$1;
#X msg 176 432 \; recordR resize \$1;
#N canvas 0 98 450 300 (subpatch) 0;
#X array recordL 1 float 2;
#X coords 0 1 1 -1 200 140 1 0 0;
#X restore 460 565 graph;
#N canvas 1 90 450 300 (subpatch) 0;
#X array recordR 1 float 2;
#X coords 0 1 1 -1 200 140 1 0 0;
#X restore 683 563 graph;
#X connect 1 0 0 0;
#X connect 2 0 3 0;
#X connect 3 0 5 0;
#X connect 5 0 1 0;
#X connect 6 0 7 0;
#X connect 7 0 13 0;
#X connect 7 0 8 0;
#X connect 7 0 9 0;
#X connect 7 0 14 0;
#X connect 9 0 12 0;
#X connect 10 0 7 0;
#X connect 11 0 10 0;
#X connect 11 1 7 1;
#X connect 15 0 18 2;
#X connect 16 0 18 1;
#X connect 17 0 18 0;
#X connect 18 0 19 0;
#X connect 19 0 22 0;
#X connect 21 0 18 0;
#X connect 22 0 24 0;
#X connect 24 0 25 0;
#X connect 24 0 26 0;
#X restore 636 45 pd record_it;
#X obj 811 399 r pulse_zero_bang;
#X obj 817 494 bng 15 250 50 0 empty empty empty 17 7 0 10 -262144
-1 -1;
#X obj 811 456 spigot;
#X obj 856 429 tgl 15 0 empty empty empty 17 7 0 10 -262144 -1 -1 0
1;
#X obj 739 595 tabwrite~ recordL;
#X obj 878 595 tabwrite~ recordR;
#X text 873 428 check to record;
#X text 591 596 Arrays for recording;
#N canvas 1650 105 1320 818 drumplayer 1;
#X obj 384 38 inlet;
#X floatatom 252 400 5 0 0 0 - - -, f 5;
#X floatatom 247 480 5 0 0 0 - - -, f 5;
#X obj 252 334 - 1;
#X obj 252 367 moses 0;
#X obj 247 510 + 12;
#X obj 250 697 s note 60 90 150 2 0;
#X floatatom 403 454 5 0 0 0 - - -, f 5;
#X text 439 433 amplitude;
#X text 441 476 sample number;
#X text 441 453 duration (msec);
#X text 442 499 start location (msec);
#X text 441 520 rise time (msec);
#X text 443 540 decay time (msec);
#X floatatom 403 433 5 0 0 0 - - -, f 5;
#X floatatom 404 477 5 0 0 0 - - -, f 5;
#X floatatom 406 499 5 0 0 0 - - -, f 5;
#X floatatom 407 520 5 0 0 0 - - -, f 5;
#X floatatom 407 542 5 0 0 0 - - -, f 5;
#X obj 250 586 pack 60 90 150 1 0 10 10;
#X text 405 697 sends note to lead_player;
#X obj 280 439 tabread scale;
#X obj 570 462 r lead_sample_number;
#X obj 237 120 tabread dr1_sequence;
#X obj 400 120 tabread dr2_sequence;
#X obj 563 120 tabread dr3_sequence;
#X obj 733 119 tabread dr4_sequence;
#X obj 276 213 f;
#X obj 426 210 f;
#X obj 563 212 f;
#X obj 745 216 f;
#X msg 468 174 10;
#X obj 247 158 t f b;
#X msg 310 176 9;
#X msg 781 185 12;
#X msg 608 186 11;
#X obj 721 159 t f b;
#X obj 395 158 t f b;
#X obj 564 160 t f b;
#X obj 562 43 loadbang;
#X obj 670 53 r drum_vol;
#X obj 579 278 f 90;
#X obj 291 663 spigot;
#X obj 333 637 tgl 15 0 empty drumplayer_on empty 17 7 0 10 -262144
-1 -1 1 1;
#X obj 132 8 bng 15 250 50 0 empty empty empty 17 7 0 10 -262144 -1
-1;
#X msg 161 130 1;
#X obj 130 83 r dr1_oneshot;
#X obj 129 57 s dr1_oneshot;
#X msg 305 77 1;
#X obj 274 30 r dr2_oneshot;
#X connect 0 0 24 0;
#X connect 0 0 25 0;
#X connect 0 0 26 0;
#X connect 1 0 21 0;
#X connect 2 0 5 0;
#X connect 3 0 4 0;
#X connect 4 1 1 0;
#X connect 5 0 19 0;
#X connect 7 0 19 2;
#X connect 14 0 19 1;
#X connect 15 0 19 3;
#X connect 16 0 19 4;
#X connect 17 0 19 5;
#X connect 18 0 19 6;
#X connect 19 0 42 0;
#X connect 21 0 2 0;
#X connect 22 0 15 0;
#X connect 23 0 32 0;
#X connect 24 0 37 0;
#X connect 25 0 38 0;
#X connect 26 0 36 0;
#X connect 27 0 15 0;
#X connect 28 0 15 0;
#X connect 29 0 15 0;
#X connect 30 0 15 0;
#X connect 31 0 28 1;
#X connect 32 0 3 0;
#X connect 32 1 27 0;
#X connect 32 1 41 0;
#X connect 33 0 27 1;
#X connect 34 0 30 1;
#X connect 35 0 29 1;
#X connect 36 0 3 0;
#X connect 36 1 30 0;
#X connect 36 1 41 0;
#X connect 37 0 3 0;
#X connect 37 1 28 0;
#X connect 37 1 41 0;
#X connect 38 0 3 0;
#X connect 38 1 29 0;
#X connect 38 1 41 0;
#X connect 39 0 33 0;
#X connect 39 0 31 0;
#X connect 39 0 35 0;
#X connect 39 0 34 0;
#X connect 40 0 41 1;
#X connect 41 0 14 0;
#X connect 42 0 6 0;
#X connect 43 0 42 1;
#X connect 44 0 47 0;
#X connect 45 0 32 0;
#X connect 46 0 45 0;
#X connect 48 0 37 0;
#X connect 49 0 48 0;
#X restore 1209 268 pd drumplayer;
#X text 38 289 These is the array that hold sequence information:;
#N canvas 2160 87 877 818 bassplayer 0;
#X obj 385 274 tabread chordroot_sequence;
#X obj 451 356 - 1;
#X floatatom 577 381 5 0 0 0 - - -, f 5;
#X obj 453 320 moses 1;
#X text 381 222 Check these to get the lines to follow chord changes
\, so that if the array has scale tones 1 \, 2 \, 3 \; then against
chord transpose those to 2 \, 3 \, 4;
#X text 414 191 Lead follows chord changes:;
#X obj 73 102 tabread lead_sequence_2;
#X obj 112 146 t f b;
#X obj 169 198 f 60;
#X floatatom 260 102 5 0 0 0 - - -, f 5;
#X obj 142 50 t f f;
#X obj 260 43 r bass_vol;
#X floatatom 84 546 5 0 0 0 - - -, f 5;
#X floatatom 84 619 5 0 0 0 - - -, f 5;
#X obj 89 513 moses 0;
#X obj 84 651 + 12;
#X obj 96 914 s note 60 90 150 2 0;
#X floatatom 349 553 5 0 0 0 - - -, f 5;
#X text 386 533 amplitude;
#X text 388 576 sample number;
#X text 388 553 duration (msec);
#X text 389 599 start location (msec);
#X text 388 620 rise time (msec);
#X text 392 640 decay time (msec);
#X floatatom 349 532 5 0 0 0 - - -, f 5;
#X floatatom 351 575 5 0 0 0 - - -, f 5;
#X floatatom 352 598 5 0 0 0 - - -, f 5;
#X floatatom 353 619 5 0 0 0 - - -, f 5;
#X floatatom 355 641 5 0 0 0 - - -, f 5;
#X obj 87 725 pack 60 90 150 1 0 10 10;
#X obj 89 468 +;
#X obj 516 561 r bass_sample_number;
#X obj 94 309 - 1;
#X text 305 95 So while I'm calling this a bass player \, it could
be a different kind of lead (it is really!) \, so it uses the array
lead_sequence_2 for legacy reasons more than anything.;
#X obj 198 15 inlet;
#X obj 359 459 s chordroot_for_bass_scale;
#X obj 452 399 t b f;
#X obj 598 453 s write_bass_player_scale;
#X obj 117 578 tabread bass_player_scale;
#X obj 114 826 spigot;
#X obj 158 796 tgl 15 0 empty bassplayer_on empty 17 7 0 10 -262144
-1 -1 0 1;
#X obj 345 323 bng 15 250 50 0 empty empty empty 17 7 0 10 -262144
-1 -1;
#X floatatom 541 420 5 0 0 0 - - -, f 5;
#X connect 0 0 3 0;
#X connect 0 0 41 0;
#X connect 1 0 2 0;
#X connect 1 0 36 0;
#X connect 3 1 1 0;
#X connect 6 0 7 0;
#X connect 7 0 32 0;
#X connect 7 1 8 0;
#X connect 8 0 24 0;
#X connect 9 0 8 1;
#X connect 10 0 6 0;
#X connect 10 1 0 0;
#X connect 11 0 9 0;
#X connect 12 0 38 0;
#X connect 13 0 15 0;
#X connect 14 1 12 0;
#X connect 15 0 29 0;
#X connect 17 0 29 2;
#X connect 24 0 29 1;
#X connect 25 0 29 3;
#X connect 26 0 29 4;
#X connect 27 0 29 5;
#X connect 28 0 29 6;
#X connect 29 0 39 0;
#X connect 30 0 14 0;
#X connect 31 0 25 0;
#X connect 32 0 30 0;
#X connect 34 0 10 0;
#X connect 36 0 37 0;
#X connect 36 1 35 0;
#X connect 36 1 42 0;
#X connect 38 0 13 0;
#X connect 39 0 16 0;
#X connect 40 0 39 1;
#X restore 970 266 pd bassplayer;
#X text 83 661 Unused \, but potentially useful one day:;
#X text 666 325 All of the players send notes to the main synth:;
#N canvas 59 82 1396 818 bass_scalewriter 0;
#X obj 400 507 r modify3rd;
#X floatatom 415 549 5 0 0 0 - - -, f 5;
#X obj 906 590 +;
#X floatatom 841 432 5 0 0 0 - - -, f 5;
#X floatatom 845 630 5 0 0 0 - - -, f 5;
#X obj 967 615 bng 15 250 50 0 empty empty empty 17 7 0 10 -262144
-1 -1;
#X floatatom 1049 241 5 0 0 0 - - -, f 5;
#X obj 957 276 t f f;
#X obj 1038 372 % 7;
#X obj 913 118 until;
#X obj 914 159 int;
#X obj 961 161 + 1;
#X floatatom 920 238 5 0 0 0 - - -, f 5;
#X msg 1012 201 0;
#X obj 913 86 bng 15 250 50 0 empty empty empty 17 7 0 10 -262144 -1
-1;
#X obj 1057 516 f;
#X text 1112 439 chordtone to modify;
#X text 1085 516 amount to modify by;
#X floatatom 1098 543 5 0 0 0 - - -, f 5;
#X obj 872 146 bng 15 250 50 0 empty empty empty 17 7 0 10 -262144
-1 -1;
#X floatatom 1047 307 5 0 0 0 - - -, f 5;
#X floatatom 1057 403 5 0 0 0 - - -, f 5;
#X floatatom 1127 668 5 0 0 0 - - -, f 5;
#X floatatom 1121 474 5 0 0 0 - - -, f 5;
#X obj 1045 437 select 1;
#X obj 1065 470 bng 15 250 50 0 empty empty empty 17 7 0 10 -262144
-1 -1;
#X msg 971 589 0;
#X text 897 31 Scale degree modifier;
#X obj 905 663 tabwrite bass_player_scale;
#X obj 1006 163 select 96;
#X text 30 32 First write a scale starting from the appropriate scale
degree (so scale degree 2 if chord 2:;
#X obj 270 333 r chordroot_for_bass_scale;
#X obj 136 417 tabread scale;
#X obj 121 475 tabwrite bass_player_scale;
#X obj 118 208 until;
#X obj 119 249 int;
#X obj 166 251 + 1;
#X msg 211 292 0;
#X obj 118 176 bng 15 250 50 0 empty empty empty 17 7 0 10 -262144
-1 -1;
#X obj 77 236 bng 15 250 50 0 empty empty empty 17 7 0 10 -262144 -1
-1;
#X obj 211 253 select 96;
#X obj 154 354 +;
#X floatatom 77 448 5 0 0 0 - - -, f 5;
#X msg 72 297 1;
#X msg 367 546 2;
#X obj 478 649 s scale_degree_to_modify;
#X obj 491 687 s modify_scale_degree_by;
#X obj 1113 492 r modify_scale_degree_by;
#X obj 1116 369 r scale_degree_to_modify;
#X obj 901 338 tabread bass_player_scale;
#X obj 118 123 r write_bass_player_scale;
#X obj 534 504 r modify7th;
#X floatatom 571 547 5 0 0 0 - - -, f 5;
#X obj 522 582 f;
#X obj 331 581 f;
#X obj 380 585 f;
#X obj 501 189 t b b b b;
#X obj 567 584 f;
#X floatatom 1190 562 5 0 0 0 - - -, f 5;
#X floatatom 309 381 5 0 0 0 - - -, f 5;
#X msg 523 547 6;
#X connect 0 0 44 0;
#X connect 0 0 1 0;
#X connect 0 0 55 1;
#X connect 2 0 4 0;
#X connect 2 0 5 0;
#X connect 2 0 26 0;
#X connect 2 0 28 0;
#X connect 6 0 7 0;
#X connect 7 0 49 0;
#X connect 7 1 8 0;
#X connect 7 1 20 0;
#X connect 7 1 28 1;
#X connect 8 0 21 0;
#X connect 8 0 24 0;
#X connect 9 0 10 0;
#X connect 10 0 11 0;
#X connect 10 0 12 0;
#X connect 11 0 10 1;
#X connect 11 0 29 0;
#X connect 12 0 7 0;
#X connect 13 0 10 1;
#X connect 14 0 9 0;
#X connect 15 0 2 1;
#X connect 15 0 18 0;
#X connect 19 0 10 0;
#X connect 24 0 25 0;
#X connect 24 0 15 0;
#X connect 24 1 23 0;
#X connect 26 0 2 1;
#X connect 29 0 9 1;
#X connect 29 0 13 0;
#X connect 31 0 41 1;
#X connect 31 0 59 0;
#X connect 32 0 33 0;
#X connect 32 0 42 0;
#X connect 34 0 35 0;
#X connect 35 0 36 0;
#X connect 35 0 33 1;
#X connect 35 0 41 0;
#X connect 36 0 35 1;
#X connect 36 0 40 0;
#X connect 37 0 35 1;
#X connect 38 0 34 0;
#X connect 39 0 35 0;
#X connect 40 0 34 1;
#X connect 40 0 37 0;
#X connect 40 0 56 0;
#X connect 41 0 32 0;
#X connect 43 0 41 1;
#X connect 44 0 54 1;
#X connect 47 0 15 1;
#X connect 47 0 58 0;
#X connect 48 0 24 1;
#X connect 49 0 3 0;
#X connect 49 0 2 0;
#X connect 50 0 38 0;
#X connect 51 0 60 0;
#X connect 51 0 52 0;
#X connect 51 0 57 1;
#X connect 53 0 45 0;
#X connect 54 0 45 0;
#X connect 55 0 46 0;
#X connect 56 0 14 0;
#X connect 56 1 53 0;
#X connect 56 1 57 0;
#X connect 56 2 14 0;
#X connect 56 3 54 0;
#X connect 56 3 55 0;
#X connect 57 0 46 0;
#X connect 60 0 53 1;
#X restore 244 104 pd bass_scalewriter;
#X obj 1101 517 output;
#X obj 1052 137 t f f f f f;
#N canvas 1829 87 995 818 metronome 0;
#X obj 184 21 inlet;
#X floatatom 52 383 5 0 0 0 - - -, f 5;
#X floatatom 47 463 5 0 0 0 - - -, f 5;
#X obj 52 317 - 1;
#X obj 52 350 moses 0;
#X obj 47 493 + 12;
#X obj 50 680 s note 60 90 150 2 0;
#X floatatom 203 437 5 0 0 0 - - -, f 5;
#X text 239 416 amplitude;
#X text 241 459 sample number;
#X text 241 436 duration (msec);
#X text 242 482 start location (msec);
#X text 241 503 rise time (msec);
#X text 243 523 decay time (msec);
#X floatatom 203 416 5 0 0 0 - - -, f 5;
#X floatatom 204 460 5 0 0 0 - - -, f 5;
#X floatatom 206 482 5 0 0 0 - - -, f 5;
#X floatatom 207 503 5 0 0 0 - - -, f 5;
#X floatatom 207 525 5 0 0 0 - - -, f 5;
#X obj 50 569 pack 60 90 150 1 0 10 10;
#X text 205 680 sends note to lead_player;
#X obj 80 422 tabread scale;
#X obj 772 83 tabread dr1_sequence;
#X obj 145 283 f;
#X obj 48 222 t f b;
#X obj 362 26 loadbang;
#X obj 338 315 f 90;
#X obj 91 646 spigot;
#X obj 133 620 tgl 15 0 empty metronome_on empty 17 7 0 10 -262144
-1 -1 0 1;
#X obj 584 7 r density_info;
#X msg 607 47 4;
#X obj 566 217 bng 15 250 50 0 empty empty empty 17 7 0 10 -262144
-1 -1;
#X obj 566 104 %;
#X floatatom 567 142 5 0 0 0 - - -, f 5;
#X floatatom 534 72 5 0 0 0 - - -, f 5;
#X floatatom 624 218 5 0 0 0 - - -, f 5;
#X floatatom 674 299 5 0 0 0 - - -, f 5;
#X obj 568 177 select 0;
#X obj 564 256 f 1;
#X obj 569 301 bng 15 250 50 0 empty empty empty 17 7 0 10 -262144
-1 -1;
#X obj 370 445 r metronome_sample_number;
#X msg 414 379 8;
#X msg 173 166 8;
#X obj 446 26 r metronome_vol;
#X connect 0 0 32 0;
#X connect 1 0 21 0;
#X connect 2 0 5 0;
#X connect 3 0 4 0;
#X connect 4 1 1 0;
#X connect 5 0 19 0;
#X connect 7 0 19 2;
#X connect 14 0 19 1;
#X connect 15 0 19 3;
#X connect 16 0 19 4;
#X connect 17 0 19 5;
#X connect 18 0 19 6;
#X connect 19 0 27 0;
#X connect 21 0 2 0;
#X connect 23 0 15 0;
#X connect 24 0 3 0;
#X connect 24 1 23 0;
#X connect 24 1 26 0;
#X connect 25 0 42 0;
#X connect 26 0 14 0;
#X connect 27 0 6 0;
#X connect 28 0 27 1;
#X connect 29 0 32 1;
#X connect 30 0 32 1;
#X connect 31 0 38 0;
#X connect 32 0 33 0;
#X connect 33 0 37 0;
#X connect 34 0 32 0;
#X connect 37 0 31 0;
#X connect 37 1 35 0;
#X connect 38 0 36 0;
#X connect 38 0 39 0;
#X connect 38 0 24 0;
#X connect 40 0 15 0;
#X connect 41 0 15 0;
#X connect 42 0 23 1;
#X connect 43 0 26 1;
#X restore 1329 269 pd metronome;
#X connect 1 0 23 0;
#X connect 9 0 29 0;
#X connect 9 0 39 0;
#X connect 10 0 30 0;
#X connect 10 0 39 1;
#X connect 15 0 14 0;
#X connect 16 0 15 1;
#X connect 19 0 1 0;
#X connect 23 2 40 0;
#X connect 25 0 27 0;
#X connect 26 0 29 0;
#X connect 26 0 30 0;
#X connect 27 0 26 0;
#X connect 28 0 27 1;
#X connect 40 0 6 0;
#X connect 40 1 35 0;
#X connect 40 2 13 0;
#X connect 40 3 33 0;
#X connect 40 4 41 0;
