#N canvas 1852 140 1440 846 12;
#X msg 61 189 \; scale_struct 0 2 2 1 2 2 2 1;
#X floatatom 924 203 5 0 0 0 - - -, f 5;
#N canvas 172 262 1155 818 chordtone_calc 0;
#X obj 117 440 int;
#X obj 177 436 + 2;
#X floatatom 102 494 5 0 0 0 - - -, f 5;
#X obj 198 306 bng 15 250 50 0 empty empty empty 17 7 0 10 -262144
-1 -1;
#X obj 80 556 tabread scale;
#X obj 92 629 tabwrite chordtones;
#X floatatom 49 595 5 0 0 0 - - -, f 5;
#X obj 238 438 int;
#X obj 293 441 + 1;
#X msg 253 269 0;
#X obj 176 407 t b b;
#X floatatom 256 482 5 0 0 0 - - -, f 5;
#X obj 365 419 select 48;
#X obj 200 347 until;
#X obj 297 103 r chord;
#X msg 167 42 2;
#X msg 227 42 5;
#X obj 193 76 s chord;
#X obj 185 199 t float float;
#X msg 133 67 1;
#X obj 235 148 - 1;
#X obj 82 251 * 7;
#X obj 80 293 +;
#X msg 26 203 1;
#X msg 26 225 2;
#X obj 49 136 r arpeggiostartoctave;
#X text 7 6 Arpeggio player chordtone setter;
#X floatatom 86 163 5 0 0 0 - - -, f 5;
#X connect 0 0 1 0;
#X connect 0 0 2 0;
#X connect 1 0 0 1;
#X connect 2 0 4 0;
#X connect 3 0 13 0;
#X connect 4 0 5 0;
#X connect 4 0 6 0;
#X connect 7 0 8 0;
#X connect 7 0 5 1;
#X connect 7 0 11 0;
#X connect 8 0 7 1;
#X connect 8 0 12 0;
#X connect 9 0 7 1;
#X connect 9 0 3 0;
#X connect 10 0 0 0;
#X connect 10 1 7 0;
#X connect 12 0 13 1;
#X connect 13 0 10 0;
#X connect 15 0 17 0;
#X connect 16 0 17 0;
#X connect 18 0 9 0;
#X connect 18 1 0 1;
#X connect 19 0 17 0;
#X connect 20 0 18 0;
#X connect 21 0 22 0;
#X connect 23 0 21 0;
#X connect 24 0 21 0;
#X connect 25 0 21 0;
#X connect 25 0 27 0;
#X restore 234 344 pd chordtone_calc;
#N canvas 473 217 611 683 scalewriter 0;
#X floatatom 241 102 5 0 0 0 - - -, f 5;
#X text 277 101 MIDI note of key root;
#X msg 295 32 24;
#X text 331 32 C;
#X msg 388 141 0;
#X msg 233 38 50;
#X obj 293 326 + 1;
#X obj 191 222 bng 15 250 50 0 empty empty empty 17 7 0 10 -262144
-1 -1;
#X obj 238 323 int;
#X obj 234 548 +;
#X floatatom 235 580 5 0 0 0 - - -, f 5;
#X floatatom 355 539 5 0 0 0 - - -, f 5;
#X floatatom 164 543 5 0 0 0 - - -, f 5;
#X floatatom 196 424 5 0 0 0 - - -, f 5;
#X floatatom 312 427 5 0 0 0 - - -, f 5;
#X floatatom 166 380 5 0 0 0 - - -, f 5;
#X obj 198 464 % 7;
#X floatatom 180 487 5 0 0 0 - - -, f 5;
#X msg 234 209 0;
#X obj 402 429 + 1;
#X obj 165 509 tabread scale_struct;
#X obj 312 508 tabread scale;
#X obj 324 616 tabwrite scale;
#X obj 265 165 tabwrite scale;
#X obj 290 263 until;
#X obj 343 262 select 96;
#X obj 174 63 r key;
#X obj 418 106 loadbang;
#X obj 219 381 t float float;
#X msg 294 63 28;
#X text 329 64 E;
#X connect 0 0 23 0;
#X connect 0 0 18 0;
#X connect 0 0 7 0;
#X connect 2 0 0 0;
#X connect 4 0 23 1;
#X connect 5 0 0 0;
#X connect 6 0 8 1;
#X connect 6 0 25 0;
#X connect 7 0 24 0;
#X connect 8 0 6 0;
#X connect 8 0 15 0;
#X connect 8 0 19 0;
#X connect 8 0 28 0;
#X connect 9 0 10 0;
#X connect 10 0 22 0;
#X connect 13 0 16 0;
#X connect 14 0 21 0;
#X connect 16 0 17 0;
#X connect 17 0 20 0;
#X connect 18 0 8 1;
#X connect 19 0 22 1;
#X connect 20 0 9 0;
#X connect 20 0 12 0;
#X connect 21 0 9 1;
#X connect 21 0 11 0;
#X connect 24 0 8 0;
#X connect 25 0 24 1;
#X connect 26 0 0 0;
#X connect 27 0 4 0;
#X connect 28 0 13 0;
#X connect 28 1 14 0;
#X connect 29 0 0 0;
#X restore 59 263 pd scalewriter;
#N canvas 66 87 433 768 drum_sequences 0;
#N canvas 0 50 450 300 (subpatch) 0;
#X array dr_sequence_1 16 float 3;
#A 0 1 0 0 0 1 0 0 0 1 0 0 0 1 0 0 0;
#X coords 0 1 15 -1 200 140 1 0 0;
#X restore 56 -437 graph;
#N canvas 219 84 450 300 (subpatch) 0;
#X array dr_sequence_2 16 float 3;
#A 0 0 0 0 1 0 0 0 0 0 0 1 0 0 1 0 0;
#X coords 0 1 15 -1 200 140 1 0 0;
#X restore 61 -255 graph;
#N canvas 51 116 450 300 (subpatch) 0;
#X array dr_sequence_3 16 float 3;
#A 0 1 0 1 0 0 0 1 0 0 0 1 0 0 1 0 1;
#X coords 0 1 15 -1 200 140 1 0 0;
#X restore 61 -77 graph;
#N canvas 217 87 450 300 (subpatch) 0;
#X array dr_sequence_4 16 float 3;
#A 0 0 1 0 1 0 1 0 1 0 1 0 0 1 0 1 0;
#X coords 0 1 15 -1 200 140 1 0 0;
#X restore 59 114 graph;
#X restore 55 513 pd drum_sequences;
#X obj 908 362 spigot;
#X obj 956 339 tgl 15 0 empty leadplayer_on empty 17 7 0 10 -262144
-1 -1 0 1;
#X obj 1013 362 spigot;
#X obj 1047 335 tgl 15 0 empty arpeggioplayer_on empty 17 7 0 10 -262144
-1 -1 1 1;
#N canvas 438 255 980 818 sequence_arrays 0;
#X restore 56 487 pd sequence_arrays;
#N canvas 1440 54 1920 1026 gui 1;
#N canvas 1600 54 1440 846 lead_gui 0;
#X obj 29 163 vradio 15 1 0 7 empty empty empty 0 -8 0 10 -262144 -1
-1 0;
#X obj 49 163 vradio 15 1 0 7 empty empty empty 0 -8 0 10 -262144 -1
-1 0;
#X obj 71 164 vradio 15 1 0 7 empty empty empty 0 -8 0 10 -262144 -1
-1 0;
#X obj 94 164 vradio 15 1 0 7 empty empty empty 0 -8 0 10 -262144 -1
-1 0;
#X obj 26 386 t f b;
#X obj 39 357 t f b;
#X msg 73 501 0;
#X msg 75 398 1;
#X obj 50 336 t f b;
#X obj 66 315 t f b;
#X msg 88 372 2;
#X msg 95 344 3;
#X obj 131 163 vradio 15 1 0 7 empty empty empty 0 -8 0 10 -262144
-1 -1 0;
#X obj 151 165 vradio 15 1 0 7 empty empty empty 0 -8 0 10 -262144
-1 -1 0;
#X obj 172 164 vradio 15 1 0 7 empty empty empty 0 -8 0 10 -262144
-1 -1 0;
#X obj 191 164 vradio 15 1 0 7 empty empty empty 0 -8 0 10 -262144
-1 -1 0;
#X obj 131 387 t f b;
#X obj 149 360 t f b;
#X obj 160 339 t f b;
#X obj 179 313 t f b;
#X obj 221 165 vradio 15 1 0 7 empty empty empty 0 -8 0 10 -262144
-1 -1 0;
#X obj 241 165 vradio 15 1 0 7 empty empty empty 0 -8 0 10 -262144
-1 -1 0;
#X obj 262 166 vradio 15 1 0 7 empty empty empty 0 -8 0 10 -262144
-1 -1 0;
#X obj 284 167 vradio 15 1 0 7 empty empty empty 0 -8 0 10 -262144
-1 -1 0;
#X obj 253 389 t f b;
#X obj 271 362 t f b;
#X obj 282 341 t f b;
#X obj 298 320 t f b;
#X obj 313 169 vradio 15 1 0 7 empty empty empty 0 -8 0 10 -262144
-1 -1 0;
#X obj 333 169 vradio 15 1 0 7 empty empty empty 0 -8 0 10 -262144
-1 -1 0;
#X obj 354 170 vradio 15 1 0 7 empty empty empty 0 -8 0 10 -262144
-1 -1 0;
#X obj 404 156 vradio 15 1 0 8 empty empty empty 0 -8 0 10 -262144
-1 -1 0;
#X obj 364 397 t f b;
#X obj 384 370 t f b;
#X obj 405 346 t f b;
#X obj 424 321 t f b;
#X msg 172 427 4;
#X msg 187 403 5;
#X msg 198 376 6;
#X msg 209 346 7;
#X msg 296 430 8;
#X msg 307 403 9;
#X msg 320 377 10;
#X msg 329 349 11;
#X msg 400 423 12;
#X msg 419 397 13;
#X msg 437 371 14;
#X msg 458 344 15;
#X obj 376 171 vradio 15 1 0 7 empty empty empty 0 -8 0 10 -262144
-1 -1 0;
#X obj 150 570 +;
#X text 361 131 8ve adjust;
#X obj 46 797 tabwrite lead_sequence;
#X obj 47 769 spigot;
#X obj 80 734 tgl 15 0 empty write_lead1 empty 17 7 0 10 -262144 -1
-1 0 1;
#X obj 242 572 t f;
#X obj 225 765 spigot;
#X obj 258 731 tgl 15 0 empty write_lead2 empty 17 7 0 10 -262144 -1
-1 0 1;
#X obj 225 797 tabwrite lead_sequence_2;
#X obj 34 108 tgl 15 0 write_lead2 empty empty 17 7 0 10 -262144 -1
-1 0 1;
#X obj 34 74 tgl 15 0 write_lead1 empty empty 17 7 0 10 -262144 -1
-1 0 1;
#X text 51 75 write lead seq 1;
#X text 54 108 write lead seq 2;
#X msg 365 100 0;
#X obj 359 68 bng 15 250 50 0 empty empty empty 17 7 0 10 -262144 -1
-1;
#X text 375 67 reset;
#X obj 19 23 tgl 15 0 leadplayer_on empty empty 17 7 0 10 -262144 -1
-1 0 1;
#X text 37 24 Lead player;
#X obj 186 26 hradio 15 1 0 8 empty empty empty 0 -8 0 10 -262144 -1
-1 0;
#X obj 185 88 s lead_sample_number;
#X obj 186 55 + 1;
#X obj 29 143 bng 15 250 50 0 empty empty empty 17 7 0 10 -257985 -1
-1;
#X obj 23 480 t f b;
#X msg 15 453 0;
#X obj 129 727 + 1;
#X obj 412 288 * 7, f 4;
#X obj 309 617 +;
#X floatatom 362 671 5 0 0 0 - - -, f 5;
#X obj 422 569 r edit_start_pulse;
#X connect 0 0 4 0;
#X connect 1 0 5 0;
#X connect 2 0 8 0;
#X connect 3 0 9 0;
#X connect 4 0 49 0;
#X connect 4 1 6 0;
#X connect 5 0 49 0;
#X connect 5 1 7 0;
#X connect 6 0 54 0;
#X connect 7 0 54 0;
#X connect 8 0 49 0;
#X connect 8 1 10 0;
#X connect 9 0 49 0;
#X connect 9 1 11 0;
#X connect 10 0 54 0;
#X connect 11 0 54 0;
#X connect 12 0 16 0;
#X connect 13 0 17 0;
#X connect 14 0 18 0;
#X connect 15 0 19 0;
#X connect 16 0 49 0;
#X connect 16 1 36 0;
#X connect 17 0 49 0;
#X connect 17 1 37 0;
#X connect 18 0 49 0;
#X connect 18 1 38 0;
#X connect 19 0 49 0;
#X connect 19 1 39 0;
#X connect 20 0 24 0;
#X connect 21 0 25 0;
#X connect 22 0 26 0;
#X connect 23 0 27 0;
#X connect 24 0 49 0;
#X connect 24 1 40 0;
#X connect 25 0 49 0;
#X connect 25 1 41 0;
#X connect 26 0 49 0;
#X connect 26 1 42 0;
#X connect 27 0 49 0;
#X connect 27 1 43 0;
#X connect 28 0 32 0;
#X connect 29 0 33 0;
#X connect 30 0 34 0;
#X connect 31 0 74 0;
#X connect 32 0 49 0;
#X connect 32 1 44 0;
#X connect 33 0 49 0;
#X connect 33 1 45 0;
#X connect 34 0 49 0;
#X connect 34 1 46 0;
#X connect 35 0 49 0;
#X connect 35 1 47 0;
#X connect 36 0 54 0;
#X connect 37 0 54 0;
#X connect 38 0 54 0;
#X connect 39 0 54 0;
#X connect 40 0 54 0;
#X connect 41 0 54 0;
#X connect 42 0 54 0;
#X connect 43 0 54 0;
#X connect 44 0 54 0;
#X connect 45 0 54 0;
#X connect 46 0 54 0;
#X connect 47 0 54 0;
#X connect 48 0 35 0;
#X connect 49 0 73 0;
#X connect 52 0 51 0;
#X connect 53 0 52 1;
#X connect 54 0 75 0;
#X connect 55 0 57 0;
#X connect 56 0 55 1;
#X connect 62 0 48 0;
#X connect 62 0 30 0;
#X connect 62 0 29 0;
#X connect 62 0 28 0;
#X connect 62 0 23 0;
#X connect 62 0 22 0;
#X connect 62 0 21 0;
#X connect 62 0 20 0;
#X connect 62 0 15 0;
#X connect 62 0 14 0;
#X connect 62 0 13 0;
#X connect 62 0 12 0;
#X connect 62 0 3 0;
#X connect 62 0 2 0;
#X connect 62 0 1 0;
#X connect 62 0 0 0;
#X connect 63 0 62 0;
#X connect 67 0 69 0;
#X connect 69 0 68 0;
#X connect 70 0 72 0;
#X connect 71 0 52 0;
#X connect 71 1 6 0;
#X connect 72 0 71 0;
#X connect 73 0 52 0;
#X connect 73 0 55 0;
#X connect 74 0 49 1;
#X connect 75 0 51 1;
#X connect 75 0 57 1;
#X connect 75 0 76 0;
#X connect 77 0 75 1;
#X coords 0 -1 1 1 450 300 1 0 0;
#X restore 3 119 pd lead_gui;
#N canvas 2017 87 1104 721 main_control_gui 0;
#X floatatom 559 47 5 0 0 0 - - -, f 5;
#X obj 670 217 r pulses_per_bar;
#X floatatom 671 258 5 0 0 0 - - -, f 5;
#X obj 647 302 *;
#X obj 648 178 - 1;
#X floatatom 671 351 5 0 0 0 - - -, f 5;
#X obj 671 454 s edit_start_pulse;
#X obj 11 48 tgl 15 0 metro_on empty empty 17 7 0 10 -262144 -1 -1
0 1;
#X text 5 33 On/off;
#X floatatom 84 48 5 0 0 0 - - -, f 5;
#X obj 84 69 s tempo;
#X text 76 32 Tempo;
#X floatatom 156 48 5 0 0 0 - - -, f 5;
#X obj 157 91 s density;
#X text 153 30 Density;
#X obj 381 175 mtof, f 5;
#X obj 271 48 hradio 16 1 0 12 empty empty empty 0 -8 0 10 -262144
-1 -1 0;
#X floatatom 326 130 5 0 0 0 - - -, f 5;
#X obj 411 107 + 24;
#X text 270 29 C;
#X text 282 30 Db;
#X text 334 30 E;
#X text 350 29 F;
#X text 365 30 F#;
#X text 385 29 G;
#X text 396 31 Ab;
#X text 415 32 A;
#X text 426 31 Bb;
#X text 448 31 B;
#X text 303 29 D;
#X text 317 30 Eb;
#X floatatom 327 106 5 0 0 0 - - -, f 5;
#X obj 375 208 s key;
#X text 470 45 Bar to edit;
#X text 237 28 Key:;
#X floatatom 559 84 5 0 0 0 - - -, f 5;
#X text 444 82 number of bars;
#X obj 548 173 s num_bars;
#X floatatom 653 47 5 0 0 0 - - -, f 5;
#X obj 665 128 s loop_start_bar;
#X obj 793 129 s loop_end_bar;
#X floatatom 652 70 5 0 0 0 - - -, f 5;
#X text 596 26 Loop:;
#X text 603 46 Start:;
#X text 618 67 End:;
#X floatatom 748 49 5 0 0 0 - - -, f 5;
#X floatatom 840 51 5 0 0 0 - - -, f 5;
#X obj 721 -47 r current_bar_num;
#X obj 870 -46 r current_pulse_num;
#X obj 720 -11 + 1;
#X obj 869 -6 + 1;
#X text 711 47 Bar:;
#X text 791 50 Pulse:;
#X connect 0 0 4 0;
#X connect 1 0 2 0;
#X connect 2 0 3 1;
#X connect 3 0 5 0;
#X connect 4 0 3 0;
#X connect 5 0 6 0;
#X connect 9 0 10 0;
#X connect 12 0 13 0;
#X connect 15 0 17 0;
#X connect 16 0 18 0;
#X connect 18 0 15 0;
#X connect 18 0 31 0;
#X connect 31 0 32 0;
#X connect 35 0 37 0;
#X connect 38 0 39 0;
#X connect 41 0 40 0;
#X connect 47 0 49 0;
#X connect 48 0 50 0;
#X connect 49 0 45 0;
#X connect 50 0 46 0;
#X coords 0 -1 1 1 920 100 1 0 20;
#X restore 2 10 pd main_control_gui;
#N canvas 1597 82 1440 846 arp_gui 0;
#X obj 641 750 spigot;
#X obj 931 792 tabwrite arpseq4_8ve_seq;
#X obj 33 131 vradio 15 1 0 7 empty empty empty 0 -8 0 10 -262144 -1
-1 1;
#X obj 53 131 vradio 15 1 0 7 empty empty empty 0 -8 0 10 -262144 -1
-1 2;
#X obj 75 132 vradio 15 1 0 7 empty empty empty 0 -8 0 10 -262144 -1
-1 3;
#X obj 98 132 vradio 15 1 0 7 empty empty empty 0 -8 0 10 -262144 -1
-1 2;
#X obj 23 357 t f b;
#X obj 41 330 t f b;
#X msg 74 396 0;
#X msg 77 371 1;
#X obj 52 309 t f b;
#X obj 68 288 t f b;
#X msg 90 345 2;
#X msg 100 316 3;
#X obj 126 131 vradio 15 1 0 7 empty empty empty 0 -8 0 10 -262144
-1 -1 1;
#X obj 146 132 vradio 15 1 0 7 empty empty empty 0 -8 0 10 -262144
-1 -1 3;
#X obj 167 132 vradio 15 1 0 7 empty empty empty 0 -8 0 10 -262144
-1 -1 2;
#X obj 187 131 vradio 15 1 0 7 empty empty empty 0 -8 0 10 -262144
-1 -1 2;
#X obj 139 364 t f b;
#X obj 157 337 t f b;
#X obj 168 316 t f b;
#X obj 187 290 t f b;
#X obj 217 132 vradio 15 1 0 7 empty empty empty 0 -8 0 10 -262144
-1 -1 2;
#X obj 237 132 vradio 15 1 0 7 empty empty empty 0 -8 0 10 -262144
-1 -1 2;
#X obj 258 133 vradio 15 1 0 7 empty empty empty 0 -8 0 10 -262144
-1 -1 1;
#X obj 280 133 vradio 15 1 0 7 empty empty empty 0 -8 0 10 -262144
-1 -1 1;
#X obj 258 370 t f b;
#X obj 264 341 t f b;
#X obj 263 314 t f b;
#X obj 262 286 t f b;
#X obj 311 133 vradio 15 1 0 7 empty empty empty 0 -8 0 10 -262144
-1 -1 3;
#X obj 331 132 vradio 15 1 0 7 empty empty empty 0 -8 0 10 -262144
-1 -1 4;
#X obj 352 132 vradio 15 1 0 7 empty empty empty 0 -8 0 10 -262144
-1 -1 3;
#X obj 422 115 vradio 15 1 0 8 empty empty empty 0 -8 0 10 -262144
-1 -1 3;
#X obj 373 375 t f b;
#X obj 377 343 t f b;
#X obj 389 314 t f b;
#X obj 393 286 t f b;
#X msg 180 404 4;
#X msg 195 380 5;
#X msg 206 353 6;
#X msg 221 318 7;
#X msg 296 400 8;
#X msg 307 365 9;
#X msg 319 328 10;
#X msg 319 298 11;
#X msg 420 390 12;
#X msg 429 356 13;
#X msg 438 331 14;
#X msg 445 304 15;
#X obj 374 132 vradio 15 1 0 7 empty empty empty 0 -8 0 10 -262144
-1 -1 2;
#X obj 70 491 +;
#X text 402 100 8ve adjust;
#X obj 77 623 spigot;
#X obj 110 588 tgl 15 0 empty write_chord1 empty 17 7 0 10 -262144
-1 -1 1 1;
#X obj 225 526 t f;
#X obj 233 643 spigot;
#X obj 251 588 tgl 15 0 empty write_chord2 empty 17 7 0 10 -262144
-1 -1 0 1;
#X obj 28 88 tgl 15 0 write_chord2 empty empty 17 7 0 10 -262144 -1
-1 0 1;
#X obj 26 56 tgl 15 0 write_chord1 empty empty 17 7 0 10 -262144 -1
-1 1 1;
#X text 45 55 write chord seq 1;
#X text 48 88 write chord seq 2;
#X obj 46 721 spigot;
#X obj 99 692 tgl 15 0 empty write_chord3 empty 17 7 0 10 -262144 -1
-1 0 1;
#X obj 519 785 spigot;
#X obj 470 736 tgl 15 0 empty write_chord4 empty 17 7 0 10 -262144
-1 -1 0 1;
#X obj 181 91 tgl 15 0 write_chord4 empty empty 17 7 0 10 -262144 -1
-1 0 1;
#X obj 179 59 tgl 15 0 write_chord3 empty empty 17 7 0 10 -262144 -1
-1 0 1;
#X text 200 58 write chord seq 3;
#X text 201 91 write chord seq 4;
#X msg 425 76 0;
#X obj 392 53 bng 15 250 50 0 empty empty empty 17 7 0 10 -262144 -1
-1;
#X text 421 53 reset;
#X obj 20 662 tabwrite arpeggio_sequence_1;
#X obj 251 675 tabwrite arpeggio_sequence_2;
#X obj 23 765 tabwrite arpeggio_sequence_3;
#X obj 695 794 tabwrite arpeggio_sequence_4;
#X obj 25 17 tgl 15 0 arpeggioplayer_on empty empty 17 7 0 10 -262144
-1 -1 1 1;
#X text 42 16 Arpeggio player;
#X obj 566 43 + 1;
#X obj 157 20 hradio 15 1 0 8 empty empty empty 0 -8 0 10 -262144 -1
-1 4;
#X obj 565 81 s arpeggio_sample_number;
#X obj 121 550 + 1;
#X obj 207 612 tabwrite arpseq1_8ve_seq;
#X obj 609 292 +;
#X obj 374 559 bng 15 250 50 0 empty empty empty 17 7 0 10 -262144
-1 -1;
#X obj 325 540 t f;
#X obj 140 623 spigot;
#X obj 366 644 spigot;
#X obj 140 710 spigot;
#X obj 425 624 tabwrite arpseq2_8ve_seq;
#X obj 117 736 tabwrite arpseq3_8ve_seq;
#X connect 0 0 1 0;
#X connect 2 0 6 0;
#X connect 3 0 7 0;
#X connect 4 0 10 0;
#X connect 5 0 11 0;
#X connect 6 0 51 0;
#X connect 6 1 8 0;
#X connect 7 0 51 0;
#X connect 7 1 9 0;
#X connect 8 0 55 0;
#X connect 8 0 85 0;
#X connect 8 0 86 0;
#X connect 9 0 55 0;
#X connect 9 0 85 0;
#X connect 9 0 86 0;
#X connect 10 0 51 0;
#X connect 10 1 12 0;
#X connect 11 0 51 0;
#X connect 11 1 13 0;
#X connect 12 0 55 0;
#X connect 12 0 85 0;
#X connect 12 0 86 0;
#X connect 13 0 55 0;
#X connect 13 0 85 0;
#X connect 13 0 86 0;
#X connect 14 0 18 0;
#X connect 15 0 19 0;
#X connect 16 0 20 0;
#X connect 17 0 21 0;
#X connect 18 0 51 0;
#X connect 18 1 38 0;
#X connect 19 0 51 0;
#X connect 19 1 39 0;
#X connect 20 0 51 0;
#X connect 20 1 40 0;
#X connect 21 0 51 0;
#X connect 21 1 41 0;
#X connect 22 0 26 0;
#X connect 23 0 27 0;
#X connect 24 0 28 0;
#X connect 25 0 29 0;
#X connect 26 0 51 0;
#X connect 26 1 42 0;
#X connect 27 0 51 0;
#X connect 27 1 43 0;
#X connect 28 0 51 0;
#X connect 28 1 44 0;
#X connect 29 0 51 0;
#X connect 29 1 45 0;
#X connect 30 0 34 0;
#X connect 31 0 35 0;
#X connect 32 0 36 0;
#X connect 33 0 84 1;
#X connect 34 0 51 0;
#X connect 34 1 46 0;
#X connect 35 0 51 0;
#X connect 35 1 47 0;
#X connect 36 0 51 0;
#X connect 36 1 48 0;
#X connect 37 0 51 0;
#X connect 37 1 49 0;
#X connect 38 0 55 0;
#X connect 38 0 85 0;
#X connect 38 0 86 0;
#X connect 39 0 55 0;
#X connect 39 0 85 0;
#X connect 39 0 86 0;
#X connect 40 0 55 0;
#X connect 40 0 85 0;
#X connect 40 0 86 0;
#X connect 41 0 55 0;
#X connect 41 0 85 0;
#X connect 41 0 86 0;
#X connect 42 0 55 0;
#X connect 42 0 85 0;
#X connect 42 0 86 0;
#X connect 43 0 55 0;
#X connect 43 0 85 0;
#X connect 43 0 86 0;
#X connect 44 0 55 0;
#X connect 44 0 85 0;
#X connect 44 0 86 0;
#X connect 45 0 55 0;
#X connect 45 0 85 0;
#X connect 45 0 86 0;
#X connect 46 0 55 0;
#X connect 46 0 85 0;
#X connect 46 0 86 0;
#X connect 47 0 55 0;
#X connect 47 0 85 0;
#X connect 47 0 86 0;
#X connect 48 0 55 0;
#X connect 48 0 85 0;
#X connect 48 0 86 0;
#X connect 49 0 55 0;
#X connect 49 0 85 0;
#X connect 49 0 86 0;
#X connect 50 0 37 0;
#X connect 51 0 82 0;
#X connect 53 0 73 0;
#X connect 54 0 53 1;
#X connect 54 0 87 1;
#X connect 55 0 73 1;
#X connect 55 0 74 1;
#X connect 55 0 75 1;
#X connect 55 0 76 1;
#X connect 56 0 74 0;
#X connect 57 0 56 1;
#X connect 57 0 88 1;
#X connect 62 0 75 0;
#X connect 63 0 62 1;
#X connect 63 0 89 1;
#X connect 64 0 76 0;
#X connect 65 0 64 1;
#X connect 65 0 0 1;
#X connect 70 0 2 0;
#X connect 70 0 3 0;
#X connect 70 0 4 0;
#X connect 70 0 5 0;
#X connect 70 0 14 0;
#X connect 70 0 15 0;
#X connect 70 0 16 0;
#X connect 70 0 17 0;
#X connect 70 0 22 0;
#X connect 70 0 23 0;
#X connect 70 0 24 0;
#X connect 70 0 25 0;
#X connect 70 0 30 0;
#X connect 70 0 31 0;
#X connect 70 0 32 0;
#X connect 70 0 50 0;
#X connect 71 0 70 0;
#X connect 79 0 81 0;
#X connect 80 0 79 0;
#X connect 82 0 53 0;
#X connect 82 0 62 0;
#X connect 82 0 56 0;
#X connect 82 0 64 0;
#X connect 84 0 87 0;
#X connect 84 0 88 0;
#X connect 84 0 89 0;
#X connect 84 0 0 0;
#X connect 85 0 84 0;
#X connect 86 0 83 1;
#X connect 86 0 90 1;
#X connect 86 0 91 1;
#X connect 86 0 1 1;
#X connect 87 0 83 0;
#X connect 88 0 90 0;
#X connect 89 0 91 0;
#X coords 0 -1 1 1 480 300 1 0 0;
#X restore 460 119 pd arp_gui;
#N canvas 1978 123 961 743 chordprog_gui 0;
#X text 16 159 Chord;
#X text 31 185 I;
#X text 29 199 ii;
#X text 23 217 iii;
#X text 24 232 IV;
#X text 33 247 V;
#X text 28 260 vi;
#X text 28 277 vii;
#X obj 55 174 vradio 15 1 0 8 empty empty empty 0 -8 0 10 -262144 -1
-1 0;
#X obj 74 175 vradio 15 1 0 8 empty empty empty 0 -8 0 10 -262144 -1
-1 0;
#X obj 96 176 vradio 15 1 0 8 empty empty empty 0 -8 0 10 -262144 -1
-1 0;
#X obj 119 176 vradio 15 1 0 8 empty empty empty 0 -8 0 10 -262144
-1 -1 0;
#X obj 145 176 vradio 15 1 0 8 empty empty empty 0 -8 0 10 -262144
-1 -1 0;
#X obj 165 177 vradio 15 1 0 8 empty empty empty 0 -8 0 10 -262144
-1 -1 0;
#X obj 186 177 vradio 15 1 0 8 empty empty empty 0 -8 0 10 -262144
-1 -1 0;
#X obj 206 176 vradio 15 1 0 8 empty empty empty 0 -8 0 10 -262144
-1 -1 0;
#X obj 236 177 vradio 15 1 0 8 empty empty empty 0 -8 0 10 -262144
-1 -1 0;
#X obj 256 177 vradio 15 1 0 8 empty empty empty 0 -8 0 10 -262144
-1 -1 0;
#X obj 277 178 vradio 15 1 0 8 empty empty empty 0 -8 0 10 -262144
-1 -1 0;
#X obj 299 178 vradio 15 1 0 8 empty empty empty 0 -8 0 10 -262144
-1 -1 0;
#X obj 330 178 vradio 15 1 0 8 empty empty empty 0 -8 0 10 -262144
-1 -1 0;
#X obj 350 177 vradio 15 1 0 8 empty empty empty 0 -8 0 10 -262144
-1 -1 0;
#X obj 371 177 vradio 15 1 0 8 empty empty empty 0 -8 0 10 -262144
-1 -1 0;
#X obj 438 178 vradio 15 1 0 8 empty empty empty 0 -8 0 10 -262144
-1 -1 0;
#X obj 393 177 vradio 15 1 0 8 empty empty empty 0 -8 0 10 -262144
-1 -1 0;
#X text 418 163 8ve adjust;
#X msg 599 137 0;
#X obj 379 130 bng 15 250 50 0 empty empty empty 17 7 0 10 -262144
-1 -1;
#X text 408 129 reset;
#X msg 62 441 0;
#X msg 178 444 4;
#X obj 57 588 tabwrite chordroot_sequence;
#X obj 284 589 tabwrite blockchord_8ve_sequence;
#X obj 51 413 t f b;
#X obj 169 414 t f b;
#X obj 259 416 t f b;
#X obj 355 412 t f b;
#X msg 270 444 8;
#X msg 364 442 12;
#X obj 442 465 bng 15 250 50 0 empty empty empty 17 7 0 10 -262144
-1 -1;
#X obj 474 483 +;
#X floatatom 532 516 5 0 0 0 - - -, f 5;
#X obj 533 340 tgl 15 0 blockchordplayer_on empty empty 17 7 0 10 -262144
-1 -1 0 1;
#X text 186 126 Chord player;
#X obj 687 376 + 1;
#X obj 692 340 hradio 15 1 0 8 empty empty empty 0 -8 0 10 -262144
-1 -1 0;
#X obj 684 413 s blockchord_sample_number;
#X text 34 9 Block chord array data is in the form of 0 for no chord
change? What does it mean to have no chord at a particular place? No
block chord to be played on that beat. That's actually quite important.
;
#X connect 8 0 33 0;
#X connect 12 0 34 0;
#X connect 16 0 35 0;
#X connect 20 0 36 0;
#X connect 23 0 40 1;
#X connect 26 0 8 0;
#X connect 26 0 9 0;
#X connect 26 0 10 0;
#X connect 26 0 11 0;
#X connect 26 0 12 0;
#X connect 26 0 13 0;
#X connect 26 0 14 0;
#X connect 26 0 15 0;
#X connect 26 0 16 0;
#X connect 26 0 17 0;
#X connect 26 0 18 0;
#X connect 26 0 19 0;
#X connect 26 0 20 0;
#X connect 26 0 21 0;
#X connect 26 0 22 0;
#X connect 26 0 24 0;
#X connect 27 0 26 0;
#X connect 29 0 31 1;
#X connect 29 0 32 1;
#X connect 29 0 39 0;
#X connect 30 0 31 1;
#X connect 30 0 32 1;
#X connect 30 0 39 0;
#X connect 33 0 31 0;
#X connect 33 1 29 0;
#X connect 34 0 31 0;
#X connect 34 1 30 0;
#X connect 35 0 31 0;
#X connect 35 1 37 0;
#X connect 36 0 31 0;
#X connect 36 1 38 0;
#X connect 37 0 31 1;
#X connect 37 0 32 1;
#X connect 37 0 39 0;
#X connect 38 0 31 1;
#X connect 38 0 32 1;
#X connect 38 0 39 0;
#X connect 39 0 40 0;
#X connect 40 0 32 0;
#X connect 40 0 41 0;
#X connect 44 0 46 0;
#X connect 45 0 44 0;
#X coords 0 -1 1 1 500 200 1 0 120;
#X restore 950 121 pd chordprog_gui;
#N canvas 1962 82 1007 970 reset_arrays 0;
#X obj 44 -29 inlet;
#X msg 52 371 \; blockchord_8ve_sequence 0 0 0 0 0 0 0 0 0 0 0 0 0
0 0 0 0;
#X msg 22 309 \; chordroot_sequence 0 0 0 0 0 0 0 0 0 0 0 0 0 0 0 0
0;
#X msg 20 14 \; lead_sequence 0 0 0 0 0 0 0 0 0 0 0 0 0 0 0 0 0;
#X msg 34 59 \; lead_sequence_2 0 0 0 0 0 0 0 0 0 0 0 0 0 0 0 0 0;
#X msg 64 154 \; arpeggio_sequence_2 0 0 0 0 0 0 0 0 0 0 0 0 0 0 0
0 0;
#X msg 53 107 \; arpeggio_sequence_1 0 0 0 0 0 0 0 0 0 0 0 0 0 0 0
0 0;
#X msg 21 210 \; arpeggio_sequence_3 0 0 0 0 0 0 0 0 0 0 0 0 0 0 0
0 0;
#X msg 34 253 \; arpeggio_sequence_4 0 0 0 0 0 0 0 0 0 0 0 0 0 0 0
0 0;
#X msg 64 418 \; arpseq1_8ve_seq 0 0 0 0 0 0 0 0 0 0 0 0 0 0 0 0 0
;
#X msg 80 467 \; arpseq2_8ve_seq 0 0 0 0 0 0 0 0 0 0 0 0 0 0 0 0 0
;
#X msg 93 520 \; arpseq3_8ve_seq 0 0 0 0 0 0 0 0 0 0 0 0 0 0 0 0 0
;
#X msg 108 572 \; arpseq4_8ve_seq 0 0 0 0 0 0 0 0 0 0 0 0 0 0 0 0 0
;
#X connect 0 0 3 0;
#X connect 0 0 4 0;
#X connect 0 0 6 0;
#X connect 0 0 5 0;
#X connect 0 0 7 0;
#X connect 0 0 8 0;
#X connect 0 0 2 0;
#X connect 0 0 1 0;
#X connect 0 0 9 0;
#X connect 0 0 10 0;
#X connect 0 0 11 0;
#X connect 0 0 12 0;
#X restore 1248 48 pd reset_arrays;
#X obj 1251 18 bng 15 250 50 0 empty empty empty 17 7 0 10 -262144
-1 -1;
#X text 1084 46 Get it all going!;
#X msg 945 4 \; density 4 \; num_beats 4 \; num_bars 4 \; tempo 112
\; init_samples bang \; metro_on 1;
#N canvas 2352 122 450 278 (subpatch) 0;
#X array lead_sequence 64 float 3;
#A 0 0 0 0 0 0 0 0 0 0 0 0 0 0 0 0 0 0 0 0 0 0 0 0 0 0 0 0 0 0 0 0
0 0 0 0 0 0 0 0 0 0 0 0 0 0 0 0 0 0 0 0 0 0 0 0 0 0 0 0 0 0 0 0 0;
#X coords 0 0 64 47 200 140 1 0 0;
#X restore 3 442 graph;
#N canvas 624 148 450 278 (subpatch) 0;
#X array lead_sequence_2 64 float 3;
#A 0 0 0 0 0 0 0 0 0 0 0 0 0 0 0 0 0 0 0 0 0 0 0 0 0 0 0 0 0 0 0 0
0 0 0 0 0 0 0 0 0 0 0 0 0 0 0 0 0 0 0 0 0 0 0 0 0 0 0 0 0 0 0 0 0;
#X coords 0 0 64 47 200 140 1 0 0;
#X restore 1 611 graph;
#N canvas 624 148 450 278 (subpatch) 0;
#X array arpeggio_sequence_1 64 float 3;
#A 0 0 0 0 0 0 0 0 0 0 0 0 0 0 0 0 0 0 0 0 0 0 0 0 0 0 0 0 0 0 0 0
0 0 0 0 0 0 0 0 0 0 0 0 0 0 0 0 0 0 0 0 0 0 0 0 0 0 0 0 0 0 0 0 0;
#X coords 0 0 64 100 200 140 1 0 0;
#X restore 464 442 graph;
#N canvas 624 148 450 278 (subpatch) 0;
#X array arpeggio_sequence_2 64 float 3;
#A 0 0 0 0 0 0 0 0 0 0 0 0 0 0 0 0 0 0 0 0 0 0 0 0 0 0 0 0 0 0 0 0
0 0 0 0 0 0 0 0 0 0 0 0 0 0 0 0 0 0 0 0 0 0 0 0 0 0 0 0 0 0 0 0 0;
#X coords 0 0 64 100 200 140 1 0 0;
#X restore 465 610 graph;
#N canvas 624 148 450 278 (subpatch) 0;
#X array arpeggio_sequence_4 64 float 3;
#A 0 0 0 0 0 0 0 0 0 0 0 0 0 0 0 0 0 0 0 0 0 0 0 0 0 0 0 0 0 0 0 0
0 0 0 0 0 0 0 0 0 0 0 0 0 0 0 0 0 0 0 0 0 0 0 0 0 0 0 0 0 0 0 0 0;
#X coords 0 0 64 100 200 140 1 0 0;
#X restore 467 936 graph;
#N canvas 624 148 450 278 (subpatch) 0;
#X array arpeggio_sequence_3 64 float 3;
#A 0 0 0 0 0 0 0 0 0 0 0 0 0 0 0 0 0 0 0 0 0 0 0 0 0 0 0 0 0 0 0 0
0 0 0 0 0 0 0 0 0 0 0 0 0 0 0 0 0 0 0 0 0 0 0 0 0 0 0 0 0 0 0 0 0;
#X coords 0 0 64 100 200 140 1 0 0;
#X restore 468 779 graph;
#N canvas 1793 230 450 278 (subpatch) 0;
#X array arpseq2_8ve_seq 64 float 3;
#A 0 0 0 0 0 0 0 0 0 0 0 0 0 0 0 0 0 0 0 0 0 0 0 0 0 0 0 0 0 0 0 0
0 0 0 0 0 0 0 0 0 0 0 0 0 0 0 0 0 0 0 0 0 0 0 0 0 0 0 0 0 0 0 0 0;
#X coords 0 0 64 100 200 140 1 0 0;
#X restore 675 611 graph;
#N canvas 1793 230 450 278 (subpatch) 0;
#X array arpseq3_8ve_seq 64 float 3;
#A 0 0 0 0 0 0 0 0 0 0 0 0 0 0 0 0 0 0 0 0 0 0 0 0 0 0 0 0 0 0 0 0
0 0 0 0 0 0 0 0 0 0 0 0 0 0 0 0 0 0 0 0 0 0 0 0 0 0 0 0 0 0 0 0 0;
#X coords 0 0 64 100 200 140 1 0 0;
#X restore 680 785 graph;
#N canvas 1793 230 450 278 (subpatch) 0;
#X array arpseq4_8ve_seq 64 float 3;
#A 0 0 0 0 0 0 0 0 0 0 0 0 0 0 0 0 0 0 0 0 0 0 0 0 0 0 0 0 0 0 0 0
0 0 0 0 0 0 0 0 0 0 0 0 0 0 0 0 0 0 0 0 0 0 0 0 0 0 0 0 0 0 0 0 0;
#X coords 0 0 64 100 200 140 1 0 0;
#X restore 681 944 graph;
#N canvas 1793 230 450 278 (subpatch) 0;
#X array arpseq1_8ve_seq 64 float 3;
#A 0 0 0 0 0 0 0 0 0 0 0 0 0 0 0 0 0 0 0 0 0 0 0 0 0 0 0 0 0 0 0 0
0 0 0 0 0 0 0 0 0 0 0 0 0 0 0 0 0 0 0 0 0 0 0 0 0 0 0 0 0 0 0 0 0;
#X coords 0 0 64 100 200 140 1 0 0;
#X restore 672 443 graph;
#N canvas 624 148 450 278 (subpatch) 0;
#X array chordroot_sequence 64 float 3;
#A 0 0 0 0 0 0 0 0 0 0 0 0 0 0 0 0 0 0 0 0 0 0 0 0 0 0 0 0 0 0 0 0
0 0 0 0 0 0 0 0 0 0 0 0 0 0 0 0 0 0 0 0 0 0 0 0 0 0 0 0 0 0 0 0 0;
#X coords 0 0 64 100 200 140 1 0 0;
#X restore 957 351 graph;
#N canvas 1793 230 450 278 (subpatch) 0;
#X array blockchord_8ve_sequence 64 float 3;
#A 0 0 0 0 0 0 0 0 0 0 0 0 0 0 0 0 0 0 0 0 0 0 0 0 0 0 0 0 0 0 0 0
0 0 0 0 0 0 0 0 0 0 0 0 0 0 0 0 0 0 0 0 0 0 0 0 0 0 0 0 0 0 0 0 0;
#X coords 0 0 64 100 200 140 1 0 0;
#X restore 957 516 graph;
#X connect 5 0 4 0;
#X coords 0 1026 1 1025 1400 280 0;
#X restore 557 -26 pd gui;
#N canvas 47 132 580 575 leadplayer 0;
#X obj 184 21 inlet;
#X obj 34 101 tabread lead_sequence;
#X floatatom 37 249 5 0 0 0 - - -, f 5;
#X floatatom 37 322 5 0 0 0 - - -, f 5;
#X obj 42 176 - 1;
#X obj 42 216 moses 0;
#X obj 37 354 + 12;
#X obj 41 464 s note 60 90 150 2 0;
#X floatatom 193 296 5 0 0 0 - - -, f 5;
#X text 229 275 amplitude;
#X text 231 318 sample number;
#X text 231 295 duration (msec);
#X text 232 341 start location (msec);
#X text 231 362 rise time (msec);
#X text 233 382 decay time (msec);
#X floatatom 193 275 5 0 0 0 - - -, f 5;
#X floatatom 195 318 5 0 0 0 - - -, f 5;
#X floatatom 196 341 5 0 0 0 - - -, f 5;
#X floatatom 197 362 5 0 0 0 - - -, f 5;
#X floatatom 197 384 5 0 0 0 - - -, f 5;
#X obj 40 428 pack 60 90 150 1 0 10 10;
#X text 172 464 sends note to lead_player;
#X obj 70 281 tabread scale;
#X obj 231 102 tabread lead_sequence_2;
#X obj 360 304 r lead_sample_number;
#X connect 0 0 1 0;
#X connect 0 0 23 0;
#X connect 1 0 4 0;
#X connect 2 0 22 0;
#X connect 3 0 6 0;
#X connect 4 0 5 0;
#X connect 5 1 2 0;
#X connect 6 0 20 0;
#X connect 8 0 20 2;
#X connect 15 0 20 1;
#X connect 16 0 20 3;
#X connect 17 0 20 4;
#X connect 18 0 20 5;
#X connect 19 0 20 6;
#X connect 20 0 7 0;
#X connect 22 0 3 0;
#X connect 23 0 4 0;
#X connect 24 0 16 0;
#X restore 877 406 pd leadplayer;
#X obj 993 446 main_sample_synth;
#N canvas 921 102 661 728 scale_chord_arrays 0;
#N canvas 0 87 450 300 (subpatch) 0;
#X array scale 96 float 3;
#A 0 26 28 30 31 33 35 37 38 40 42 43 45 47 49 50 52 54 55 57 59 61
62 64 66 67 69 71 73 74 76 78 79 81 83 85 86 88 90 91 93 95 97 98 100
102 103 105 107 109 110 112 114 115 117 119 121 122 124 126 127 129
131 133 134 136 138 139 141 143 145 146 148 150 151 153 155 157 158
160 162 163 165 167 169 170 172 174 175 177 179 181 182 184 186 187
191;
#X coords 0 0 96 200 200 140 1 0 0;
#X restore -19 141 graph;
#N canvas 0 50 450 278 (subpatch) 0;
#X array scale_struct 7 float 3;
#A 0 2 2 1 2 2 2 1;
#X coords 0 0 7 12 200 140 1 0 0;
#X restore -21 -30 graph;
#N canvas 0 50 450 278 (subpatch) 0;
#X array blockchordtones 48 float 3;
#A 0 191 191 191 191 191 191 191 191 191 191 191 191 191 191 191 191
191 191 191 191 191 191 191 191 191 191 191 191 191 191 191 191 191
191 191 191 191 191 191 191 191 191 191 191 191 191 191 191;
#X coords 0 0 47 200 200 140 1 0 0;
#X restore 415 -27 graph;
#N canvas 0 50 450 278 (subpatch) 0;
#X array arp2chordtones 48 float 3;
#A 0 26 30 33 37 40 43 47 50 54 57 61 64 67 71 74 78 81 85 88 91 95
98 102 105 109 112 115 119 122 126 129 133 136 139 143 146 150 153
157 160 163 167 170 174 177 181 184 26;
#X coords 0 0 47 200 200 140 1 0 0;
#X restore 198 143 graph;
#N canvas 0 50 450 278 (subpatch) 0;
#X array chordtones 48 float 3;
#A 0 31 35 38 41 45 48 52 55 59 62 65 69 72 76 79 83 86 89 93 96 100
103 107 110 113 117 120 124 127 131 134 137 141 144 148 151 155 158
161 165 168 172 175 179 182 185 189 189;
#X coords 0 0 47 200 200 140 1 0 0;
#X restore -20 319 graph;
#N canvas 0 50 450 278 (subpatch) 0;
#X array arp3chordtones 48 float 3;
#A 0 26 30 33 37 40 43 47 50 54 57 61 64 67 71 74 78 81 85 88 91 95
98 102 105 109 112 115 119 122 126 129 133 136 139 143 146 150 153
157 160 163 167 170 174 177 181 184 26;
#X coords 0 0 47 200 200 140 1 0 0;
#X restore 193 325 graph;
#N canvas 0 50 450 278 (subpatch) 0;
#X array arp4chordtones 48 float 3;
#A 0 26 30 33 37 40 43 47 50 54 57 61 64 67 71 74 78 81 85 88 91 95
98 102 105 109 112 115 119 122 126 129 133 136 139 143 146 150 153
157 160 163 167 170 174 177 181 184 26;
#X coords 0 0 47 200 200 140 1 0 0;
#X restore 192 504 graph;
#N canvas 0 50 450 278 (subpatch) 0;
#X array arp1chordtones 48 float 3;
#A 0 26 30 33 37 40 43 47 50 54 57 61 64 67 71 74 78 81 85 88 91 95
98 102 105 109 112 115 119 122 126 129 133 136 139 143 146 150 153
157 160 163 167 170 174 177 181 184 26;
#X coords 0 0 47 200 200 140 1 0 0;
#X restore 197 -29 graph;
#X restore 56 423 pd scale_chord_arrays;
#X obj 998 547 dac~;
#X obj 972 486 catch~ sigL;
#X obj 1096 487 catch~ sigR;
#X obj 1038 548 output~;
#X text 21 159 Semitone intervals of scale;
#X text 20 236 Which is used to write a scale from a particular tonic:
;
#N canvas 1600 54 1440 846 arpeggioplayer 0;
#X obj 55 8 inlet;
#X floatatom 55 621 5 0 0 0 - - -, f 5;
#X obj 56 766 s note 60 90 150 2 0;
#X floatatom 226 603 5 0 0 0 - - -, f 5;
#X text 262 582 amplitude;
#X text 264 625 sample number;
#X text 264 602 duration (msec);
#X text 265 648 start location (msec);
#X text 264 669 rise time (msec);
#X text 266 689 decay time (msec);
#X floatatom 226 582 5 0 0 0 - - -, f 5;
#X floatatom 228 624 5 0 0 0 - - -, f 5;
#X floatatom 229 648 5 0 0 0 - - -, f 5;
#X floatatom 230 669 5 0 0 0 - - -, f 5;
#X floatatom 230 691 5 0 0 0 - - -, f 5;
#X obj 56 726 pack 60 90 150 1 0 10 10;
#X text 231 774 sends note to lead_player;
#X obj 39 304 tabread arpeggio_sequence_1;
#X obj 460 601 r arpeggio_sample_number;
#X text 1473 6 A "0" indicates not to play at all on that beat \; "1-7"
represents chord tones moving in thirds \, so 1 is the tonic \, 2 the
3rd \, 3 the 5th \, 4 the 7th \, 5 the 9th \, 6 the 11th and 7 the
13th.;
#X obj 34 371 moses 1;
#X obj 128 246 tabread arpseq1_8ve_seq;
#X obj 55 403 - 1;
#X text 86 403 Arpseq has 1 as root \, 2 as 3rd and so on \, so need
to adjust for chordtone rep \, where root is at index 0 \, 3rd at 1
\, and so on;
#X obj 128 277 s arpeggiostartoctave;
#X obj 1174 39 tabread chordroot_sequence;
#X obj 1254 143 s chord;
#X obj 1220 103 t b f;
#X obj 1200 142 bng 15 250 50 0 empty empty empty 17 7 0 10 -262144
-1 -1;
#X obj 1280 73 moses 1;
#X text 1161 8 Set the chord;
#X text 259 122 Set the array;
#X text 128 225 Set correct octave;
#X obj 252 202 s arparraytowrite;
#X msg 252 141 arp1chordtones;
#X obj 252 172 pack s;
#X obj 352 26 t f f f f f;
#X obj 55 527 tabread arp1chordtones;
#X obj 497 376 moses 1;
#X obj 543 408 - 1;
#X obj 595 271 s arpeggiostartoctave;
#X text 617 156 Set the array;
#X text 458 250 Set correct octave;
#X obj 724 201 s arparraytowrite;
#X obj 724 171 pack s;
#X obj 488 310 tabread arpeggio_sequence_2;
#X obj 595 240 tabread arpseq2_8ve_seq;
#X msg 725 140 arp2chordtones;
#X obj 528 519 tabread arp2chordtones;
#X obj 890 473 moses 1;
#X obj 916 504 - 1;
#X obj 999 354 s arpeggiostartoctave;
#X text 1000 219 Set the array;
#X text 862 333 Set correct octave;
#X obj 1110 265 s arparraytowrite;
#X obj 1110 233 pack s;
#X obj 1019 180 t f f f b;
#X msg 1108 203 arp3chordtones;
#X obj 998 323 tabread arpseq3_8ve_seq;
#X obj 892 393 tabread arpeggio_sequence_3;
#X obj 855 606 tabread arp3chordtones;
#X obj 1330 519 moses 1;
#X obj 1283 566 - 1;
#X obj 1396 393 s arpeggiostartoctave;
#X text 1397 258 Set the array;
#X text 1259 372 Set correct octave;
#X obj 1506 305 s arparraytowrite;
#X obj 1504 273 pack s;
#X obj 1416 219 t f f f b;
#X msg 1505 242 arp4chordtones;
#X obj 1395 362 tabread arpseq4_8ve_seq;
#X obj 1319 434 tabread arpeggio_sequence_4;
#X obj 1252 645 tabread arp4chordtones;
#X floatatom 1156 83 5 0 0 0 - - -, f 5;
#X obj 196 77 t f f b;
#X obj 539 104 t f f b;
#X obj 98 338 t f b;
#X obj 204 373 s writearpchordtonearray;
#X obj 561 349 t f b;
#X obj 667 384 s writearpchordtonearray;
#X obj 209 347 bng 15 250 50 0 empty empty empty 17 7 0 10 -262144
-1 -1;
#X floatatom 80 277 5 0 0 0 - - -, f 5;
#X obj 977 429 t f b;
#X obj 1083 464 s writearpchordtonearray;
#X obj 1378 486 t f b;
#X obj 1484 521 s writearpchordtonearray;
#X connect 0 0 36 0;
#X connect 1 0 15 0;
#X connect 3 0 15 2;
#X connect 10 0 15 1;
#X connect 11 0 15 3;
#X connect 12 0 15 4;
#X connect 13 0 15 5;
#X connect 14 0 15 6;
#X connect 15 0 2 0;
#X connect 17 0 76 0;
#X connect 18 0 11 0;
#X connect 20 1 22 0;
#X connect 21 0 24 0;
#X connect 21 0 81 0;
#X connect 22 0 37 0;
#X connect 25 0 29 0;
#X connect 25 0 73 0;
#X connect 27 0 28 0;
#X connect 27 1 26 0;
#X connect 29 1 27 0;
#X connect 34 0 35 0;
#X connect 35 0 33 0;
#X connect 36 0 68 0;
#X connect 36 1 56 0;
#X connect 36 2 75 0;
#X connect 36 3 74 0;
#X connect 36 4 25 0;
#X connect 37 0 1 0;
#X connect 38 1 39 0;
#X connect 39 0 48 0;
#X connect 44 0 43 0;
#X connect 45 0 78 0;
#X connect 46 0 40 0;
#X connect 47 0 44 0;
#X connect 48 0 15 0;
#X connect 49 1 50 0;
#X connect 50 0 60 0;
#X connect 55 0 54 0;
#X connect 56 1 59 0;
#X connect 56 2 58 0;
#X connect 56 3 57 0;
#X connect 57 0 55 0;
#X connect 58 0 51 0;
#X connect 59 0 82 0;
#X connect 60 0 15 0;
#X connect 61 1 62 0;
#X connect 62 0 72 0;
#X connect 67 0 66 0;
#X connect 68 1 71 0;
#X connect 68 2 70 0;
#X connect 68 3 69 0;
#X connect 69 0 67 0;
#X connect 70 0 63 0;
#X connect 71 0 84 0;
#X connect 72 0 15 0;
#X connect 74 0 17 0;
#X connect 74 1 21 0;
#X connect 74 2 34 0;
#X connect 75 0 45 0;
#X connect 75 1 46 0;
#X connect 75 2 47 0;
#X connect 76 0 20 0;
#X connect 76 1 80 0;
#X connect 78 0 38 0;
#X connect 78 1 79 0;
#X connect 80 0 77 0;
#X connect 82 0 49 0;
#X connect 82 1 83 0;
#X connect 84 0 61 0;
#X connect 84 1 85 0;
#X restore 987 407 pd arpeggioplayer;
#N canvas 2077 87 960 818 blockchordplayer 0;
#X obj 92 25 inlet;
#X floatatom 185 466 5 0 0 0 - - -, f 5;
#X obj 338 464 moses 0;
#X obj 77 685 s note 60 90 150 2 0;
#X floatatom 229 517 5 0 0 0 - - -, f 5;
#X text 265 496 amplitude;
#X text 267 539 sample number;
#X text 267 516 duration (msec);
#X text 268 562 start location (msec);
#X text 267 583 rise time (msec);
#X text 269 603 decay time (msec);
#X floatatom 229 496 5 0 0 0 - - -, f 5;
#X floatatom 231 538 5 0 0 0 - - -, f 5;
#X floatatom 232 562 5 0 0 0 - - -, f 5;
#X floatatom 233 583 5 0 0 0 - - -, f 5;
#X floatatom 233 605 5 0 0 0 - - -, f 5;
#X obj 76 649 pack 60 90 150 1 0 10 10;
#X text 239 685 sends note to lead_player;
#X obj 64 241 tabread chordroot_sequence;
#X obj 99 352 s chord;
#X obj 66 304 t b f;
#X text 394 122 read which octave chord should be in;
#X obj 400 159 tabread blockchord_8ve_sequence;
#X text 324 332 play the root;
#X text 564 304 play the 3rd;
#X text 698 303 play the 5th;
#X obj 428 330 +;
#X obj 567 331 + 1;
#X obj 705 332 + 2;
#X obj 469 523 r blockchord_sample_number;
#X floatatom 709 458 5 0 0 0 - - -, f 5;
#X floatatom 451 463 5 0 0 0 - - -, f 5;
#X floatatom 574 462 5 0 0 0 - - -, f 5;
#X obj 49 357 bng 15 250 50 0 empty empty empty 17 7 0 10 -262144 -1
-1;
#X floatatom 74 174 5 0 0 0 - - -, f 5;
#X floatatom 27 279 5 0 0 0 - - -, f 5;
#X floatatom 350 253 5 0 0 0 - - -, f 5;
#X obj 494 244 bng 15 250 50 0 empty empty empty 17 7 0 10 -262144
-1 -1;
#X obj 443 200 moses 1;
#X floatatom 855 458 5 0 0 0 - - -, f 5;
#X text 874 306 play the 7th;
#X obj 881 330 + 3;
#X obj 126 274 moses 1;
#X obj 540 62 tabread blockchord_8ve_sequence;
#X obj 257 62 t f f f;
#X msg 541 253 0;
#X obj 586 98 s blockchordstartoctave;
#X obj 422 376 tabread blockchordtones;
#X obj 627 377 tabread blockchordtones;
#X obj 815 373 tabread blockchordtones;
#X obj 1002 376 tabread blockchordtones;
#X connect 0 0 44 0;
#X connect 1 0 16 0;
#X connect 4 0 16 2;
#X connect 11 0 16 1;
#X connect 12 0 16 3;
#X connect 13 0 16 4;
#X connect 14 0 16 5;
#X connect 15 0 16 6;
#X connect 16 0 3 0;
#X connect 18 0 35 0;
#X connect 18 0 42 0;
#X connect 20 0 33 0;
#X connect 22 0 38 0;
#X connect 22 0 36 0;
#X connect 26 0 47 0;
#X connect 27 0 48 0;
#X connect 28 0 49 0;
#X connect 29 0 12 0;
#X connect 38 1 37 0;
#X connect 38 1 45 0;
#X connect 41 0 50 0;
#X connect 42 0 19 0;
#X connect 42 1 20 0;
#X connect 43 0 46 0;
#X connect 44 0 22 0;
#X connect 44 1 18 0;
#X connect 44 1 34 0;
#X connect 44 2 43 0;
#X connect 45 0 26 0;
#X connect 45 0 27 0;
#X connect 45 0 28 0;
#X connect 45 0 41 0;
#X connect 47 0 31 0;
#X connect 47 0 1 0;
#X connect 48 0 32 0;
#X connect 48 0 1 0;
#X connect 49 0 30 0;
#X connect 49 0 1 0;
#X connect 50 0 39 0;
#X connect 50 0 1 0;
#X restore 1218 283 pd blockchordplayer;
#X obj 1219 243 spigot;
#X obj 1255 214 tgl 15 0 empty blockchordplayer_on empty 17 7 0 10
-262144 -1 -1 0 1;
#X text 29 301 Which results in the appropriate arrays being written
for scales and chord tones;
#X text 18 379 And that is used to fill an array with chord tones for
particular chords in that key:;
#X text 15 458 These are the arrays that hold sequence information:
;
#N canvas 791 97 800 818 main_pulse 0;
#X obj 295 228 metro;
#X floatatom 261 110 5 0 0 0 - - -, f 5;
#X floatatom 290 184 5 0 0 0 - - -, f 5;
#X obj 292 263 bng 15 250 50 0 empty empty empty 17 7 0 10 -262144
-1 -1;
#X obj 258 203 tgl 15 0 empty metro_on empty 17 7 0 10 -262144 -1 -1
0 1;
#X obj 288 148 expr 60000/$f1/$f2;
#X obj 320 82 int;
#X floatatom 370 115 5 0 0 0 - - -, f 5;
#X obj 322 122 bng 15 250 50 0 empty empty empty 17 7 0 10 -262144
-1 -1;
#X obj 336 35 r density;
#X obj 245 36 r tempo;
#X obj 399 255 + 1;
#X obj 374 296 % 16;
#X obj 359 254 int;
#X obj 374 331 s beatnum;
#X msg 416 113 4;
#X floatatom 280 82 5 0 0 0 - - -, f 5;
#X obj 319 390 outlet;
#X text 75 37 Overall tempo control;
#X text 406 35 subdivision per beat;
#X text -29 201 Receives metro_on as main on/off switch;
#X obj 579 94 r num_beats;
#X floatatom 586 137 5 0 0 0 - - -, f 5;
#X obj 566 188 expr $f1 * $f2;
#X obj 505 131 bng 15 250 50 0 empty empty empty 17 7 0 10 -262144
-1 -1;
#X obj 495 96 t b f;
#X floatatom 530 246 5 0 0 0 - - -, f 5;
#X text 581 245 Number of pulses per bar;
#X obj 539 294 s pulses_per_bar;
#X connect 0 0 3 0;
#X connect 0 0 13 0;
#X connect 1 0 5 0;
#X connect 2 0 0 1;
#X connect 4 0 0 0;
#X connect 5 0 2 0;
#X connect 6 0 7 0;
#X connect 6 0 8 0;
#X connect 7 0 5 1;
#X connect 8 0 5 0;
#X connect 9 0 6 0;
#X connect 9 0 16 0;
#X connect 9 0 25 0;
#X connect 10 0 1 0;
#X connect 11 0 13 1;
#X connect 12 0 14 0;
#X connect 12 0 17 0;
#X connect 13 0 12 0;
#X connect 13 0 11 0;
#X connect 15 0 5 1;
#X connect 21 0 22 0;
#X connect 22 0 23 0;
#X connect 23 0 26 0;
#X connect 24 0 23 0;
#X connect 25 0 24 0;
#X connect 25 1 23 1;
#X connect 26 0 12 1;
#X connect 26 0 28 0;
#X restore 910 170 pd main_pulse;
#X obj 988 275 t f f f;
#N canvas 167 262 626 818 blockchordtone_calc 0;
#X obj 119 424 int;
#X obj 179 420 + 2;
#X floatatom 104 478 5 0 0 0 - - -, f 5;
#X obj 200 290 bng 15 250 50 0 empty empty empty 17 7 0 10 -262144
-1 -1;
#X obj 82 540 tabread scale;
#X floatatom 51 579 5 0 0 0 - - -, f 5;
#X obj 240 422 int;
#X obj 295 425 + 1;
#X msg 255 253 0;
#X obj 178 391 t b b;
#X floatatom 258 466 5 0 0 0 - - -, f 5;
#X obj 404 470 select 48;
#X obj 202 331 until;
#X obj 238 92 r chord;
#X msg 176 26 2;
#X msg 229 26 5;
#X obj 195 60 s chord;
#X obj 187 183 t float float;
#X msg 135 51 1;
#X obj 237 132 - 1;
#X obj 84 219 * 7;
#X obj 80 312 +;
#X msg 33 155 1;
#X msg 39 196 2;
#X obj 45 93 r blockchordstartoctave;
#X obj 94 613 tabwrite blockchordtones;
#X connect 0 0 1 0;
#X connect 0 0 2 0;
#X connect 1 0 0 1;
#X connect 2 0 4 0;
#X connect 3 0 12 0;
#X connect 4 0 5 0;
#X connect 4 0 25 0;
#X connect 6 0 7 0;
#X connect 6 0 10 0;
#X connect 6 0 25 1;
#X connect 7 0 6 1;
#X connect 7 0 11 0;
#X connect 8 0 6 1;
#X connect 8 0 3 0;
#X connect 9 0 0 0;
#X connect 9 1 6 0;
#X connect 11 0 12 1;
#X connect 12 0 9 0;
#X connect 13 0 19 0;
#X connect 14 0 16 0;
#X connect 15 0 16 0;
#X connect 17 0 8 0;
#X connect 17 1 21 1;
#X connect 18 0 16 0;
#X connect 19 0 17 0;
#X connect 20 0 21 0;
#X connect 21 0 0 1;
#X connect 22 0 20 0;
#X connect 23 0 20 0;
#X connect 24 0 20 0;
#X restore 59 344 pd blockchordtone_calc;
#X msg 571 368 1;
#X msg 572 396 2;
#X msg 574 421 3;
#X msg 574 446 4;
#X msg 575 472 5;
#X msg 574 499 6;
#X msg 574 528 7;
#X obj 665 467 s chord;
#N canvas 340 299 567 533 chordprog 0;
#X obj 92 25 inlet;
#X obj 92 77 tabread chordroot_sequence;
#X obj 127 217 s chord;
#X obj 94 169 t b f;
#X obj 77 222 bng 15 250 50 0 empty empty empty 17 7 0 10 -262144 -1
-1;
#X floatatom 55 144 5 0 0 0 - - -, f 5;
#X obj 154 139 moses 1;
#X connect 0 0 1 0;
#X connect 1 0 5 0;
#X connect 1 0 6 0;
#X connect 3 0 4 0;
#X connect 3 1 2 0;
#X connect 6 1 3 0;
#X restore 1122 408 pd chordprog;
#N canvas 0 82 1086 805 arpchordtone_calc 0;
#X obj 117 440 int;
#X obj 177 436 + 2;
#X floatatom 102 494 5 0 0 0 - - -, f 5;
#X obj 198 306 bng 15 250 50 0 empty empty empty 17 7 0 10 -262144
-1 -1;
#X obj 80 556 tabread scale;
#X floatatom 34 604 5 0 0 0 - - -, f 5;
#X obj 238 438 int;
#X obj 293 441 + 1;
#X msg 253 269 0;
#X obj 176 407 t b b;
#X floatatom 256 482 5 0 0 0 - - -, f 5;
#X obj 365 419 select 48;
#X obj 200 347 until;
#X obj 299 67 r chord;
#X msg 468 75 2;
#X msg 528 75 5;
#X obj 494 109 s chord;
#X obj 248 158 t float float;
#X msg 434 100 1;
#X obj 298 107 - 1;
#X obj 85 166 * 7;
#X obj 89 211 +;
#X msg 29 118 1;
#X msg 29 140 2;
#X obj 52 51 r arpeggiostartoctave;
#X text 7 6 Arpeggio player chordtone setter;
#X floatatom 89 78 5 0 0 0 - - -, f 5;
#X obj 92 629 tabwrite arp1chordtones;
#X obj 460 474 pack s;
#X msg 408 546 set \$1;
#X obj 486 370 r arparraytowrite;
#X obj 81 267 t b f;
#X obj 503 525 print;
#X obj 356 122 bng 15 250 50 0 empty empty empty 17 7 0 10 -262144
-1 -1;
#X obj 297 225 r writearpchordtonearray;
#X obj 582 234 s writearpchordtonearray;
#X obj 579 186 bng 15 250 50 0 empty empty empty 17 7 0 10 -262144
-1 -1;
#X floatatom 230 215 5 0 0 0 - - -, f 5;
#X floatatom 33 246 5 0 0 0 - - -, f 5;
#X msg 370 464 0;
#X floatatom 109 357 5 0 0 0 - - -, f 5;
#X obj 60 477 bng 15 250 50 0 empty empty empty 17 7 0 10 -262144 -1
-1;
#X connect 0 0 1 0;
#X connect 0 0 2 0;
#X connect 0 0 41 0;
#X connect 1 0 0 1;
#X connect 2 0 4 0;
#X connect 3 0 12 0;
#X connect 4 0 5 0;
#X connect 4 0 27 0;
#X connect 6 0 7 0;
#X connect 6 0 10 0;
#X connect 6 0 27 1;
#X connect 7 0 6 1;
#X connect 7 0 11 0;
#X connect 8 0 6 1;
#X connect 8 0 3 0;
#X connect 9 0 0 0;
#X connect 9 1 6 0;
#X connect 11 0 12 1;
#X connect 11 0 40 0;
#X connect 12 0 9 0;
#X connect 13 0 19 0;
#X connect 13 0 33 0;
#X connect 14 0 16 0;
#X connect 15 0 16 0;
#X connect 17 0 37 0;
#X connect 17 1 21 1;
#X connect 18 0 16 0;
#X connect 19 0 17 0;
#X connect 20 0 21 0;
#X connect 21 0 31 0;
#X connect 21 0 38 0;
#X connect 22 0 20 0;
#X connect 23 0 20 0;
#X connect 24 0 20 0;
#X connect 24 0 26 0;
#X connect 28 0 29 0;
#X connect 29 0 27 0;
#X connect 30 0 28 0;
#X connect 31 1 40 0;
#X connect 34 0 8 0;
#X connect 36 0 35 0;
#X connect 40 0 0 1;
#X restore 373 344 pd arpchordtone_calc;
#N canvas 1483 98 800 922 bars 1;
#X obj 532 65 r num_bars;
#X msg 550 216 \; lead_sequence resize \$1 \; lead_sequence_2 resize
\$1;
#X obj 32 166 inlet;
#X obj 134 594 outlet;
#X obj 34 594 outlet;
#X obj 149 350 + 1;
#X obj 108 262 moses 1;
#X floatatom 119 498 5 0 0 0 - - -, f 5;
#X obj 108 307 bng 15 250 50 0 empty empty empty 17 7 0 10 -262144
-1 -1;
#X obj 107 350 int;
#X floatatom 32 496 5 0 0 0 - - -, f 5;
#X text 37 526 pulse;
#X text 139 527 bar number;
#X obj 393 64 r pulses_per_bar;
#X obj 446 151 expr $f1 * $f2;
#X floatatom 760 191 5 0 0 0 - - -, f 5;
#X text 598 188 Total number of pulses;
#X obj 425 96 t b f;
#X msg 551 367 \; arpseq1_8ve_seq resize \$1 \; arpseq2_8ve_seq resize
\$1 \; arpseq3_8ve_seq resize \$1 \; arpseq4_8ve_seq resize \$1 \;
;
#X msg 550 276 \; arpeggio_sequence_1 resize \$1 \; arpeggio_sequence_2
resize \$1 \; arpeggio_sequence_3 resize \$1 \; arpeggio_sequence_4
resize \$1 \;;
#X msg 552 458 \; chordroot_sequence resize \$1 \; blockchord_8ve_sequence
resize \$1;
#X text 27 20 Takes as input the main pulse and outputs bar number
and pulse values \; also changes number of bars;
#X obj 370 570 *;
#X obj 121 421 %;
#X obj 330 619 +;
#X floatatom 332 688 5 0 0 0 - - -, f 5;
#X text 243 687 total pulse;
#X obj 333 737 outlet;
#X floatatom 216 184 5 0 0 0 - - -, f 5;
#X floatatom 294 182 5 0 0 0 - - -, f 5;
#X text 210 162 start bar;
#X text 297 164 end bar;
#X obj 237 304 -;
#X floatatom 289 361 5 0 0 0 - - -, f 5;
#X obj 223 256 t b f;
#X obj 168 463 +;
#X obj 297 216 - 1;
#X obj 213 217 - 1;
#X obj 149 111 r loop_start_bar;
#X obj 276 112 r loop_end_bar;
#X obj 217 553 s current_bar_num;
#X obj 61 552 s current_pulse_num;
#X connect 0 0 14 0;
#X connect 0 0 23 1;
#X connect 2 0 6 0;
#X connect 2 0 10 0;
#X connect 5 0 9 1;
#X connect 6 0 8 0;
#X connect 7 0 3 0;
#X connect 7 0 22 0;
#X connect 7 0 40 0;
#X connect 8 0 9 0;
#X connect 9 0 5 0;
#X connect 9 0 23 0;
#X connect 10 0 4 0;
#X connect 10 0 24 0;
#X connect 10 0 41 0;
#X connect 13 0 17 0;
#X connect 13 0 22 1;
#X connect 14 0 1 0;
#X connect 14 0 15 0;
#X connect 14 0 19 0;
#X connect 14 0 18 0;
#X connect 14 0 20 0;
#X connect 17 0 14 0;
#X connect 17 1 14 1;
#X connect 22 0 24 1;
#X connect 23 0 35 0;
#X connect 24 0 25 0;
#X connect 25 0 27 0;
#X connect 28 0 37 0;
#X connect 29 0 36 0;
#X connect 32 0 33 0;
#X connect 33 0 23 1;
#X connect 34 0 32 0;
#X connect 34 1 32 1;
#X connect 35 0 7 0;
#X connect 36 0 32 0;
#X connect 37 0 34 0;
#X connect 37 0 35 1;
#X connect 38 0 28 0;
#X connect 39 0 29 0;
#X restore 940 232 pd bars;
#X connect 1 0 40 0;
#X connect 5 0 11 0;
#X connect 6 0 5 1;
#X connect 7 0 20 0;
#X connect 8 0 7 1;
#X connect 15 0 17 0;
#X connect 16 0 17 1;
#X connect 22 0 21 0;
#X connect 23 0 22 1;
#X connect 27 0 1 0;
#X connect 28 0 5 0;
#X connect 28 1 7 0;
#X connect 30 0 37 0;
#X connect 31 0 37 0;
#X connect 32 0 37 0;
#X connect 33 0 37 0;
#X connect 34 0 37 0;
#X connect 35 0 37 0;
#X connect 36 0 37 0;
#X connect 40 2 28 0;
