#N canvas 0 54 1440 846 10;
#X msg 89 385 \; scale_struct 0 2 2 1 2 2 2 1;
#X floatatom 1010 398 5 0 0 0 - - -, f 5;
#N canvas 736 87 626 818 chordtone_calc 0;
#X obj 124 417 int;
#X obj 179 420 + 2;
#X floatatom 104 478 5 0 0 0 - - -, f 5;
#X obj 200 290 bng 15 250 50 0 empty empty empty 17 7 0 10 -262144
-1 -1;
#X obj 82 540 tabread scale;
#X obj 94 613 tabwrite chordtones;
#X floatatom 51 579 5 0 0 0 - - -, f 5;
#X obj 238 419 int;
#X obj 293 422 + 1;
#X msg 255 253 0;
#X obj 178 391 t b b;
#X floatatom 258 466 5 0 0 0 - - -, f 5;
#X obj 314 455 select 48;
#X obj 202 331 until;
#X obj 219 86 r chord;
#X msg 176 26 2;
#X msg 229 26 5;
#X obj 195 60 s chord;
#X obj 209 131 t float float;
#X connect 0 0 1 0;
#X connect 0 0 2 0;
#X connect 1 0 0 1;
#X connect 2 0 4 0;
#X connect 3 0 13 0;
#X connect 4 0 5 0;
#X connect 4 0 6 0;
#X connect 7 0 8 0;
#X connect 7 0 5 1;
#X connect 7 0 11 0;
#X connect 8 0 7 1;
#X connect 8 0 12 0;
#X connect 9 0 7 1;
#X connect 9 0 3 0;
#X connect 10 0 0 0;
#X connect 10 1 7 0;
#X connect 12 0 13 1;
#X connect 13 0 10 0;
#X connect 14 0 18 0;
#X connect 15 0 17 0;
#X connect 16 0 17 0;
#X connect 18 0 9 0;
#X connect 18 1 0 1;
#X restore 87 540 pd chordtone_calc;
#N canvas 617 273 611 683 scalewriter 0;
#X floatatom 241 102 5 0 0 0 - - -, f 5;
#X text 277 101 MIDI note of key root;
#X msg 295 32 24;
#X text 331 32 C;
#X msg 388 141 0;
#X msg 233 38 50;
#X obj 293 326 + 1;
#X obj 191 222 bng 15 250 50 0 empty empty empty 17 7 0 10 -262144
-1 -1;
#X obj 238 323 int;
#X obj 234 548 +;
#X floatatom 235 580 5 0 0 0 - - -, f 5;
#X floatatom 355 539 5 0 0 0 - - -, f 5;
#X floatatom 164 543 5 0 0 0 - - -, f 5;
#X floatatom 196 424 5 0 0 0 - - -, f 5;
#X floatatom 312 427 5 0 0 0 - - -, f 5;
#X floatatom 166 380 5 0 0 0 - - -, f 5;
#X obj 198 464 % 7;
#X floatatom 180 487 5 0 0 0 - - -, f 5;
#X msg 234 209 0;
#X obj 402 429 + 1;
#X obj 165 509 tabread scale_struct;
#X obj 312 508 tabread scale;
#X obj 324 616 tabwrite scale;
#X obj 265 165 tabwrite scale;
#X obj 290 263 until;
#X obj 343 262 select 96;
#X obj 174 63 r key;
#X obj 418 106 loadbang;
#X obj 219 381 t float float;
#X msg 294 63 28;
#X text 329 64 E;
#X connect 0 0 23 0;
#X connect 0 0 18 0;
#X connect 0 0 7 0;
#X connect 2 0 0 0;
#X connect 4 0 23 1;
#X connect 5 0 0 0;
#X connect 6 0 8 1;
#X connect 6 0 25 0;
#X connect 7 0 24 0;
#X connect 8 0 6 0;
#X connect 8 0 15 0;
#X connect 8 0 19 0;
#X connect 8 0 28 0;
#X connect 9 0 10 0;
#X connect 10 0 22 0;
#X connect 13 0 16 0;
#X connect 14 0 21 0;
#X connect 16 0 17 0;
#X connect 17 0 20 0;
#X connect 18 0 8 1;
#X connect 19 0 22 1;
#X connect 20 0 9 0;
#X connect 20 0 12 0;
#X connect 21 0 9 1;
#X connect 21 0 11 0;
#X connect 24 0 8 0;
#X connect 25 0 24 1;
#X connect 26 0 0 0;
#X connect 27 0 4 0;
#X connect 28 0 13 0;
#X connect 28 1 14 0;
#X connect 29 0 0 0;
#X restore 87 459 pd scalewriter;
#N canvas 66 87 433 768 drum_sequences 0;
#N canvas 0 50 450 300 (subpatch) 0;
#X array dr_sequence_1 16 float 3;
#A 0 1 0 0 0 1 0 0 0 1 0 0 0 1 0 0 0;
#X coords 0 1 15 -1 200 140 1 0 0;
#X restore 56 -437 graph;
#N canvas 219 84 450 300 (subpatch) 0;
#X array dr_sequence_2 16 float 3;
#A 0 0 0 0 1 0 0 0 0 0 0 1 0 0 1 0 0;
#X coords 0 1 15 -1 200 140 1 0 0;
#X restore 61 -255 graph;
#N canvas 51 116 450 300 (subpatch) 0;
#X array dr_sequence_3 16 float 3;
#A 0 1 0 1 0 0 0 1 0 0 0 1 0 0 1 0 1;
#X coords 0 1 15 -1 200 140 1 0 0;
#X restore 61 -77 graph;
#N canvas 217 87 450 300 (subpatch) 0;
#X array dr_sequence_4 16 float 3;
#A 0 0 1 0 1 0 1 0 1 0 1 0 0 1 0 1 0;
#X coords 0 1 15 -1 200 140 1 0 0;
#X restore 59 114 graph;
#X restore 81 709 pd drum_sequences;
#X obj 936 464 spigot;
#X obj 984 441 tgl 15 0 empty leadplayer_on empty 17 7 0 10 -262144
-1 -1 0 1;
#X obj 1029 462 spigot;
#X obj 1063 435 tgl 15 0 empty arpeggioplayer_on empty 17 7 0 10 -262144
-1 -1 0 1;
#N canvas 0 82 720 818 sequence_arrays 0;
#N canvas 2352 122 450 278 (subpatch) 0;
#X array lead_sequence 16 float 3;
#A 0 2 10 9 3 9 27 11 28 9 13 14 27 14 28 27 11;
#X coords 0 0 16 47 200 140 1 0 0;
#X restore 31 48 graph;
#N canvas 624 148 450 278 (subpatch) 0;
#X array lead_sequence_2 16 float 3;
#A 0 21 20 19 18 18 34 35 36 37 20 36 35 34 35 36 37;
#X coords 0 0 16 47 200 140 1 0 0;
#X restore 29 218 graph;
#N canvas 624 148 450 278 (subpatch) 0;
#X array arpeggio_sequence_1 16 float 3;
#A 0 18 18 19 19 18 20 18 0 0 0 0 0 0 0 0 0;
#X coords 0 0 16 100 200 140 1 0 0;
#X restore 275 52 graph;
#N canvas 624 148 450 278 (subpatch) 0;
#X array arpeggio_sequence_2 16 float 3;
#A 0 33 36 33 19 34 35 34 19 33 35 34 36 34 36 0 0;
#X coords 0 0 16 100 200 140 1 0 0;
#X restore 276 220 graph;
#N canvas 624 148 450 278 (subpatch) 0;
#X array arpeggio_sequence_4 16 float 3;
#A 0 33 36 33 20 34 35 34 17 33 35 34 36 34 36 2 4;
#X coords 0 0 16 100 200 140 1 0 0;
#X restore 283 553 graph;
#N canvas 624 148 450 278 (subpatch) 0;
#X array arpeggio_sequence_3 16 float 3;
#A 0 33 36 33 21 34 35 34 18 33 35 34 36 34 36 20 20;
#X coords 0 0 16 100 200 140 1 0 0;
#X restore 279 389 graph;
#N canvas 624 148 450 278 (subpatch) 0;
#X array chordroot_sequence 16 float 3;
#A 0 0 0 0 0 1 0 0 0 4 0 0 0 4 0 0 0;
#X coords 0 0 16 100 200 140 1 0 0;
#X restore 516 48 graph;
#N canvas 624 148 450 278 (subpatch) 0;
#X array blockchord_8ve_sequence 16 float 3;
#A 0 2 0 0 0 2 0 0 0 2 0 0 0 2 0 0 0;
#X coords 0 0 16 100 200 140 1 0 0;
#X restore 517 216 graph;
#N canvas 624 148 450 278 (subpatch) 0;
#X array blockchord_sequence_5 16 float 3;
#A 0 17 18 19 20 19 18 19 17 19 19 17 18 19 18 19 19;
#X coords 0 0 16 100 200 140 1 0 0;
#X restore 524 716 graph;
#N canvas 624 148 450 278 (subpatch) 0;
#X array blockchord_sequence_3 16 float 3;
#A 0 2 19 20 21 20 19 20 18 20 20 18 19 20 19 20 20;
#X coords 0 0 16 100 200 140 1 0 0;
#X restore 520 385 graph;
#N canvas 624 148 450 278 (subpatch) 0;
#X array blockchord_sequence_4 16 float 3;
#A 0 17 18 19 20 19 18 19 17 19 19 17 18 19 18 19 19;
#X coords 0 0 16 100 200 140 1 0 0;
#X restore 524 549 graph;
#X restore 79 684 pd sequence_arrays;
#N canvas 0 97 1425 818 gui 0;
#X obj 41 100 vradio 15 1 0 8 empty empty empty 0 -8 0 10 -262144 -1
-1 2;
#X obj 61 100 vradio 15 1 0 8 empty empty empty 0 -8 0 10 -262144 -1
-1 0;
#X obj 83 101 vradio 15 1 0 8 empty empty empty 0 -8 0 10 -262144 -1
-1 0;
#X obj 106 101 vradio 15 1 0 8 empty empty empty 0 -8 0 10 -262144
-1 -1 3;
#X obj 21 384 t f b;
#X obj 39 357 t f b;
#X msg 75 423 0;
#X msg 75 398 1;
#X obj 50 336 t f b;
#X obj 66 315 t f b;
#X msg 88 372 2;
#X msg 95 344 3;
#X obj 143 100 vradio 15 1 0 8 empty empty empty 0 -8 0 10 -262144
-1 -1 0;
#X obj 163 102 vradio 15 1 0 8 empty empty empty 0 -8 0 10 -262144
-1 -1 3;
#X obj 184 101 vradio 15 1 0 8 empty empty empty 0 -8 0 10 -262144
-1 -1 0;
#X obj 203 101 vradio 15 1 0 8 empty empty empty 0 -8 0 10 -262144
-1 -1 4;
#X obj 131 387 t f b;
#X obj 149 360 t f b;
#X obj 160 339 t f b;
#X obj 179 313 t f b;
#X obj 233 102 vradio 15 1 0 8 empty empty empty 0 -8 0 10 -262144
-1 -1 0;
#X obj 253 102 vradio 15 1 0 8 empty empty empty 0 -8 0 10 -262144
-1 -1 0;
#X obj 274 103 vradio 15 1 0 8 empty empty empty 0 -8 0 10 -262144
-1 -1 0;
#X obj 296 104 vradio 15 1 0 8 empty empty empty 0 -8 0 10 -262144
-1 -1 3;
#X obj 253 389 t f b;
#X obj 271 362 t f b;
#X obj 282 341 t f b;
#X obj 298 320 t f b;
#X obj 327 104 vradio 15 1 0 8 empty empty empty 0 -8 0 10 -262144
-1 -1 0;
#X obj 347 104 vradio 15 1 0 8 empty empty empty 0 -8 0 10 -262144
-1 -1 4;
#X obj 368 105 vradio 15 1 0 8 empty empty empty 0 -8 0 10 -262144
-1 -1 3;
#X obj 426 104 vradio 15 1 0 8 empty empty empty 0 -8 0 10 -262144
-1 -1 3;
#X obj 375 393 t f b;
#X obj 393 366 t f b;
#X obj 404 345 t f b;
#X obj 416 323 t f b;
#X msg 172 427 4;
#X msg 187 403 5;
#X msg 198 376 6;
#X msg 209 346 7;
#X msg 296 430 8;
#X msg 307 403 9;
#X msg 320 377 10;
#X msg 329 349 11;
#X msg 424 432 12;
#X msg 439 406 13;
#X msg 450 380 14;
#X msg 455 351 15;
#X obj 390 106 vradio 15 1 0 8 empty empty empty 0 -8 0 10 -262144
-1 -1 0;
#X obj 145 527 +;
#X text 406 85 8ve adjust;
#X obj 430 278 * 8, f 4;
#X msg 477 278 8;
#X obj 45 683 tabwrite lead_sequence;
#X obj 46 655 spigot;
#X obj 79 620 tgl 15 0 empty write_lead1 empty 17 7 0 10 -262144 -1
-1 1 1;
#X obj 237 529 t f;
#X obj 224 651 spigot;
#X obj 257 617 tgl 15 0 empty write_lead2 empty 17 7 0 10 -262144 -1
-1 0 1;
#X obj 224 683 tabwrite lead_sequence_2;
#X obj 42 75 tgl 15 0 write_lead2 empty empty 17 7 0 10 -262144 -1
-1 0 1;
#X obj 40 43 tgl 15 0 write_lead1 empty empty 17 7 0 10 -262144 -1
-1 1 1;
#X text 59 42 write lead seq 1;
#X text 62 75 write lead seq 2;
#X obj 485 109 vradio 15 1 0 8 empty empty empty 0 -8 0 10 -262144
-1 -1 1;
#X obj 505 109 vradio 15 1 0 8 empty empty empty 0 -8 0 10 -262144
-1 -1 4;
#X obj 527 110 vradio 15 1 0 8 empty empty empty 0 -8 0 10 -262144
-1 -1 1;
#X obj 550 110 vradio 15 1 0 8 empty empty empty 0 -8 0 10 -262144
-1 -1 3;
#X obj 524 391 t f b;
#X obj 542 364 t f b;
#X msg 586 432 0;
#X msg 578 405 1;
#X obj 553 343 t f b;
#X obj 569 322 t f b;
#X msg 591 379 2;
#X msg 600 351 3;
#X obj 587 109 vradio 15 1 0 8 empty empty empty 0 -8 0 10 -262144
-1 -1 2;
#X obj 607 110 vradio 15 1 0 8 empty empty empty 0 -8 0 10 -262144
-1 -1 3;
#X obj 628 110 vradio 15 1 0 8 empty empty empty 0 -8 0 10 -262144
-1 -1 2;
#X obj 648 109 vradio 15 1 0 8 empty empty empty 0 -8 0 10 -262144
-1 -1 0;
#X obj 634 394 t f b;
#X obj 652 367 t f b;
#X obj 663 346 t f b;
#X obj 682 320 t f b;
#X obj 678 110 vradio 15 1 0 8 empty empty empty 0 -8 0 10 -262144
-1 -1 1;
#X obj 698 110 vradio 15 1 0 8 empty empty empty 0 -8 0 10 -262144
-1 -1 3;
#X obj 719 111 vradio 15 1 0 8 empty empty empty 0 -8 0 10 -262144
-1 -1 2;
#X obj 741 111 vradio 15 1 0 8 empty empty empty 0 -8 0 10 -262144
-1 -1 4;
#X obj 756 396 t f b;
#X obj 774 369 t f b;
#X obj 785 348 t f b;
#X obj 801 327 t f b;
#X obj 772 111 vradio 15 1 0 8 empty empty empty 0 -8 0 10 -262144
-1 -1 2;
#X obj 792 110 vradio 15 1 0 8 empty empty empty 0 -8 0 10 -262144
-1 -1 4;
#X obj 813 110 vradio 15 1 0 8 empty empty empty 0 -8 0 10 -262144
-1 -1 2;
#X obj 880 111 vradio 15 1 0 8 empty empty empty 0 -8 0 10 -262144
-1 -1 2;
#X obj 878 400 t f b;
#X obj 896 373 t f b;
#X obj 907 352 t f b;
#X obj 919 330 t f b;
#X msg 675 434 4;
#X msg 690 410 5;
#X msg 701 383 6;
#X msg 712 353 7;
#X msg 799 437 8;
#X msg 810 410 9;
#X msg 823 384 10;
#X msg 832 356 11;
#X msg 927 439 12;
#X msg 942 413 13;
#X msg 953 387 14;
#X msg 958 358 15;
#X obj 835 110 vradio 15 1 0 8 empty empty empty 0 -8 0 10 -262144
-1 -1 4;
#X obj 571 525 +;
#X text 860 96 8ve adjust;
#X obj 918 274 * 8, f 4;
#X msg 980 285 8;
#X obj 484 654 spigot;
#X obj 517 619 tgl 15 0 empty write_chord1 empty 17 7 0 10 -262144
-1 -1 0 1;
#X obj 675 528 t f;
#X obj 683 652 spigot;
#X obj 716 618 tgl 15 0 empty write_chord2 empty 17 7 0 10 -262144
-1 -1 1 1;
#X obj 486 84 tgl 15 0 write_chord2 empty empty 17 7 0 10 -262144 -1
-1 1 1;
#X obj 484 52 tgl 15 0 write_chord1 empty empty 17 7 0 10 -262144 -1
-1 0 1;
#X text 503 51 write chord seq 1;
#X text 506 84 write chord seq 2;
#X obj 480 749 spigot;
#X obj 513 715 tgl 15 0 empty write_chord3 empty 17 7 0 10 -262144
-1 -1 1 1;
#X obj 677 750 spigot;
#X obj 710 716 tgl 15 0 empty write_chord4 empty 17 7 0 10 -262144
-1 -1 1 1;
#X obj 639 87 tgl 15 0 write_chord4 empty empty 17 7 0 10 -262144 -1
-1 1 1;
#X obj 637 55 tgl 15 0 write_chord3 empty empty 17 7 0 10 -262144 -1
-1 1 1;
#X text 658 54 write chord seq 3;
#X text 659 87 write chord seq 4;
#X msg 883 72 0;
#X floatatom 919 249 5 0 0 0 - - -, f 5;
#X floatatom 816 248 5 0 0 0 - - -, f 5;
#X msg 373 67 0;
#X obj 344 50 bng 15 250 50 0 empty empty empty 17 7 0 10 -262144 -1
-1;
#X text 373 50 reset;
#X obj 850 49 bng 15 250 50 0 empty empty empty 17 7 0 10 -262144 -1
-1;
#X text 879 49 reset;
#X text 937 98 Chord;
#X text 942 113 I;
#X text 940 127 ii;
#X text 934 145 iii;
#X text 935 160 IV;
#X text 944 175 V;
#X text 939 188 vi;
#X text 939 205 vii;
#X obj 474 684 tabwrite arpeggio_sequence_1;
#X obj 674 686 tabwrite arpeggio_sequence_2;
#X obj 474 781 tabwrite arpeggio_sequence_3;
#X obj 682 782 tabwrite arpeggio_sequence_4;
#X obj 963 114 vradio 15 1 0 8 empty empty empty 0 -8 0 10 -262144
-1 -1 0;
#X obj 982 115 vradio 15 1 0 8 empty empty empty 0 -8 0 10 -262144
-1 -1 0;
#X obj 1004 116 vradio 15 1 0 8 empty empty empty 0 -8 0 10 -262144
-1 -1 0;
#X obj 1027 116 vradio 15 1 0 8 empty empty empty 0 -8 0 10 -262144
-1 -1 0;
#X obj 1064 115 vradio 15 1 0 8 empty empty empty 0 -8 0 10 -262144
-1 -1 1;
#X obj 1084 116 vradio 15 1 0 8 empty empty empty 0 -8 0 10 -262144
-1 -1 0;
#X obj 1105 116 vradio 15 1 0 8 empty empty empty 0 -8 0 10 -262144
-1 -1 0;
#X obj 1125 115 vradio 15 1 0 8 empty empty empty 0 -8 0 10 -262144
-1 -1 0;
#X obj 1155 116 vradio 15 1 0 8 empty empty empty 0 -8 0 10 -262144
-1 -1 4;
#X obj 1175 116 vradio 15 1 0 8 empty empty empty 0 -8 0 10 -262144
-1 -1 0;
#X obj 1196 117 vradio 15 1 0 8 empty empty empty 0 -8 0 10 -262144
-1 -1 0;
#X obj 1218 117 vradio 15 1 0 8 empty empty empty 0 -8 0 10 -262144
-1 -1 0;
#X obj 1249 117 vradio 15 1 0 8 empty empty empty 0 -8 0 10 -262144
-1 -1 4;
#X obj 1269 116 vradio 15 1 0 8 empty empty empty 0 -8 0 10 -262144
-1 -1 0;
#X obj 1290 116 vradio 15 1 0 8 empty empty empty 0 -8 0 10 -262144
-1 -1 0;
#X obj 1357 117 vradio 15 1 0 8 empty empty empty 0 -8 0 10 -262144
-1 -1 2;
#X obj 1312 116 vradio 15 1 0 8 empty empty empty 0 -8 0 10 -262144
-1 -1 0;
#X text 1337 102 8ve adjust;
#X msg 1360 78 0;
#X obj 1327 55 bng 15 250 50 0 empty empty empty 17 7 0 10 -262144
-1 -1;
#X text 1356 55 reset;
#X msg 1097 526 0;
#X msg 1213 529 4;
#X obj 1139 657 tabwrite chordroot_sequence;
#X obj 1329 659 tabwrite blockchord_8ve_sequence;
#X obj 1086 498 t f b;
#X obj 1204 499 t f b;
#X obj 1294 501 t f b;
#X obj 1390 497 t f b;
#X msg 1305 529 8;
#X msg 1399 527 12;
#X obj 1434 555 bng 15 250 50 0 empty empty empty 17 7 0 10 -262144
-1 -1;
#X obj 1509 568 +;
#X floatatom 1501 607 5 0 0 0 - - -, f 5;
#X obj 9 28 tgl 15 0 metro_on empty empty 17 7 0 10 -262144 -1 -1 0
1;
#X text 3 13 On/off;
#X obj 63 12 tgl 15 0 leadplayer_on empty empty 17 7 0 10 -262144 -1
-1 0 1;
#X text 80 11 Lead player;
#X obj 487 12 tgl 15 0 arpeggioplayer_on empty empty 17 7 0 10 -262144
-1 -1 0 1;
#X obj 959 16 tgl 15 0 blockchordplayer_on empty empty 17 7 0 10 -262144
-1 -1 0 1;
#X text 504 11 Arpeggio player;
#X text 976 15 Chord player;
#X obj 228 26 hradio 15 1 0 8 empty empty empty 0 -8 0 10 -262144 -1
-1 3;
#X obj 213 275 s lead_sample_number;
#X obj 209 249 + 1;
#X obj 563 250 + 1;
#X obj 1038 256 + 1;
#X obj 1118 16 hradio 15 1 0 8 empty empty empty 0 -8 0 10 -262144
-1 -1 6;
#X obj 654 13 hradio 15 1 0 8 empty empty empty 0 -8 0 10 -262144 -1
-1 3;
#X obj 567 276 s arpeggio_sample_number;
#X obj 1042 282 s blockchord_sample_number;
#X connect 0 0 4 0;
#X connect 1 0 5 0;
#X connect 2 0 8 0;
#X connect 3 0 9 0;
#X connect 4 0 49 0;
#X connect 4 1 6 0;
#X connect 5 0 49 0;
#X connect 5 1 7 0;
#X connect 6 0 56 0;
#X connect 7 0 56 0;
#X connect 8 0 49 0;
#X connect 8 1 10 0;
#X connect 9 0 49 0;
#X connect 9 1 11 0;
#X connect 10 0 56 0;
#X connect 11 0 56 0;
#X connect 12 0 16 0;
#X connect 13 0 17 0;
#X connect 14 0 18 0;
#X connect 15 0 19 0;
#X connect 16 0 49 0;
#X connect 16 1 36 0;
#X connect 17 0 49 0;
#X connect 17 1 37 0;
#X connect 18 0 49 0;
#X connect 18 1 38 0;
#X connect 19 0 49 0;
#X connect 19 1 39 0;
#X connect 20 0 24 0;
#X connect 21 0 25 0;
#X connect 22 0 26 0;
#X connect 23 0 27 0;
#X connect 24 0 49 0;
#X connect 24 1 40 0;
#X connect 25 0 49 0;
#X connect 25 1 41 0;
#X connect 26 0 49 0;
#X connect 26 1 42 0;
#X connect 27 0 49 0;
#X connect 27 1 43 0;
#X connect 28 0 32 0;
#X connect 29 0 33 0;
#X connect 30 0 34 0;
#X connect 31 0 51 0;
#X connect 32 0 49 0;
#X connect 32 1 44 0;
#X connect 33 0 49 0;
#X connect 33 1 45 0;
#X connect 34 0 49 0;
#X connect 34 1 46 0;
#X connect 35 0 49 0;
#X connect 35 1 47 0;
#X connect 36 0 56 0;
#X connect 37 0 56 0;
#X connect 38 0 56 0;
#X connect 39 0 56 0;
#X connect 40 0 56 0;
#X connect 41 0 56 0;
#X connect 42 0 56 0;
#X connect 43 0 56 0;
#X connect 44 0 56 0;
#X connect 45 0 56 0;
#X connect 46 0 56 0;
#X connect 47 0 56 0;
#X connect 48 0 35 0;
#X connect 49 0 54 0;
#X connect 49 0 57 0;
#X connect 51 0 49 1;
#X connect 52 0 51 1;
#X connect 54 0 53 0;
#X connect 55 0 54 1;
#X connect 56 0 53 1;
#X connect 56 0 59 1;
#X connect 57 0 59 0;
#X connect 58 0 57 1;
#X connect 64 0 68 0;
#X connect 65 0 69 0;
#X connect 66 0 72 0;
#X connect 67 0 73 0;
#X connect 68 0 113 0;
#X connect 68 1 70 0;
#X connect 69 0 113 0;
#X connect 69 1 71 0;
#X connect 70 0 119 0;
#X connect 71 0 119 0;
#X connect 72 0 113 0;
#X connect 72 1 74 0;
#X connect 73 0 113 0;
#X connect 73 1 75 0;
#X connect 74 0 119 0;
#X connect 75 0 119 0;
#X connect 76 0 80 0;
#X connect 77 0 81 0;
#X connect 78 0 82 0;
#X connect 79 0 83 0;
#X connect 80 0 113 0;
#X connect 80 1 100 0;
#X connect 81 0 113 0;
#X connect 81 1 101 0;
#X connect 82 0 113 0;
#X connect 82 1 102 0;
#X connect 83 0 113 0;
#X connect 83 1 103 0;
#X connect 84 0 88 0;
#X connect 85 0 89 0;
#X connect 86 0 90 0;
#X connect 87 0 91 0;
#X connect 88 0 113 0;
#X connect 88 1 104 0;
#X connect 89 0 113 0;
#X connect 89 1 105 0;
#X connect 90 0 113 0;
#X connect 90 1 106 0;
#X connect 91 0 113 0;
#X connect 91 1 107 0;
#X connect 92 0 96 0;
#X connect 93 0 97 0;
#X connect 94 0 98 0;
#X connect 95 0 115 0;
#X connect 95 0 135 0;
#X connect 96 0 113 0;
#X connect 96 1 108 0;
#X connect 97 0 113 0;
#X connect 97 1 109 0;
#X connect 98 0 113 0;
#X connect 98 1 110 0;
#X connect 99 0 113 0;
#X connect 99 1 111 0;
#X connect 100 0 119 0;
#X connect 101 0 119 0;
#X connect 102 0 119 0;
#X connect 103 0 119 0;
#X connect 104 0 119 0;
#X connect 105 0 119 0;
#X connect 106 0 119 0;
#X connect 107 0 119 0;
#X connect 108 0 119 0;
#X connect 109 0 119 0;
#X connect 110 0 119 0;
#X connect 111 0 119 0;
#X connect 112 0 99 0;
#X connect 112 0 136 0;
#X connect 113 0 117 0;
#X connect 113 0 120 0;
#X connect 113 0 126 0;
#X connect 113 0 128 0;
#X connect 115 0 113 1;
#X connect 116 0 115 1;
#X connect 117 0 150 0;
#X connect 118 0 117 1;
#X connect 119 0 150 1;
#X connect 119 0 151 1;
#X connect 119 0 152 1;
#X connect 119 0 153 1;
#X connect 120 0 151 0;
#X connect 121 0 120 1;
#X connect 126 0 152 0;
#X connect 127 0 126 1;
#X connect 128 0 153 0;
#X connect 129 0 128 1;
#X connect 134 0 64 0;
#X connect 134 0 65 0;
#X connect 134 0 66 0;
#X connect 134 0 67 0;
#X connect 134 0 76 0;
#X connect 134 0 77 0;
#X connect 134 0 78 0;
#X connect 134 0 79 0;
#X connect 134 0 84 0;
#X connect 134 0 85 0;
#X connect 134 0 86 0;
#X connect 134 0 87 0;
#X connect 134 0 92 0;
#X connect 134 0 93 0;
#X connect 134 0 94 0;
#X connect 134 0 112 0;
#X connect 137 0 48 0;
#X connect 137 0 30 0;
#X connect 137 0 29 0;
#X connect 137 0 28 0;
#X connect 137 0 23 0;
#X connect 137 0 22 0;
#X connect 137 0 21 0;
#X connect 137 0 20 0;
#X connect 137 0 15 0;
#X connect 137 0 14 0;
#X connect 137 0 13 0;
#X connect 137 0 12 0;
#X connect 137 0 3 0;
#X connect 137 0 2 0;
#X connect 137 0 1 0;
#X connect 137 0 0 0;
#X connect 138 0 137 0;
#X connect 140 0 134 0;
#X connect 154 0 179 0;
#X connect 158 0 180 0;
#X connect 162 0 181 0;
#X connect 166 0 182 0;
#X connect 169 0 186 1;
#X connect 172 0 154 0;
#X connect 172 0 155 0;
#X connect 172 0 156 0;
#X connect 172 0 157 0;
#X connect 172 0 158 0;
#X connect 172 0 159 0;
#X connect 172 0 160 0;
#X connect 172 0 161 0;
#X connect 172 0 162 0;
#X connect 172 0 163 0;
#X connect 172 0 164 0;
#X connect 172 0 165 0;
#X connect 172 0 166 0;
#X connect 172 0 167 0;
#X connect 172 0 168 0;
#X connect 172 0 170 0;
#X connect 173 0 172 0;
#X connect 175 0 177 1;
#X connect 175 0 178 1;
#X connect 175 0 185 0;
#X connect 176 0 177 1;
#X connect 176 0 178 1;
#X connect 176 0 185 0;
#X connect 179 0 177 0;
#X connect 179 1 175 0;
#X connect 180 0 177 0;
#X connect 180 1 176 0;
#X connect 181 0 177 0;
#X connect 181 1 183 0;
#X connect 182 0 177 0;
#X connect 182 1 184 0;
#X connect 183 0 177 1;
#X connect 183 0 178 1;
#X connect 183 0 185 0;
#X connect 184 0 177 1;
#X connect 184 0 178 1;
#X connect 184 0 185 0;
#X connect 185 0 186 0;
#X connect 186 0 178 0;
#X connect 186 0 187 0;
#X connect 196 0 198 0;
#X connect 198 0 197 0;
#X connect 199 0 203 0;
#X connect 200 0 204 0;
#X connect 201 0 200 0;
#X connect 202 0 199 0;
#X coords 0 -1 1 1 1400 240 1 0 0;
#X restore -3 55 pd gui;
#N canvas 59 112 602 576 leadplayer 1;
#X obj 184 21 inlet;
#X obj 34 101 tabread lead_sequence;
#X floatatom 37 249 5 0 0 0 - - -, f 5;
#X floatatom 37 322 5 0 0 0 - - -, f 5;
#X obj 42 176 - 1;
#X obj 42 216 moses 0;
#X obj 37 354 + 12;
#X obj 41 464 s note 60 90 150 2 0;
#X floatatom 193 296 5 0 0 0 - - -, f 5;
#X text 229 275 amplitude;
#X text 231 318 sample number;
#X text 231 295 duration (msec);
#X text 232 341 start location (msec);
#X text 231 362 rise time (msec);
#X text 233 382 decay time (msec);
#X floatatom 193 275 5 0 0 0 - - -, f 5;
#X floatatom 195 318 5 0 0 0 - - -, f 5;
#X floatatom 196 341 5 0 0 0 - - -, f 5;
#X floatatom 197 362 5 0 0 0 - - -, f 5;
#X floatatom 197 384 5 0 0 0 - - -, f 5;
#X obj 40 428 pack 60 90 150 1 0 10 10;
#X text 172 464 sends note to lead_player;
#X obj 70 281 tabread scale;
#X obj 231 102 tabread lead_sequence_2;
#X obj 360 304 r lead_sample_number;
#X connect 0 0 1 0;
#X connect 0 0 23 0;
#X connect 1 0 4 0;
#X connect 2 0 22 0;
#X connect 3 0 6 0;
#X connect 4 0 5 0;
#X connect 5 1 2 0;
#X connect 6 0 20 0;
#X connect 8 0 20 2;
#X connect 15 0 20 1;
#X connect 16 0 20 3;
#X connect 17 0 20 4;
#X connect 18 0 20 5;
#X connect 19 0 20 6;
#X connect 20 0 7 0;
#X connect 22 0 3 0;
#X connect 23 0 4 0;
#X connect 24 0 16 0;
#X restore 905 508 pd leadplayer;
#X obj 1018 547 main_sample_synth;
#X msg -5 -36 \; density 4 \; tempo 112 \; init_samples bang \; metro_on
1;
#X text 113 -10 Get it all going!;
#N canvas 94 252 589 625 scale_chord_arrays 0;
#N canvas 1 82 450 300 (subpatch) 0;
#X array scale 96 float 3;
#A 0 24 26 28 29 31 33 35 36 38 40 41 43 45 47 48 50 52 53 55 57 59
60 62 64 65 67 69 71 72 74 76 77 79 81 83 84 86 88 89 91 93 95 96 98
100 101 103 105 107 108 110 112 113 115 117 119 120 122 124 125 127
129 131 132 134 136 137 139 141 143 144 146 148 149 151 153 155 156
158 160 161 163 165 167 168 170 172 173 175 177 179 180 182 184 185
189;
#X coords 0 0 96 200 200 140 1 0 0;
#X restore -19 141 graph;
#N canvas 0 50 450 278 (subpatch) 0;
#X array scale_struct 7 float 3;
#A 0 2 2 1 2 2 2 1;
#X coords 0 0 7 12 200 140 1 0 0;
#X restore -21 -30 graph;
#N canvas 0 50 450 278 (subpatch) 0;
#X array chordtones 48 float 3;
#A 0 24 28 31 35 38 41 45 48 52 55 59 62 65 69 72 76 79 83 86 89 93
96 100 103 107 110 113 117 120 124 127 131 134 137 141 144 148 151
155 158 161 165 168 172 175 179 182 185;
#X coords 0 0 47 200 200 140 1 0 0;
#X restore -20 319 graph;
#X restore 84 619 pd scale_chord_arrays;
#X obj 1025 664 dac~;
#X obj 1047 566 catch~ sigL;
#X obj 1125 565 catch~ sigR;
#X obj 1065 665 output~;
#X text 49 355 Semitone intervals of scale;
#X text 48 432 Which is used to write a scale from a particular tonic:
;
#N canvas 29 113 529 687 arpeggioplayer 1;
#X obj 43 23 inlet;
#X floatatom 133 395 5 0 0 0 - - -, f 5;
#X floatatom 133 468 5 0 0 0 - - -, f 5;
#X obj 138 322 - 1;
#X obj 138 362 moses 0;
#X obj 133 500 + 12;
#X obj 137 610 s note 60 90 150 2 0;
#X floatatom 289 442 5 0 0 0 - - -, f 5;
#X text 325 421 amplitude;
#X text 327 464 sample number;
#X text 327 441 duration (msec);
#X text 328 487 start location (msec);
#X text 327 508 rise time (msec);
#X text 329 528 decay time (msec);
#X floatatom 289 421 5 0 0 0 - - -, f 5;
#X floatatom 291 463 5 0 0 0 - - -, f 5;
#X floatatom 292 487 5 0 0 0 - - -, f 5;
#X floatatom 293 508 5 0 0 0 - - -, f 5;
#X floatatom 293 530 5 0 0 0 - - -, f 5;
#X obj 136 574 pack 60 90 150 1 0 10 10;
#X text 268 610 sends note to lead_player;
#X obj 124 427 tabread chordtones;
#X obj 32 109 tabread arpeggio_sequence_1;
#X obj 76 142 tabread arpeggio_sequence_2;
#X obj 129 177 tabread arpeggio_sequence_3;
#X obj 181 211 tabread arpeggio_sequence_4;
#X obj 384 360 r arpeggio_sample_number;
#X connect 0 0 22 0;
#X connect 0 0 23 0;
#X connect 0 0 24 0;
#X connect 0 0 25 0;
#X connect 1 0 21 0;
#X connect 2 0 5 0;
#X connect 3 0 4 0;
#X connect 4 1 1 0;
#X connect 5 0 19 0;
#X connect 7 0 19 2;
#X connect 14 0 19 1;
#X connect 15 0 19 3;
#X connect 16 0 19 4;
#X connect 17 0 19 5;
#X connect 18 0 19 6;
#X connect 19 0 6 0;
#X connect 21 0 2 0;
#X connect 22 0 3 0;
#X connect 23 0 3 0;
#X connect 24 0 3 0;
#X connect 25 0 3 0;
#X connect 26 0 15 0;
#X restore 1005 507 pd arpeggioplayer;
#N canvas 0 82 931 797 blockchordplayer 1;
#X obj 92 25 inlet;
#X floatatom 42 423 5 0 0 0 - - -, f 5;
#X floatatom 73 543 5 0 0 0 - - -, f 5;
#X obj 40 346 - 1;
#X obj 47 390 moses 0;
#X obj 26 576 + 12;
#X obj 77 685 s note 60 90 150 2 0;
#X floatatom 229 517 5 0 0 0 - - -, f 5;
#X text 265 496 amplitude;
#X text 267 539 sample number;
#X text 267 516 duration (msec);
#X text 268 562 start location (msec);
#X text 267 583 rise time (msec);
#X text 269 603 decay time (msec);
#X floatatom 229 496 5 0 0 0 - - -, f 5;
#X floatatom 231 538 5 0 0 0 - - -, f 5;
#X floatatom 232 562 5 0 0 0 - - -, f 5;
#X floatatom 233 583 5 0 0 0 - - -, f 5;
#X floatatom 233 605 5 0 0 0 - - -, f 5;
#X obj 76 649 pack 60 90 150 1 0 10 10;
#X text 208 685 sends note to lead_player;
#X obj 54 458 tabread chordtones;
#X obj 70 132 tabread chordroot_sequence;
#X obj 112 226 s chord;
#X obj 65 189 t b f;
#X text 379 191 read which octave chord should be in;
#X obj 382 222 tabread blockchord_8ve_sequence;
#X obj 216 67 t f f;
#X text 324 332 play the root;
#X text 564 304 play the 3rd;
#X text 698 303 play the 5th;
#X obj 435 271 * 8;
#X obj 428 330 +;
#X obj 422 376 tabread chordtones;
#X obj 560 377 tabread chordtones;
#X obj 567 331 + 1;
#X obj 698 378 tabread chordtones;
#X obj 705 332 + 2;
#X obj 469 523 r blockchord_sample_number;
#X connect 0 0 27 0;
#X connect 1 0 21 0;
#X connect 2 0 19 0;
#X connect 3 0 4 0;
#X connect 4 1 1 0;
#X connect 5 0 19 0;
#X connect 7 0 19 2;
#X connect 14 0 19 1;
#X connect 15 0 19 3;
#X connect 16 0 19 4;
#X connect 17 0 19 5;
#X connect 18 0 19 6;
#X connect 19 0 6 0;
#X connect 21 0 2 0;
#X connect 22 0 24 0;
#X connect 24 1 23 0;
#X connect 26 0 31 0;
#X connect 27 0 26 0;
#X connect 27 1 22 0;
#X connect 31 0 32 0;
#X connect 31 0 35 0;
#X connect 31 0 37 0;
#X connect 32 0 33 0;
#X connect 33 0 2 0;
#X connect 34 0 2 0;
#X connect 35 0 34 0;
#X connect 36 0 2 0;
#X connect 37 0 36 0;
#X connect 38 0 15 0;
#X restore 1129 508 pd blockchordplayer;
#X obj 1162 471 spigot;
#X obj 1196 444 tgl 15 0 empty blockchordplayer_on empty 17 7 0 10
-262144 -1 -1 0 1;
#X text 45 497 Which results in the appropriate arrays being written
for scales and chord tones;
#X text 46 575 And that is used to fill an array with chord tones for
particular chords in that key:;
#X text 43 654 These are the arrays that hold sequence information:
;
#N canvas 648 116 793 595 main_pulse 0;
#X obj 295 228 metro;
#X floatatom 261 110 5 0 0 0 - - -, f 5;
#X floatatom 290 184 5 0 0 0 - - -, f 5;
#X obj 292 263 bng 15 250 50 0 empty empty empty 17 7 0 10 -262144
-1 -1;
#X obj 258 203 tgl 15 0 empty metro_on empty 17 7 0 10 -262144 -1 -1
0 1;
#X obj 288 148 expr 60000/$f1/$f2;
#X obj 320 82 int;
#X floatatom 370 115 5 0 0 0 - - -, f 5;
#X obj 322 122 bng 15 250 50 0 empty empty empty 17 7 0 10 -262144
-1 -1;
#X obj 336 35 r density;
#X obj 245 36 r tempo;
#X obj 399 255 + 1;
#X obj 374 296 % 16;
#X obj 359 254 int;
#X obj 374 331 s beatnum;
#X msg 416 113 4;
#X floatatom 280 82 5 0 0 0 - - -, f 5;
#X obj 319 390 outlet;
#X text 109 37 Overall tempo control;
#X text 396 35 subdivision per beat;
#X text 15 202 Receives metro_on as main on/off switch;
#X connect 0 0 3 0;
#X connect 0 0 13 0;
#X connect 1 0 5 0;
#X connect 2 0 0 1;
#X connect 4 0 0 0;
#X connect 5 0 2 0;
#X connect 6 0 7 0;
#X connect 6 0 8 0;
#X connect 7 0 5 1;
#X connect 8 0 5 0;
#X connect 9 0 6 0;
#X connect 9 0 16 0;
#X connect 10 0 1 0;
#X connect 11 0 13 1;
#X connect 12 0 14 0;
#X connect 12 0 17 0;
#X connect 13 0 12 0;
#X connect 13 0 11 0;
#X connect 15 0 5 1;
#X restore 938 366 pd main_pulse;
#X msg 398 -55 \; chordroot_sequence 0 0 0 0 0 0 0 0 0 0 0 0 0 0 0
0 0;
#X msg 398 -9 \; blockchord_8ve_sequence 0 0 0 0 0 0 0 0 0 0 0 0 0
0 0 0 0;
#X connect 1 0 5 0;
#X connect 1 0 7 0;
#X connect 1 0 24 0;
#X connect 5 0 11 0;
#X connect 6 0 5 1;
#X connect 7 0 22 0;
#X connect 8 0 7 1;
#X connect 17 0 19 0;
#X connect 18 0 19 1;
#X connect 24 0 23 0;
#X connect 25 0 24 1;
#X connect 29 0 1 0;
