#N canvas 1757 95 1361 910 10;
#N canvas 1 82 450 300 (subpatch) 0;
#X array scale 96 float 3;
#A 0 24 26 28 29 31 33 35 36 38 40 41 43 45 47 48 50 52 53 55 57 59
60 62 64 65 67 69 71 72 74 76 77 79 81 83 84 86 88 89 91 93 95 96 98
100 101 103 105 107 108 110 112 113 115 117 119 120 122 124 125 127
129 131 132 134 136 137 139 141 143 144 146 148 149 151 153 155 156
158 160 161 163 165 167 168 170 172 173 175 177 179 180 182 184 185
189;
#X coords 0 0 96 200 200 140 1 0 0;
#X restore -58 156 graph;
#X obj 431 171 metro;
#X floatatom 345 55 5 0 0 0 - - -, f 5;
#X floatatom 426 127 5 0 0 0 - - -, f 5;
#X obj 393 221 bng 15 250 50 0 empty empty empty 17 7 0 10 -262144
-1 -1;
#X obj 378 129 tgl 15 0 empty metro_on empty 17 7 0 10 -262144 -1 -1
0 1;
#X obj 424 91 expr 60000/$f1/$f2;
#X obj 456 25 int;
#X floatatom 506 58 5 0 0 0 - - -, f 5;
#X obj 458 65 bng 15 250 50 0 empty empty empty 17 7 0 10 -262144 -1
-1;
#N canvas 0 50 450 278 (subpatch) 0;
#X array scale_struct 7 float 3;
#A 0 2 2 1 2 2 2 1;
#X coords 0 0 7 12 200 140 1 0 0;
#X restore -54 -14 graph;
#N canvas 0 50 450 278 (subpatch) 0;
#X array chordtones 48 float 3;
#A 0 28 31 35 38 41 45 48 52 55 59 62 65 69 72 76 79 83 86 89 93 96
100 103 107 110 113 117 120 124 127 131 134 137 141 144 148 151 155
158 161 165 168 172 175 179 182 185 189;
#X coords 0 0 47 200 200 140 1 0 0;
#X restore -57 334 graph;
#X msg -53 -73 \; scale_struct 0 2 2 1 2 2 2 1;
#X text 628 -8 -;
#X obj 456 -19 r density;
#X obj 346 -20 r tempo;
#N canvas 1452 262 450 278 (subpatch) 0;
#X array sequence 16 float 3;
#A 0 0 1 2 3 4 5 6 7 8 9 10 11 12 13 14 15;
#X coords 0 0 16 100 200 140 1 0 0;
#X restore -56 494 graph;
#X obj 535 198 + 1;
#X obj 510 239 % 16;
#X floatatom 492 301 5 0 0 0 - - -, f 5;
#X obj 495 197 int;
#X obj 560 273 s beatnum;
#N canvas 192 93 767 738 chordtone_calc 0;
#X text 23 226 Chord;
#X text 32 244 I;
#X text 30 270 ii;
#X text 31 301 iii;
#X msg 60 244 0;
#X msg 59 272 1;
#X msg 60 301 2;
#X obj 115 608 int;
#X obj 170 611 + 2;
#X floatatom 95 669 5 0 0 0 - - -, f 5;
#X obj 191 481 bng 15 250 50 0 empty empty empty 17 7 0 10 -262144
-1 -1;
#X obj 73 731 tabread scale;
#X obj 85 804 tabwrite chordtones;
#X floatatom 42 770 5 0 0 0 - - -, f 5;
#X text 37 332 IV;
#X text 35 358 V;
#X text 36 389 vi;
#X text 39 420 vii;
#X msg 62 333 3;
#X msg 61 361 4;
#X msg 62 390 5;
#X msg 64 421 6;
#X obj 229 610 int;
#X obj 284 613 + 1;
#X msg 246 444 0;
#X obj 169 582 t b b;
#X floatatom 249 657 5 0 0 0 - - -, f 5;
#X obj 305 646 select 48;
#X obj 193 522 until;
#X obj 210 277 r chord;
#X msg 167 217 2;
#X msg 220 217 5;
#X obj 186 251 s chord;
#X obj 200 322 t float float;
#X connect 4 0 7 1;
#X connect 4 0 24 0;
#X connect 5 0 7 1;
#X connect 5 0 24 0;
#X connect 6 0 7 1;
#X connect 6 0 24 0;
#X connect 7 0 8 0;
#X connect 7 0 9 0;
#X connect 8 0 7 1;
#X connect 9 0 11 0;
#X connect 10 0 28 0;
#X connect 11 0 12 0;
#X connect 11 0 13 0;
#X connect 18 0 7 1;
#X connect 18 0 24 0;
#X connect 19 0 7 1;
#X connect 19 0 24 0;
#X connect 20 0 7 1;
#X connect 20 0 24 0;
#X connect 21 0 7 1;
#X connect 21 0 24 0;
#X connect 22 0 23 0;
#X connect 22 0 12 1;
#X connect 22 0 26 0;
#X connect 23 0 22 1;
#X connect 23 0 27 0;
#X connect 24 0 22 1;
#X connect 24 0 10 0;
#X connect 25 0 7 0;
#X connect 25 1 22 0;
#X connect 27 0 28 1;
#X connect 28 0 25 0;
#X connect 29 0 33 0;
#X connect 30 0 32 0;
#X connect 31 0 32 0;
#X connect 33 0 24 0;
#X connect 33 1 7 1;
#X restore 148 337 pd chordtone_calc;
#N canvas 620 268 611 683 scalewriter 1;
#X floatatom 241 102 5 0 0 0 - - -, f 5;
#X text 277 101 MIDI note of key root;
#X msg 295 32 24;
#X text 331 32 C;
#X msg 388 141 0;
#X msg 233 38 50;
#X obj 293 326 + 1;
#X obj 191 222 bng 15 250 50 0 empty empty empty 17 7 0 10 -262144
-1 -1;
#X obj 238 323 int;
#X obj 234 548 +;
#X floatatom 235 580 5 0 0 0 - - -, f 5;
#X floatatom 355 539 5 0 0 0 - - -, f 5;
#X floatatom 164 543 5 0 0 0 - - -, f 5;
#X floatatom 196 424 5 0 0 0 - - -, f 5;
#X floatatom 312 427 5 0 0 0 - - -, f 5;
#X floatatom 166 380 5 0 0 0 - - -, f 5;
#X obj 198 464 % 7;
#X floatatom 180 487 5 0 0 0 - - -, f 5;
#X msg 234 209 0;
#X obj 402 429 + 1;
#X obj 165 509 tabread scale_struct;
#X obj 312 508 tabread scale;
#X obj 324 616 tabwrite scale;
#X obj 265 165 tabwrite scale;
#X obj 290 263 until;
#X obj 343 262 select 96;
#X obj 174 63 r key;
#X obj 418 106 loadbang;
#X obj 219 381 t float float;
#X msg 294 63 28;
#X text 329 64 E;
#X connect 0 0 23 0;
#X connect 0 0 18 0;
#X connect 0 0 7 0;
#X connect 2 0 0 0;
#X connect 4 0 23 1;
#X connect 5 0 0 0;
#X connect 6 0 8 1;
#X connect 6 0 25 0;
#X connect 7 0 24 0;
#X connect 8 0 6 0;
#X connect 8 0 15 0;
#X connect 8 0 19 0;
#X connect 8 0 28 0;
#X connect 9 0 10 0;
#X connect 10 0 22 0;
#X connect 13 0 16 0;
#X connect 14 0 21 0;
#X connect 16 0 17 0;
#X connect 17 0 20 0;
#X connect 18 0 8 1;
#X connect 19 0 22 1;
#X connect 20 0 9 0;
#X connect 20 0 12 0;
#X connect 21 0 9 1;
#X connect 21 0 11 0;
#X connect 24 0 8 0;
#X connect 25 0 24 1;
#X connect 26 0 0 0;
#X connect 27 0 4 0;
#X connect 28 0 13 0;
#X connect 28 1 14 0;
#X connect 29 0 0 0;
#X restore 153 160 pd scalewriter;
#N canvas 2248 94 1137 968 bass_synth_gui 1;
#X obj 179 524 tabwrite sequence;
#X obj 39 23 vradio 15 1 0 8 empty empty empty 0 -8 0 10 -262144 -1
-1 0;
#X obj 59 23 vradio 15 1 0 8 empty empty empty 0 -8 0 10 -262144 -1
-1 1;
#X obj 81 24 vradio 15 1 0 8 empty empty empty 0 -8 0 10 -262144 -1
-1 2;
#X obj 102 25 vradio 15 1 0 8 empty empty empty 0 -8 0 10 -262144 -1
-1 3;
#X obj 41 237 t f b;
#X obj 59 210 t f b;
#X msg 84 277 0;
#X msg 95 251 1;
#X obj 70 189 t f b;
#X obj 86 168 t f b;
#X msg 108 225 2;
#X msg 115 197 3;
#X obj 148 22 vradio 15 1 0 8 empty empty empty 0 -8 0 10 -262144 -1
-1 4;
#X obj 168 22 vradio 15 1 0 8 empty empty empty 0 -8 0 10 -262144 -1
-1 5;
#X obj 189 23 vradio 15 1 0 8 empty empty empty 0 -8 0 10 -262144 -1
-1 6;
#X obj 211 24 vradio 15 1 0 8 empty empty empty 0 -8 0 10 -262144 -1
-1 7;
#X obj 151 240 t f b;
#X obj 169 213 t f b;
#X obj 180 192 t f b;
#X obj 199 166 t f b;
#X obj 268 23 vradio 15 1 0 8 empty empty empty 0 -8 0 10 -262144 -1
-1 0;
#X obj 288 23 vradio 15 1 0 8 empty empty empty 0 -8 0 10 -262144 -1
-1 1;
#X obj 309 24 vradio 15 1 0 8 empty empty empty 0 -8 0 10 -262144 -1
-1 2;
#X obj 331 25 vradio 15 1 0 8 empty empty empty 0 -8 0 10 -262144 -1
-1 3;
#X obj 273 242 t f b;
#X obj 291 215 t f b;
#X obj 302 194 t f b;
#X obj 318 173 t f b;
#X obj 390 24 vradio 15 1 0 8 empty empty empty 0 -8 0 10 -262144 -1
-1 4;
#X obj 410 24 vradio 15 1 0 8 empty empty empty 0 -8 0 10 -262144 -1
-1 5;
#X obj 431 25 vradio 15 1 0 8 empty empty empty 0 -8 0 10 -262144 -1
-1 6;
#X obj 539 22 vradio 15 1 0 8 empty empty empty 0 -8 0 10 -262144 -1
-1 1;
#X obj 395 246 t f b;
#X obj 413 219 t f b;
#X obj 424 198 t f b;
#X obj 436 176 t f b;
#X msg 192 280 4;
#X msg 207 256 5;
#X msg 218 229 6;
#X msg 229 199 7;
#X msg 316 283 8;
#X msg 327 256 9;
#X msg 340 230 10;
#X msg 349 202 11;
#X msg 444 285 12;
#X msg 459 259 13;
#X msg 470 233 14;
#X msg 475 204 15;
#X obj 453 26 vradio 15 1 0 8 empty empty empty 0 -8 0 10 -262144 -1
-1 7;
#X obj 178 481 +;
#X text 561 77 8ve adjust;
#X obj 538 161 * 8, f 4;
#X msg 597 140 8;
#X connect 1 0 5 0;
#X connect 2 0 6 0;
#X connect 3 0 9 0;
#X connect 4 0 10 0;
#X connect 5 0 50 0;
#X connect 5 1 7 0;
#X connect 6 0 50 0;
#X connect 6 1 8 0;
#X connect 7 0 0 1;
#X connect 8 0 0 1;
#X connect 9 0 50 0;
#X connect 9 1 11 0;
#X connect 10 0 50 0;
#X connect 10 1 12 0;
#X connect 11 0 0 1;
#X connect 12 0 0 1;
#X connect 13 0 17 0;
#X connect 14 0 18 0;
#X connect 15 0 19 0;
#X connect 16 0 20 0;
#X connect 17 0 50 0;
#X connect 17 1 37 0;
#X connect 18 0 50 0;
#X connect 18 1 38 0;
#X connect 19 0 50 0;
#X connect 19 1 39 0;
#X connect 20 0 50 0;
#X connect 20 1 40 0;
#X connect 21 0 25 0;
#X connect 22 0 26 0;
#X connect 23 0 27 0;
#X connect 24 0 28 0;
#X connect 25 0 50 0;
#X connect 25 1 41 0;
#X connect 26 0 50 0;
#X connect 26 1 42 0;
#X connect 27 0 50 0;
#X connect 27 1 43 0;
#X connect 28 0 50 0;
#X connect 28 1 44 0;
#X connect 29 0 33 0;
#X connect 30 0 34 0;
#X connect 31 0 35 0;
#X connect 32 0 52 0;
#X connect 33 0 50 0;
#X connect 33 1 45 0;
#X connect 34 0 50 0;
#X connect 34 1 46 0;
#X connect 35 0 50 0;
#X connect 35 1 47 0;
#X connect 36 0 50 0;
#X connect 36 1 48 0;
#X connect 37 0 0 1;
#X connect 38 0 0 1;
#X connect 39 0 0 1;
#X connect 40 0 0 1;
#X connect 41 0 0 1;
#X connect 42 0 0 1;
#X connect 43 0 0 1;
#X connect 44 0 0 1;
#X connect 45 0 0 1;
#X connect 46 0 0 1;
#X connect 47 0 0 1;
#X connect 48 0 0 1;
#X connect 49 0 36 0;
#X connect 50 0 0 0;
#X connect 52 0 50 1;
#X connect 53 0 52 1;
#X restore 150 495 pd bass_synth_gui;
#X msg 552 56 4;
#X msg 530 -116 \; keepit /home/dcrowdy/hoo.wav;
#X obj 1053 -100 loadbang;
#X msg 565 -80 \; set_record_file test;
#N canvas 624 148 450 278 (subpatch) 0;
#X array chord_sequence_1 16 float 3;
#A 0 13.0929 22.1571 20.1428 18.1285 16.45 15.4428 15.1071 14.4357
14.0999 14.0999 14.0999 14.0999 14.0999 14.0999 13.4285 13.7642;
#X coords 0 0 16 47 200 140 1 0 0;
#X restore 1045 373 graph;
#X obj 413 382 tabread lead_sequence;
#X msg 1053 -65 \; synth_1_pan 0.5 \; synth_2_pan 0.5 \; player_1_pan
0.5 \; player_2_pan 0.5 \; player_3_pan 0.5 \; player_4_pan 0.5 \;
synth_2_attack 0.1 \; synth_2_decay 0.3 \; synth_2_volume 0.1;
#X floatatom 407 492 5 0 0 0 - - -, f 5;
#X floatatom 407 565 5 0 0 0 - - -, f 5;
#X obj 412 419 - 1;
#X obj 412 459 moses 0;
#X obj 407 597 + 12;
#X obj 411 707 s note 60 90 150 2 0;
#X floatatom 563 539 5 0 0 0 - - -, f 5;
#X text 599 518 amplitude;
#X text 601 561 sample number;
#X text 601 538 duration (msec);
#X text 602 584 start location (msec);
#X text 601 605 rise time (msec);
#X text 603 625 decay time (msec);
#X floatatom 563 518 5 0 0 0 - - -, f 5;
#X floatatom 565 561 5 0 0 0 - - -, f 5;
#X floatatom 566 584 5 0 0 0 - - -, f 5;
#X floatatom 567 605 5 0 0 0 - - -, f 5;
#X floatatom 567 627 5 0 0 0 - - -, f 5;
#X obj 410 671 pack 60 90 150 1 0 10 10;
#N canvas 188 267 1050 681 test 1;
#X msg 62 67 \; dr_sequence_2 0 0 0 0 1 0 0 0 0 0 0 1 0 0 1 0;
#X msg 62 113 \; dr_sequence_3 0 1 0 1 0 0 0 1 0 0 0 1 0 0 1 0 1;
#X msg 62 21 \; dr_sequence_1 0 1 0 0 0 1 0 0 0 1 0 0 0 1 0 0 0;
#X msg 62 159 \; dr_sequence_4 0 0 1 0 1 0 1 0 1 0 1 0 0 1 0 1 0;
#X msg 62 205 \; sequence 0 1 0 0 2 0 0 3 4 0 3 0 2 3 0 0 0;
#X msg 392 113 \; dr_sequence_3 0 0 0 0 0 0 0 0 0 0 0 0 0 0 0 0;
#X msg 392 159 \; dr_sequence_4 0 0 0 0 0 0 0 0 0 0 0 0 0 0 0 0;
#X msg 392 21 \; dr_sequence_1 0 0 0 0 0 0 0 0 0 0 0 0 0 0 0 0;
#X msg 392 67 \; dr_sequence_2 0 0 0 0 0 0 0 0 0 0 0 0 0 0 0 0;
#X msg 392 251 \; lead_sequence 0 0 0 0 0 0 0 0 0 0 0 0 0 0 0 0 0;
#X msg 392 205 \; sequence 0 0 0 0 0 0 0 0 0 0 0 0 0 0 0 0 0;
#X msg 62 251 \; lead_sequence 0 1 0 3 2 1 2 0 2 1 1 2 3 2 0 3 4;
#X msg 64 301 \; lead_sequence 0 1 2 3 4 5 6 7 8 9 10 11 12 13 14 15
16;
#X restore 868 -103 pd test;
#N canvas 66 87 433 768 drum_sequences 0;
#N canvas 0 50 450 300 (subpatch) 0;
#X array dr_sequence_1 16 float 3;
#A 0 1 0 0 0 1 0 0 0 1 0 0 0 1 0 0 0;
#X coords 0 1 15 -1 200 140 1 0 0;
#X restore 56 -437 graph;
#N canvas 219 84 450 300 (subpatch) 0;
#X array dr_sequence_2 16 float 3;
#A 0 0 0 0 1 0 0 0 0 0 0 1 0 0 1 0 0;
#X coords 0 1 15 -1 200 140 1 0 0;
#X restore 61 -255 graph;
#N canvas 51 116 450 300 (subpatch) 0;
#X array dr_sequence_3 16 float 3;
#A 0 1 0 1 0 0 0 1 0 0 0 1 0 0 1 0 1;
#X coords 0 1 15 -1 200 140 1 0 0;
#X restore 61 -77 graph;
#N canvas 217 87 450 300 (subpatch) 0;
#X array dr_sequence_4 16 float 3;
#A 0 0 1 0 1 0 1 0 1 0 1 0 0 1 0 1 0;
#X coords 0 1 15 -1 200 140 1 0 0;
#X restore 59 114 graph;
#X restore 928 -102 pd drum_sequences;
#X text 542 707 sends note to lead_player;
#X obj 708 708 lead_player;
#X obj 440 524 tabread scale;
#X floatatom 852 495 5 0 0 0 - - -, f 5;
#X floatatom 852 568 5 0 0 0 - - -, f 5;
#X obj 857 422 - 1;
#X obj 857 462 moses 0;
#X obj 852 600 + 12;
#X obj 769 528 tabread chordtones;
#X obj 885 527 tabread scale;
#N canvas 2352 122 450 278 (subpatch) 0;
#X array lead_sequence 16 float 3;
#A 0 24.1714 21.4858 18.4644 16.1144 14.4359 12.7574 11.0788 8.72885
6.7146 4.70035 2.35039 0.336134 11.0784 32.5643 34.5786 32.2285;
#X coords 0 0 16 47 200 140 1 0 0;
#X restore -56 654 graph;
#X obj 845 369 tabread lead_sequence_2;
#N canvas 624 148 450 278 (subpatch) 0;
#X array lead_sequence_2 16 float 3;
#A 0 18.4643 19.8071 20.8142 22.4928 23.8356 24.1713 25.1785 25.8499
26.1856 26.857 27.5284 27.8641 28.5355 28.5355 28.5355 25.5142;
#X coords 0 0 16 47 200 140 1 0 0;
#X restore 968 630 graph;
#N canvas 624 148 450 278 (subpatch) 0;
#X array chord_sequence_4 16 float 3;
#A 0 1.67857 0.671428 4.36429 3.02143 1.67857 2.68571 3.69286 3.69286
5.03572 2.68571 4.02857 4.02857 4.36429 4.36429 1.67857 2.35;
#X coords 0 0 16 47 200 140 1 0 0;
#X restore 584 39 graph;
#X obj 747 348 spigot;
#X obj 784 322 tgl 15 0 empty empty empty 17 7 0 10 -262144 -1 -1 0
1;
#X obj 441 348 spigot;
#X obj 493 329 tgl 15 0 empty empty empty 17 7 0 10 -262144 -1 -1 1
1;
#N canvas 60 267 932 802 chordplayer 1;
#X obj 163 74 inlet;
#X floatatom 398 394 5 0 0 0 - - -, f 5;
#X floatatom 398 467 5 0 0 0 - - -, f 5;
#X obj 403 321 - 1;
#X obj 403 361 moses 0;
#X obj 398 499 + 12;
#X obj 402 609 s note 60 90 150 2 0;
#X floatatom 554 441 5 0 0 0 - - -, f 5;
#X text 590 420 amplitude;
#X text 592 463 sample number;
#X text 592 440 duration (msec);
#X text 593 486 start location (msec);
#X text 592 507 rise time (msec);
#X text 594 527 decay time (msec);
#X floatatom 554 420 5 0 0 0 - - -, f 5;
#X floatatom 556 462 5 0 0 0 - - -, f 5;
#X floatatom 557 486 5 0 0 0 - - -, f 5;
#X floatatom 558 507 5 0 0 0 - - -, f 5;
#X floatatom 558 529 5 0 0 0 - - -, f 5;
#X obj 401 573 pack 60 90 150 1 0 10 10;
#X text 533 609 sends note to lead_player;
#X obj 389 426 tabread chordtones;
#X obj 152 160 tabread chord_sequence_1;
#X obj 349 164 tabread chord_sequence_2;
#X obj 556 167 tabread chord_sequence_3;
#X obj 746 165 tabread chord_sequence_4;
#X connect 0 0 22 0;
#X connect 0 0 23 0;
#X connect 0 0 24 0;
#X connect 0 0 25 0;
#X connect 1 0 21 0;
#X connect 2 0 5 0;
#X connect 3 0 4 0;
#X connect 4 1 1 0;
#X connect 5 0 19 0;
#X connect 7 0 19 2;
#X connect 14 0 19 1;
#X connect 15 0 19 3;
#X connect 16 0 19 4;
#X connect 17 0 19 5;
#X connect 18 0 19 6;
#X connect 19 0 6 0;
#X connect 21 0 2 0;
#X connect 22 0 3 0;
#X connect 23 0 3 0;
#X connect 24 0 3 0;
#X connect 25 0 3 0;
#X restore 262 381 pd chordplayer;
#N canvas 624 148 450 278 (subpatch) 0;
#X array chord_sequence_2 16 float 3;
#A 0 15.1071 15.1071 14.7714 14.7714 14.7714 15.1071 16.45 17.7928
18.8 19.4714 16.45 14.7714 15.4429 18.1286 19.4714 17.7928;
#X coords 0 0 16 47 200 140 1 0 0;
#X restore 1037 188 graph;
#X obj 359 343 spigot;
#X obj 406 309 tgl 15 0 empty empty empty 17 7 0 10 -262144 -1 -1 0
1;
#N canvas 624 148 450 278 (subpatch) 0;
#X array chord_sequence_3 16 float 3;
#A 0 6.37858 6.37858 5.70715 7.05 7.05 5.03573 5.70715 5.70715 5.70715
4.70001 5.03573 4.70001 8.39285 8.05714 8.72856 8.72856;
#X coords 0 0 16 47 200 140 1 0 0;
#X restore 792 114 graph;
#X obj 213 -1 mtof;
#X floatatom 214 37 5 0 0 0 - - -, f 5;
#X floatatom 220 -38 5 0 0 0 - - -, f 5;
#X connect 1 0 4 0;
#X connect 1 0 20 0;
#X connect 2 0 6 0;
#X connect 3 0 1 1;
#X connect 5 0 1 0;
#X connect 6 0 3 0;
#X connect 7 0 8 0;
#X connect 7 0 9 0;
#X connect 8 0 6 1;
#X connect 9 0 6 0;
#X connect 14 0 7 0;
#X connect 15 0 2 0;
#X connect 17 0 20 1;
#X connect 18 0 19 0;
#X connect 18 0 21 0;
#X connect 19 0 67 0;
#X connect 19 0 69 0;
#X connect 19 0 73 0;
#X connect 20 0 18 0;
#X connect 20 0 17 0;
#X connect 25 0 6 1;
#X connect 27 0 31 0;
#X connect 30 0 34 0;
#X connect 32 0 55 0;
#X connect 33 0 36 0;
#X connect 34 0 35 0;
#X connect 35 1 32 0;
#X connect 36 0 50 0;
#X connect 38 0 50 2;
#X connect 45 0 50 1;
#X connect 46 0 50 3;
#X connect 47 0 50 4;
#X connect 48 0 50 5;
#X connect 49 0 50 6;
#X connect 50 0 37 0;
#X connect 55 0 33 0;
#X connect 56 0 62 0;
#X connect 57 0 60 0;
#X connect 58 0 59 0;
#X connect 59 1 56 0;
#X connect 60 0 50 0;
#X connect 62 0 57 0;
#X connect 64 0 58 0;
#X connect 67 0 64 0;
#X connect 68 0 67 1;
#X connect 69 0 30 0;
#X connect 70 0 69 1;
#X connect 73 0 71 0;
#X connect 74 0 73 1;
#X connect 76 0 77 0;
#X connect 78 0 76 0;
