#N canvas 1 56 1425 843 10;
#X obj 258 459 *~;
#X obj 84 379 makefilename sample%d;
#X msg 84 402 set \$1;
#X obj 84 425 tabread4~ sample1;
#X obj 340 402 dbtorms;
#X obj 361 378 unpack;
#X obj 340 425 sqrt;
#X obj 340 448 sqrt;
#X obj 337 551 *~;
#X obj 386 496 *~;
#X obj 386 519 *~;
#X msg 181 25 bang;
#X obj 181 55 delay 5;
#X obj 406 167 f;
#X obj 347 144 f;
#X obj 289 144 f;
#X obj 258 144 f;
#X obj 227 144 f;
#X obj 136 142 f;
#X obj 136 165 mtof;
#X obj 136 188 / 261.62;
#X obj 136 211 * 4.41e+08;
#X obj 136 234 +;
#X obj 379 144 delay;
#X obj 227 286 pack 0 0 0 0 0;
#X obj 181 78 t b b b;
#X obj 289 190 + 1;
#X obj 289 167 * 44.1;
#X msg 35 321 0 5;
#X msg 269 320 1 5;
#X msg 305 320 0 \, \$1 \$2;
#X msg 108 321 \$3 \, \$4 1e+07;
#X msg 233 320 \$5;
#X msg 385 320 0 \$1;
#X obj 248 44 inlet;
#X obj 519 664 inlet~;
#X obj 25 379 vline~;
#X obj 281 379 vline~;
#X obj 386 473 vline~;
#X obj 558 579 sqrt;
#X obj 545 542 expr 1 - $f1;
#X floatatom 502 515 5 0 0 0 - - -, f 5;
#X obj 460 584 sqrt;
#X obj 374 760 outlet~;
#X obj 485 759 outlet~;
#X obj 387 649 *~;
#X obj 456 646 *~;
#X text 617 166 So have 2 audio inputs to sampvoice to be added to
everything else \; And an extra parameter to the note list that indicates
pan information. That information uses the sub-patch below to add the
appropriate signal to each side \; So we'll need two outlets for this
patch too.;
#X obj 413 673 inlet~;
#X obj 400 703 +~;
#X obj 483 699 +~;
#X obj 269 78 unpack 0 0 0 0 0 0 0 0;
#X connect 0 0 8 0;
#X connect 1 0 2 0;
#X connect 2 0 3 0;
#X connect 3 0 0 0;
#X connect 4 0 6 0;
#X connect 5 0 4 0;
#X connect 5 1 38 1;
#X connect 6 0 7 0;
#X connect 7 0 38 0;
#X connect 8 0 46 0;
#X connect 8 0 45 0;
#X connect 9 0 10 0;
#X connect 9 0 10 1;
#X connect 10 0 8 1;
#X connect 11 0 12 0;
#X connect 11 0 28 0;
#X connect 12 0 25 0;
#X connect 13 0 33 0;
#X connect 14 0 24 1;
#X connect 15 0 27 0;
#X connect 16 0 24 4;
#X connect 17 0 24 0;
#X connect 18 0 19 0;
#X connect 19 0 20 0;
#X connect 20 0 21 0;
#X connect 21 0 22 0;
#X connect 22 0 24 3;
#X connect 23 0 13 0;
#X connect 24 0 29 0;
#X connect 24 0 30 0;
#X connect 24 0 31 0;
#X connect 24 0 32 0;
#X connect 25 0 17 0;
#X connect 25 1 18 0;
#X connect 25 2 14 0;
#X connect 25 2 15 0;
#X connect 25 2 16 0;
#X connect 25 2 23 0;
#X connect 26 0 24 2;
#X connect 26 0 22 1;
#X connect 27 0 26 0;
#X connect 28 0 37 0;
#X connect 29 0 37 0;
#X connect 30 0 5 0;
#X connect 31 0 36 0;
#X connect 32 0 1 0;
#X connect 33 0 5 0;
#X connect 34 0 51 0;
#X connect 35 0 50 1;
#X connect 36 0 3 0;
#X connect 37 0 0 1;
#X connect 38 0 9 0;
#X connect 38 0 9 1;
#X connect 39 0 45 1;
#X connect 40 0 39 0;
#X connect 41 0 42 0;
#X connect 41 0 40 0;
#X connect 42 0 46 1;
#X connect 45 0 49 0;
#X connect 46 0 50 0;
#X connect 48 0 49 1;
#X connect 49 0 43 0;
#X connect 50 0 44 0;
#X connect 51 0 18 1;
#X connect 51 0 11 0;
#X connect 51 1 17 1;
#X connect 51 2 23 1;
#X connect 51 3 16 1;
#X connect 51 4 15 1;
#X connect 51 5 14 1;
#X connect 51 6 13 1;
#X connect 51 7 41 0;
